; NON-PLATED HOLES START AT T1
; THROUGH (PLATED) HOLES START AT T100
M48
INCH
T100C0.035000
T101C0.015748
T102C0.036000
T103C0.038000
%
T100
X006912Y002616
X002912Y005616
X006912Y006616
X002912Y001616
T101
X005912Y002616
T102
X003912Y000616
X012912Y007616
X004912Y000616
X005912Y000616
X003912Y007616
X004912Y007616
X005912Y007616
X006912Y000616
X007912Y000616
X006912Y007616
X007912Y007616
X010912Y000616
X008912Y000616
X009912Y000616
X001912Y000616
X010912Y007616
X002912Y000616
X008912Y007616
X009912Y007616
X001912Y007616
X011912Y000616
X002912Y007616
X012912Y000616
X011912Y007616
T103
X004912Y004616
X008912Y003616
X004912Y003616
X008912Y004616
T00
M30
