G04 MADE WITH FRITZING*
G04 WWW.FRITZING.ORG*
G04 DOUBLE SIDED*
G04 HOLES PLATED*
G04 CONTOUR ON CENTER OF CONTOUR VECTOR*
%ASAXBY*%
%FSLAX23Y23*%
%MOIN*%
%OFA0B0*%
%SFA1.0B1.0*%
%ADD10C,0.074000*%
%ADD11C,0.078000*%
%ADD12C,0.068000*%
%ADD13R,0.078000X0.078000*%
%ADD14C,0.024000*%
%ADD15R,0.001000X0.001000*%
%LNCOPPER0*%
G90*
G70*
G54D10*
X910Y362D03*
X910Y462D03*
X1310Y562D03*
X1410Y562D03*
X910Y362D03*
X910Y462D03*
X1310Y562D03*
X1410Y562D03*
G54D11*
X261Y492D03*
X361Y492D03*
X591Y490D03*
X491Y490D03*
G54D12*
X391Y62D03*
X491Y62D03*
X291Y62D03*
X191Y62D03*
X591Y62D03*
X691Y62D03*
X791Y62D03*
X891Y62D03*
X991Y62D03*
X1091Y62D03*
X1191Y62D03*
X1291Y62D03*
X491Y762D03*
X391Y762D03*
X291Y762D03*
X191Y762D03*
X591Y762D03*
X691Y762D03*
X791Y762D03*
X891Y762D03*
X1091Y762D03*
X991Y762D03*
X1191Y762D03*
X1291Y762D03*
G54D13*
X261Y492D03*
X591Y490D03*
G54D14*
X1192Y361D02*
X1192Y561D01*
D02*
X1192Y561D02*
X1278Y735D01*
D02*
X941Y362D02*
X1192Y361D01*
D02*
X1091Y462D02*
X941Y462D01*
D02*
X1091Y561D02*
X1091Y462D01*
D02*
X1178Y736D02*
X1091Y561D01*
D02*
X254Y521D02*
X199Y733D01*
G54D15*
X187Y796D02*
X194Y796D01*
X287Y796D02*
X294Y796D01*
X387Y796D02*
X394Y796D01*
X487Y796D02*
X494Y796D01*
X587Y796D02*
X594Y796D01*
X687Y796D02*
X694Y796D01*
X787Y796D02*
X794Y796D01*
X887Y796D02*
X894Y796D01*
X987Y796D02*
X994Y796D01*
X1087Y796D02*
X1094Y796D01*
X1187Y796D02*
X1194Y796D01*
X1287Y796D02*
X1294Y796D01*
X182Y795D02*
X199Y795D01*
X282Y795D02*
X299Y795D01*
X382Y795D02*
X399Y795D01*
X482Y795D02*
X499Y795D01*
X582Y795D02*
X598Y795D01*
X682Y795D02*
X698Y795D01*
X782Y795D02*
X798Y795D01*
X882Y795D02*
X898Y795D01*
X982Y795D02*
X998Y795D01*
X1082Y795D02*
X1098Y795D01*
X1182Y795D02*
X1198Y795D01*
X1282Y795D02*
X1298Y795D01*
X179Y794D02*
X201Y794D01*
X279Y794D02*
X301Y794D01*
X379Y794D02*
X401Y794D01*
X479Y794D02*
X501Y794D01*
X579Y794D02*
X601Y794D01*
X679Y794D02*
X701Y794D01*
X779Y794D02*
X801Y794D01*
X879Y794D02*
X901Y794D01*
X979Y794D02*
X1001Y794D01*
X1079Y794D02*
X1101Y794D01*
X1179Y794D02*
X1201Y794D01*
X1279Y794D02*
X1301Y794D01*
X177Y793D02*
X204Y793D01*
X277Y793D02*
X304Y793D01*
X377Y793D02*
X404Y793D01*
X477Y793D02*
X504Y793D01*
X577Y793D02*
X604Y793D01*
X677Y793D02*
X703Y793D01*
X777Y793D02*
X803Y793D01*
X877Y793D02*
X903Y793D01*
X977Y793D02*
X1003Y793D01*
X1077Y793D02*
X1103Y793D01*
X1177Y793D02*
X1203Y793D01*
X1277Y793D02*
X1303Y793D01*
X175Y792D02*
X206Y792D01*
X275Y792D02*
X306Y792D01*
X375Y792D02*
X405Y792D01*
X475Y792D02*
X505Y792D01*
X575Y792D02*
X605Y792D01*
X675Y792D02*
X705Y792D01*
X775Y792D02*
X805Y792D01*
X875Y792D02*
X905Y792D01*
X975Y792D02*
X1005Y792D01*
X1075Y792D02*
X1105Y792D01*
X1175Y792D02*
X1205Y792D01*
X1275Y792D02*
X1305Y792D01*
X174Y791D02*
X207Y791D01*
X274Y791D02*
X307Y791D01*
X374Y791D02*
X407Y791D01*
X474Y791D02*
X507Y791D01*
X574Y791D02*
X607Y791D01*
X674Y791D02*
X707Y791D01*
X774Y791D02*
X807Y791D01*
X873Y791D02*
X907Y791D01*
X973Y791D02*
X1007Y791D01*
X1073Y791D02*
X1107Y791D01*
X1173Y791D02*
X1207Y791D01*
X1273Y791D02*
X1307Y791D01*
X172Y790D02*
X209Y790D01*
X272Y790D02*
X309Y790D01*
X372Y790D02*
X409Y790D01*
X472Y790D02*
X509Y790D01*
X572Y790D02*
X609Y790D01*
X672Y790D02*
X709Y790D01*
X772Y790D02*
X809Y790D01*
X872Y790D02*
X908Y790D01*
X972Y790D02*
X1008Y790D01*
X1072Y790D02*
X1108Y790D01*
X1172Y790D02*
X1208Y790D01*
X1272Y790D02*
X1308Y790D01*
X171Y789D02*
X210Y789D01*
X271Y789D02*
X310Y789D01*
X371Y789D02*
X410Y789D01*
X471Y789D02*
X510Y789D01*
X571Y789D02*
X610Y789D01*
X671Y789D02*
X710Y789D01*
X771Y789D02*
X810Y789D01*
X871Y789D02*
X910Y789D01*
X971Y789D02*
X1010Y789D01*
X1071Y789D02*
X1110Y789D01*
X1171Y789D02*
X1210Y789D01*
X1271Y789D02*
X1310Y789D01*
X170Y788D02*
X211Y788D01*
X270Y788D02*
X311Y788D01*
X370Y788D02*
X411Y788D01*
X470Y788D02*
X511Y788D01*
X570Y788D02*
X611Y788D01*
X669Y788D02*
X711Y788D01*
X769Y788D02*
X811Y788D01*
X869Y788D02*
X911Y788D01*
X969Y788D02*
X1011Y788D01*
X1069Y788D02*
X1111Y788D01*
X1169Y788D02*
X1211Y788D01*
X1269Y788D02*
X1311Y788D01*
X169Y787D02*
X212Y787D01*
X269Y787D02*
X312Y787D01*
X368Y787D02*
X412Y787D01*
X468Y787D02*
X512Y787D01*
X568Y787D02*
X612Y787D01*
X668Y787D02*
X712Y787D01*
X768Y787D02*
X812Y787D01*
X868Y787D02*
X912Y787D01*
X968Y787D02*
X1012Y787D01*
X1068Y787D02*
X1112Y787D01*
X1168Y787D02*
X1212Y787D01*
X1268Y787D02*
X1312Y787D01*
X167Y786D02*
X213Y786D01*
X267Y786D02*
X313Y786D01*
X367Y786D02*
X413Y786D01*
X467Y786D02*
X513Y786D01*
X567Y786D02*
X613Y786D01*
X667Y786D02*
X713Y786D01*
X767Y786D02*
X813Y786D01*
X867Y786D02*
X913Y786D01*
X967Y786D02*
X1013Y786D01*
X1067Y786D02*
X1113Y786D01*
X1167Y786D02*
X1213Y786D01*
X1267Y786D02*
X1313Y786D01*
X167Y785D02*
X214Y785D01*
X267Y785D02*
X314Y785D01*
X366Y785D02*
X414Y785D01*
X466Y785D02*
X514Y785D01*
X566Y785D02*
X614Y785D01*
X666Y785D02*
X714Y785D01*
X766Y785D02*
X814Y785D01*
X866Y785D02*
X914Y785D01*
X966Y785D02*
X1014Y785D01*
X1066Y785D02*
X1114Y785D01*
X1166Y785D02*
X1214Y785D01*
X1266Y785D02*
X1314Y785D01*
X166Y784D02*
X215Y784D01*
X266Y784D02*
X315Y784D01*
X366Y784D02*
X415Y784D01*
X466Y784D02*
X515Y784D01*
X566Y784D02*
X615Y784D01*
X666Y784D02*
X715Y784D01*
X765Y784D02*
X815Y784D01*
X865Y784D02*
X915Y784D01*
X965Y784D02*
X1015Y784D01*
X1065Y784D02*
X1115Y784D01*
X1165Y784D02*
X1215Y784D01*
X1265Y784D02*
X1315Y784D01*
X165Y783D02*
X216Y783D01*
X265Y783D02*
X316Y783D01*
X365Y783D02*
X416Y783D01*
X465Y783D02*
X516Y783D01*
X565Y783D02*
X616Y783D01*
X665Y783D02*
X716Y783D01*
X765Y783D02*
X816Y783D01*
X865Y783D02*
X916Y783D01*
X965Y783D02*
X1016Y783D01*
X1065Y783D02*
X1116Y783D01*
X1165Y783D02*
X1216Y783D01*
X1265Y783D02*
X1316Y783D01*
X164Y782D02*
X217Y782D01*
X264Y782D02*
X317Y782D01*
X364Y782D02*
X417Y782D01*
X464Y782D02*
X517Y782D01*
X564Y782D02*
X617Y782D01*
X664Y782D02*
X717Y782D01*
X764Y782D02*
X817Y782D01*
X864Y782D02*
X917Y782D01*
X964Y782D02*
X1017Y782D01*
X1064Y782D02*
X1117Y782D01*
X1164Y782D02*
X1217Y782D01*
X1264Y782D02*
X1317Y782D01*
X163Y781D02*
X218Y781D01*
X263Y781D02*
X318Y781D01*
X363Y781D02*
X418Y781D01*
X463Y781D02*
X518Y781D01*
X563Y781D02*
X618Y781D01*
X663Y781D02*
X718Y781D01*
X763Y781D02*
X818Y781D01*
X863Y781D02*
X918Y781D01*
X963Y781D02*
X1018Y781D01*
X1063Y781D02*
X1117Y781D01*
X1163Y781D02*
X1217Y781D01*
X1263Y781D02*
X1317Y781D01*
X163Y780D02*
X186Y780D01*
X195Y780D02*
X218Y780D01*
X263Y780D02*
X286Y780D01*
X295Y780D02*
X318Y780D01*
X363Y780D02*
X386Y780D01*
X395Y780D02*
X418Y780D01*
X463Y780D02*
X486Y780D01*
X495Y780D02*
X518Y780D01*
X563Y780D02*
X586Y780D01*
X595Y780D02*
X618Y780D01*
X663Y780D02*
X686Y780D01*
X695Y780D02*
X718Y780D01*
X762Y780D02*
X786Y780D01*
X795Y780D02*
X818Y780D01*
X862Y780D02*
X886Y780D01*
X895Y780D02*
X918Y780D01*
X962Y780D02*
X986Y780D01*
X995Y780D02*
X1018Y780D01*
X1062Y780D02*
X1086Y780D01*
X1095Y780D02*
X1118Y780D01*
X1162Y780D02*
X1186Y780D01*
X1195Y780D02*
X1218Y780D01*
X1262Y780D02*
X1286Y780D01*
X1295Y780D02*
X1318Y780D01*
X162Y779D02*
X182Y779D01*
X198Y779D02*
X219Y779D01*
X262Y779D02*
X282Y779D01*
X298Y779D02*
X319Y779D01*
X362Y779D02*
X382Y779D01*
X398Y779D02*
X419Y779D01*
X462Y779D02*
X482Y779D01*
X498Y779D02*
X519Y779D01*
X562Y779D02*
X582Y779D01*
X598Y779D02*
X619Y779D01*
X662Y779D02*
X682Y779D01*
X698Y779D02*
X719Y779D01*
X762Y779D02*
X782Y779D01*
X798Y779D02*
X819Y779D01*
X862Y779D02*
X882Y779D01*
X898Y779D02*
X919Y779D01*
X962Y779D02*
X982Y779D01*
X998Y779D02*
X1019Y779D01*
X1062Y779D02*
X1082Y779D01*
X1098Y779D02*
X1119Y779D01*
X1162Y779D02*
X1182Y779D01*
X1198Y779D02*
X1219Y779D01*
X1262Y779D02*
X1282Y779D01*
X1298Y779D02*
X1319Y779D01*
X161Y778D02*
X180Y778D01*
X200Y778D02*
X220Y778D01*
X261Y778D02*
X280Y778D01*
X300Y778D02*
X320Y778D01*
X361Y778D02*
X380Y778D01*
X400Y778D02*
X420Y778D01*
X461Y778D02*
X480Y778D01*
X500Y778D02*
X520Y778D01*
X561Y778D02*
X580Y778D01*
X600Y778D02*
X620Y778D01*
X661Y778D02*
X680Y778D01*
X700Y778D02*
X720Y778D01*
X761Y778D02*
X780Y778D01*
X800Y778D02*
X820Y778D01*
X861Y778D02*
X880Y778D01*
X900Y778D02*
X919Y778D01*
X961Y778D02*
X980Y778D01*
X1000Y778D02*
X1019Y778D01*
X1061Y778D02*
X1080Y778D01*
X1100Y778D02*
X1119Y778D01*
X1161Y778D02*
X1180Y778D01*
X1200Y778D02*
X1219Y778D01*
X1261Y778D02*
X1280Y778D01*
X1300Y778D02*
X1319Y778D01*
X161Y777D02*
X179Y777D01*
X202Y777D02*
X220Y777D01*
X261Y777D02*
X279Y777D01*
X302Y777D02*
X320Y777D01*
X361Y777D02*
X379Y777D01*
X402Y777D02*
X420Y777D01*
X461Y777D02*
X479Y777D01*
X502Y777D02*
X520Y777D01*
X561Y777D02*
X579Y777D01*
X602Y777D02*
X620Y777D01*
X661Y777D02*
X679Y777D01*
X702Y777D02*
X720Y777D01*
X761Y777D02*
X779Y777D01*
X802Y777D02*
X820Y777D01*
X861Y777D02*
X879Y777D01*
X902Y777D02*
X920Y777D01*
X961Y777D02*
X979Y777D01*
X1002Y777D02*
X1020Y777D01*
X1061Y777D02*
X1079Y777D01*
X1102Y777D02*
X1120Y777D01*
X1161Y777D02*
X1179Y777D01*
X1202Y777D02*
X1220Y777D01*
X1261Y777D02*
X1278Y777D01*
X1302Y777D02*
X1320Y777D01*
X160Y776D02*
X178Y776D01*
X203Y776D02*
X221Y776D01*
X260Y776D02*
X278Y776D01*
X303Y776D02*
X321Y776D01*
X360Y776D02*
X378Y776D01*
X403Y776D02*
X421Y776D01*
X460Y776D02*
X477Y776D01*
X503Y776D02*
X521Y776D01*
X560Y776D02*
X577Y776D01*
X603Y776D02*
X621Y776D01*
X660Y776D02*
X677Y776D01*
X703Y776D02*
X721Y776D01*
X760Y776D02*
X777Y776D01*
X803Y776D02*
X821Y776D01*
X860Y776D02*
X877Y776D01*
X903Y776D02*
X921Y776D01*
X960Y776D02*
X977Y776D01*
X1003Y776D02*
X1021Y776D01*
X1060Y776D02*
X1077Y776D01*
X1103Y776D02*
X1120Y776D01*
X1160Y776D02*
X1177Y776D01*
X1203Y776D02*
X1220Y776D01*
X1260Y776D02*
X1277Y776D01*
X1303Y776D02*
X1320Y776D01*
X160Y775D02*
X177Y775D01*
X204Y775D02*
X221Y775D01*
X260Y775D02*
X277Y775D01*
X304Y775D02*
X321Y775D01*
X360Y775D02*
X376Y775D01*
X404Y775D02*
X421Y775D01*
X460Y775D02*
X476Y775D01*
X504Y775D02*
X521Y775D01*
X560Y775D02*
X576Y775D01*
X604Y775D02*
X621Y775D01*
X660Y775D02*
X676Y775D01*
X704Y775D02*
X721Y775D01*
X760Y775D02*
X776Y775D01*
X804Y775D02*
X821Y775D01*
X860Y775D02*
X876Y775D01*
X904Y775D02*
X921Y775D01*
X960Y775D02*
X976Y775D01*
X1004Y775D02*
X1021Y775D01*
X1060Y775D02*
X1076Y775D01*
X1104Y775D02*
X1121Y775D01*
X1160Y775D02*
X1176Y775D01*
X1204Y775D02*
X1221Y775D01*
X1260Y775D02*
X1276Y775D01*
X1304Y775D02*
X1321Y775D01*
X160Y774D02*
X176Y774D01*
X205Y774D02*
X222Y774D01*
X260Y774D02*
X276Y774D01*
X305Y774D02*
X322Y774D01*
X359Y774D02*
X376Y774D01*
X405Y774D02*
X422Y774D01*
X459Y774D02*
X476Y774D01*
X505Y774D02*
X522Y774D01*
X559Y774D02*
X576Y774D01*
X605Y774D02*
X622Y774D01*
X659Y774D02*
X676Y774D01*
X705Y774D02*
X722Y774D01*
X759Y774D02*
X776Y774D01*
X805Y774D02*
X821Y774D01*
X859Y774D02*
X876Y774D01*
X905Y774D02*
X921Y774D01*
X959Y774D02*
X976Y774D01*
X1005Y774D02*
X1021Y774D01*
X1059Y774D02*
X1076Y774D01*
X1105Y774D02*
X1121Y774D01*
X1159Y774D02*
X1175Y774D01*
X1205Y774D02*
X1221Y774D01*
X1259Y774D02*
X1275Y774D01*
X1305Y774D02*
X1321Y774D01*
X159Y773D02*
X175Y773D01*
X206Y773D02*
X222Y773D01*
X259Y773D02*
X275Y773D01*
X306Y773D02*
X322Y773D01*
X359Y773D02*
X375Y773D01*
X406Y773D02*
X422Y773D01*
X459Y773D02*
X475Y773D01*
X506Y773D02*
X522Y773D01*
X559Y773D02*
X575Y773D01*
X606Y773D02*
X622Y773D01*
X659Y773D02*
X675Y773D01*
X706Y773D02*
X722Y773D01*
X759Y773D02*
X775Y773D01*
X806Y773D02*
X822Y773D01*
X859Y773D02*
X875Y773D01*
X906Y773D02*
X922Y773D01*
X959Y773D02*
X975Y773D01*
X1006Y773D02*
X1022Y773D01*
X1059Y773D02*
X1075Y773D01*
X1106Y773D02*
X1122Y773D01*
X1159Y773D02*
X1175Y773D01*
X1206Y773D02*
X1222Y773D01*
X1259Y773D02*
X1275Y773D01*
X1306Y773D02*
X1322Y773D01*
X159Y772D02*
X174Y772D01*
X207Y772D02*
X222Y772D01*
X259Y772D02*
X274Y772D01*
X307Y772D02*
X322Y772D01*
X359Y772D02*
X374Y772D01*
X407Y772D02*
X422Y772D01*
X459Y772D02*
X474Y772D01*
X507Y772D02*
X522Y772D01*
X559Y772D02*
X574Y772D01*
X607Y772D02*
X622Y772D01*
X659Y772D02*
X674Y772D01*
X707Y772D02*
X722Y772D01*
X759Y772D02*
X774Y772D01*
X806Y772D02*
X822Y772D01*
X859Y772D02*
X874Y772D01*
X906Y772D02*
X922Y772D01*
X959Y772D02*
X974Y772D01*
X1006Y772D02*
X1022Y772D01*
X1059Y772D02*
X1074Y772D01*
X1106Y772D02*
X1122Y772D01*
X1159Y772D02*
X1174Y772D01*
X1206Y772D02*
X1222Y772D01*
X1258Y772D02*
X1274Y772D01*
X1306Y772D02*
X1322Y772D01*
X158Y771D02*
X174Y771D01*
X207Y771D02*
X223Y771D01*
X258Y771D02*
X274Y771D01*
X307Y771D02*
X323Y771D01*
X358Y771D02*
X374Y771D01*
X407Y771D02*
X423Y771D01*
X458Y771D02*
X474Y771D01*
X507Y771D02*
X523Y771D01*
X558Y771D02*
X574Y771D01*
X607Y771D02*
X623Y771D01*
X658Y771D02*
X674Y771D01*
X707Y771D02*
X723Y771D01*
X758Y771D02*
X774Y771D01*
X807Y771D02*
X823Y771D01*
X858Y771D02*
X874Y771D01*
X907Y771D02*
X923Y771D01*
X958Y771D02*
X974Y771D01*
X1007Y771D02*
X1023Y771D01*
X1058Y771D02*
X1074Y771D01*
X1107Y771D02*
X1123Y771D01*
X1158Y771D02*
X1174Y771D01*
X1207Y771D02*
X1222Y771D01*
X1258Y771D02*
X1274Y771D01*
X1307Y771D02*
X1322Y771D01*
X158Y770D02*
X173Y770D01*
X208Y770D02*
X223Y770D01*
X258Y770D02*
X273Y770D01*
X308Y770D02*
X323Y770D01*
X358Y770D02*
X373Y770D01*
X408Y770D02*
X423Y770D01*
X458Y770D02*
X473Y770D01*
X508Y770D02*
X523Y770D01*
X558Y770D02*
X573Y770D01*
X608Y770D02*
X623Y770D01*
X658Y770D02*
X673Y770D01*
X708Y770D02*
X723Y770D01*
X758Y770D02*
X773Y770D01*
X807Y770D02*
X823Y770D01*
X858Y770D02*
X873Y770D01*
X907Y770D02*
X923Y770D01*
X958Y770D02*
X973Y770D01*
X1007Y770D02*
X1023Y770D01*
X1058Y770D02*
X1073Y770D01*
X1107Y770D02*
X1123Y770D01*
X1158Y770D02*
X1173Y770D01*
X1207Y770D02*
X1223Y770D01*
X1258Y770D02*
X1273Y770D01*
X1307Y770D02*
X1323Y770D01*
X158Y769D02*
X173Y769D01*
X208Y769D02*
X223Y769D01*
X258Y769D02*
X273Y769D01*
X308Y769D02*
X323Y769D01*
X358Y769D02*
X373Y769D01*
X408Y769D02*
X423Y769D01*
X458Y769D02*
X473Y769D01*
X508Y769D02*
X523Y769D01*
X558Y769D02*
X573Y769D01*
X608Y769D02*
X623Y769D01*
X658Y769D02*
X673Y769D01*
X708Y769D02*
X723Y769D01*
X758Y769D02*
X773Y769D01*
X808Y769D02*
X823Y769D01*
X858Y769D02*
X873Y769D01*
X908Y769D02*
X923Y769D01*
X958Y769D02*
X973Y769D01*
X1008Y769D02*
X1023Y769D01*
X1058Y769D02*
X1073Y769D01*
X1108Y769D02*
X1123Y769D01*
X1158Y769D02*
X1173Y769D01*
X1208Y769D02*
X1223Y769D01*
X1258Y769D02*
X1273Y769D01*
X1308Y769D02*
X1323Y769D01*
X158Y768D02*
X173Y768D01*
X208Y768D02*
X224Y768D01*
X258Y768D02*
X273Y768D01*
X308Y768D02*
X323Y768D01*
X358Y768D02*
X373Y768D01*
X408Y768D02*
X423Y768D01*
X458Y768D02*
X473Y768D01*
X508Y768D02*
X523Y768D01*
X558Y768D02*
X573Y768D01*
X608Y768D02*
X623Y768D01*
X658Y768D02*
X673Y768D01*
X708Y768D02*
X723Y768D01*
X758Y768D02*
X773Y768D01*
X808Y768D02*
X823Y768D01*
X858Y768D02*
X873Y768D01*
X908Y768D02*
X923Y768D01*
X958Y768D02*
X973Y768D01*
X1008Y768D02*
X1023Y768D01*
X1058Y768D02*
X1073Y768D01*
X1108Y768D02*
X1123Y768D01*
X1157Y768D02*
X1173Y768D01*
X1208Y768D02*
X1223Y768D01*
X1257Y768D02*
X1273Y768D01*
X1308Y768D02*
X1323Y768D01*
X158Y767D02*
X173Y767D01*
X209Y767D02*
X224Y767D01*
X258Y767D02*
X273Y767D01*
X309Y767D02*
X324Y767D01*
X358Y767D02*
X373Y767D01*
X409Y767D02*
X424Y767D01*
X457Y767D02*
X473Y767D01*
X509Y767D02*
X524Y767D01*
X557Y767D02*
X573Y767D01*
X608Y767D02*
X624Y767D01*
X657Y767D02*
X673Y767D01*
X708Y767D02*
X724Y767D01*
X757Y767D02*
X772Y767D01*
X808Y767D02*
X824Y767D01*
X857Y767D02*
X872Y767D01*
X908Y767D02*
X924Y767D01*
X957Y767D02*
X972Y767D01*
X1008Y767D02*
X1023Y767D01*
X1057Y767D02*
X1072Y767D01*
X1108Y767D02*
X1123Y767D01*
X1157Y767D02*
X1172Y767D01*
X1208Y767D02*
X1223Y767D01*
X1257Y767D02*
X1272Y767D01*
X1308Y767D02*
X1323Y767D01*
X157Y766D02*
X172Y766D01*
X209Y766D02*
X224Y766D01*
X257Y766D02*
X272Y766D01*
X309Y766D02*
X324Y766D01*
X357Y766D02*
X372Y766D01*
X409Y766D02*
X424Y766D01*
X457Y766D02*
X472Y766D01*
X509Y766D02*
X524Y766D01*
X557Y766D02*
X572Y766D01*
X609Y766D02*
X624Y766D01*
X657Y766D02*
X672Y766D01*
X709Y766D02*
X724Y766D01*
X757Y766D02*
X772Y766D01*
X809Y766D02*
X824Y766D01*
X857Y766D02*
X872Y766D01*
X909Y766D02*
X924Y766D01*
X957Y766D02*
X972Y766D01*
X1009Y766D02*
X1024Y766D01*
X1057Y766D02*
X1072Y766D01*
X1109Y766D02*
X1124Y766D01*
X1157Y766D02*
X1172Y766D01*
X1209Y766D02*
X1224Y766D01*
X1257Y766D02*
X1272Y766D01*
X1309Y766D02*
X1324Y766D01*
X157Y765D02*
X172Y765D01*
X209Y765D02*
X224Y765D01*
X257Y765D02*
X272Y765D01*
X309Y765D02*
X324Y765D01*
X357Y765D02*
X372Y765D01*
X409Y765D02*
X424Y765D01*
X457Y765D02*
X472Y765D01*
X509Y765D02*
X524Y765D01*
X557Y765D02*
X572Y765D01*
X609Y765D02*
X624Y765D01*
X657Y765D02*
X672Y765D01*
X709Y765D02*
X724Y765D01*
X757Y765D02*
X772Y765D01*
X809Y765D02*
X824Y765D01*
X857Y765D02*
X872Y765D01*
X909Y765D02*
X924Y765D01*
X957Y765D02*
X972Y765D01*
X1009Y765D02*
X1024Y765D01*
X1057Y765D02*
X1072Y765D01*
X1109Y765D02*
X1124Y765D01*
X1157Y765D02*
X1172Y765D01*
X1209Y765D02*
X1224Y765D01*
X1257Y765D02*
X1272Y765D01*
X1309Y765D02*
X1324Y765D01*
X157Y764D02*
X172Y764D01*
X209Y764D02*
X224Y764D01*
X257Y764D02*
X272Y764D01*
X309Y764D02*
X324Y764D01*
X357Y764D02*
X372Y764D01*
X409Y764D02*
X424Y764D01*
X457Y764D02*
X472Y764D01*
X509Y764D02*
X524Y764D01*
X557Y764D02*
X572Y764D01*
X609Y764D02*
X624Y764D01*
X657Y764D02*
X672Y764D01*
X709Y764D02*
X724Y764D01*
X757Y764D02*
X772Y764D01*
X809Y764D02*
X824Y764D01*
X857Y764D02*
X872Y764D01*
X909Y764D02*
X924Y764D01*
X957Y764D02*
X972Y764D01*
X1009Y764D02*
X1024Y764D01*
X1057Y764D02*
X1072Y764D01*
X1109Y764D02*
X1124Y764D01*
X1157Y764D02*
X1172Y764D01*
X1209Y764D02*
X1224Y764D01*
X1257Y764D02*
X1272Y764D01*
X1309Y764D02*
X1324Y764D01*
X157Y763D02*
X172Y763D01*
X209Y763D02*
X224Y763D01*
X257Y763D02*
X272Y763D01*
X309Y763D02*
X324Y763D01*
X357Y763D02*
X372Y763D01*
X409Y763D02*
X424Y763D01*
X457Y763D02*
X472Y763D01*
X509Y763D02*
X524Y763D01*
X557Y763D02*
X572Y763D01*
X609Y763D02*
X624Y763D01*
X657Y763D02*
X672Y763D01*
X709Y763D02*
X724Y763D01*
X757Y763D02*
X772Y763D01*
X809Y763D02*
X824Y763D01*
X857Y763D02*
X872Y763D01*
X909Y763D02*
X924Y763D01*
X957Y763D02*
X972Y763D01*
X1009Y763D02*
X1024Y763D01*
X1057Y763D02*
X1072Y763D01*
X1109Y763D02*
X1124Y763D01*
X1157Y763D02*
X1172Y763D01*
X1209Y763D02*
X1224Y763D01*
X1257Y763D02*
X1272Y763D01*
X1309Y763D02*
X1324Y763D01*
X157Y762D02*
X172Y762D01*
X209Y762D02*
X224Y762D01*
X257Y762D02*
X272Y762D01*
X309Y762D02*
X324Y762D01*
X357Y762D02*
X372Y762D01*
X409Y762D02*
X424Y762D01*
X457Y762D02*
X472Y762D01*
X509Y762D02*
X524Y762D01*
X557Y762D02*
X572Y762D01*
X609Y762D02*
X624Y762D01*
X657Y762D02*
X672Y762D01*
X709Y762D02*
X724Y762D01*
X757Y762D02*
X772Y762D01*
X809Y762D02*
X824Y762D01*
X857Y762D02*
X872Y762D01*
X909Y762D02*
X924Y762D01*
X957Y762D02*
X972Y762D01*
X1009Y762D02*
X1024Y762D01*
X1057Y762D02*
X1072Y762D01*
X1109Y762D02*
X1124Y762D01*
X1157Y762D02*
X1172Y762D01*
X1209Y762D02*
X1224Y762D01*
X1257Y762D02*
X1272Y762D01*
X1309Y762D02*
X1324Y762D01*
X157Y761D02*
X172Y761D01*
X209Y761D02*
X224Y761D01*
X257Y761D02*
X272Y761D01*
X309Y761D02*
X324Y761D01*
X357Y761D02*
X372Y761D01*
X409Y761D02*
X424Y761D01*
X457Y761D02*
X472Y761D01*
X509Y761D02*
X524Y761D01*
X557Y761D02*
X572Y761D01*
X609Y761D02*
X624Y761D01*
X657Y761D02*
X672Y761D01*
X709Y761D02*
X724Y761D01*
X757Y761D02*
X772Y761D01*
X809Y761D02*
X824Y761D01*
X857Y761D02*
X872Y761D01*
X909Y761D02*
X924Y761D01*
X957Y761D02*
X972Y761D01*
X1009Y761D02*
X1024Y761D01*
X1057Y761D02*
X1072Y761D01*
X1109Y761D02*
X1124Y761D01*
X1157Y761D02*
X1172Y761D01*
X1209Y761D02*
X1224Y761D01*
X1257Y761D02*
X1272Y761D01*
X1309Y761D02*
X1324Y761D01*
X157Y760D02*
X172Y760D01*
X209Y760D02*
X224Y760D01*
X257Y760D02*
X272Y760D01*
X309Y760D02*
X324Y760D01*
X357Y760D02*
X372Y760D01*
X409Y760D02*
X424Y760D01*
X457Y760D02*
X472Y760D01*
X509Y760D02*
X524Y760D01*
X557Y760D02*
X572Y760D01*
X609Y760D02*
X624Y760D01*
X657Y760D02*
X672Y760D01*
X709Y760D02*
X724Y760D01*
X757Y760D02*
X772Y760D01*
X809Y760D02*
X824Y760D01*
X857Y760D02*
X872Y760D01*
X909Y760D02*
X924Y760D01*
X957Y760D02*
X972Y760D01*
X1009Y760D02*
X1024Y760D01*
X1057Y760D02*
X1072Y760D01*
X1109Y760D02*
X1124Y760D01*
X1157Y760D02*
X1172Y760D01*
X1209Y760D02*
X1224Y760D01*
X1257Y760D02*
X1272Y760D01*
X1309Y760D02*
X1324Y760D01*
X157Y759D02*
X172Y759D01*
X209Y759D02*
X224Y759D01*
X257Y759D02*
X272Y759D01*
X309Y759D02*
X324Y759D01*
X357Y759D02*
X372Y759D01*
X409Y759D02*
X424Y759D01*
X457Y759D02*
X472Y759D01*
X509Y759D02*
X524Y759D01*
X557Y759D02*
X572Y759D01*
X609Y759D02*
X624Y759D01*
X657Y759D02*
X672Y759D01*
X709Y759D02*
X724Y759D01*
X757Y759D02*
X772Y759D01*
X809Y759D02*
X824Y759D01*
X857Y759D02*
X872Y759D01*
X909Y759D02*
X924Y759D01*
X957Y759D02*
X972Y759D01*
X1009Y759D02*
X1024Y759D01*
X1057Y759D02*
X1072Y759D01*
X1109Y759D02*
X1124Y759D01*
X1157Y759D02*
X1172Y759D01*
X1209Y759D02*
X1224Y759D01*
X1257Y759D02*
X1272Y759D01*
X1309Y759D02*
X1324Y759D01*
X157Y758D02*
X173Y758D01*
X209Y758D02*
X224Y758D01*
X257Y758D02*
X272Y758D01*
X309Y758D02*
X324Y758D01*
X357Y758D02*
X372Y758D01*
X409Y758D02*
X424Y758D01*
X457Y758D02*
X472Y758D01*
X509Y758D02*
X524Y758D01*
X557Y758D02*
X572Y758D01*
X609Y758D02*
X624Y758D01*
X657Y758D02*
X672Y758D01*
X709Y758D02*
X724Y758D01*
X757Y758D02*
X772Y758D01*
X809Y758D02*
X824Y758D01*
X857Y758D02*
X872Y758D01*
X909Y758D02*
X924Y758D01*
X957Y758D02*
X972Y758D01*
X1009Y758D02*
X1024Y758D01*
X1057Y758D02*
X1072Y758D01*
X1108Y758D02*
X1124Y758D01*
X1157Y758D02*
X1172Y758D01*
X1208Y758D02*
X1224Y758D01*
X1257Y758D02*
X1272Y758D01*
X1308Y758D02*
X1324Y758D01*
X158Y757D02*
X173Y757D01*
X208Y757D02*
X224Y757D01*
X258Y757D02*
X273Y757D01*
X308Y757D02*
X324Y757D01*
X358Y757D02*
X373Y757D01*
X408Y757D02*
X424Y757D01*
X458Y757D02*
X473Y757D01*
X508Y757D02*
X524Y757D01*
X558Y757D02*
X573Y757D01*
X608Y757D02*
X624Y757D01*
X658Y757D02*
X673Y757D01*
X708Y757D02*
X723Y757D01*
X757Y757D02*
X773Y757D01*
X808Y757D02*
X823Y757D01*
X857Y757D02*
X873Y757D01*
X908Y757D02*
X923Y757D01*
X957Y757D02*
X973Y757D01*
X1008Y757D02*
X1023Y757D01*
X1057Y757D02*
X1073Y757D01*
X1108Y757D02*
X1123Y757D01*
X1157Y757D02*
X1172Y757D01*
X1208Y757D02*
X1223Y757D01*
X1257Y757D02*
X1272Y757D01*
X1308Y757D02*
X1323Y757D01*
X158Y756D02*
X173Y756D01*
X208Y756D02*
X223Y756D01*
X258Y756D02*
X273Y756D01*
X308Y756D02*
X323Y756D01*
X358Y756D02*
X373Y756D01*
X408Y756D02*
X423Y756D01*
X458Y756D02*
X473Y756D01*
X508Y756D02*
X523Y756D01*
X558Y756D02*
X573Y756D01*
X608Y756D02*
X623Y756D01*
X658Y756D02*
X673Y756D01*
X708Y756D02*
X723Y756D01*
X758Y756D02*
X773Y756D01*
X808Y756D02*
X823Y756D01*
X858Y756D02*
X873Y756D01*
X908Y756D02*
X923Y756D01*
X958Y756D02*
X973Y756D01*
X1008Y756D02*
X1023Y756D01*
X1058Y756D02*
X1073Y756D01*
X1108Y756D02*
X1123Y756D01*
X1158Y756D02*
X1173Y756D01*
X1208Y756D02*
X1223Y756D01*
X1258Y756D02*
X1273Y756D01*
X1308Y756D02*
X1323Y756D01*
X158Y755D02*
X173Y755D01*
X208Y755D02*
X223Y755D01*
X258Y755D02*
X273Y755D01*
X308Y755D02*
X323Y755D01*
X358Y755D02*
X373Y755D01*
X408Y755D02*
X423Y755D01*
X458Y755D02*
X473Y755D01*
X508Y755D02*
X523Y755D01*
X558Y755D02*
X573Y755D01*
X608Y755D02*
X623Y755D01*
X658Y755D02*
X673Y755D01*
X708Y755D02*
X723Y755D01*
X758Y755D02*
X773Y755D01*
X808Y755D02*
X823Y755D01*
X858Y755D02*
X873Y755D01*
X908Y755D02*
X923Y755D01*
X958Y755D02*
X973Y755D01*
X1008Y755D02*
X1023Y755D01*
X1058Y755D02*
X1073Y755D01*
X1108Y755D02*
X1123Y755D01*
X1158Y755D02*
X1173Y755D01*
X1208Y755D02*
X1223Y755D01*
X1258Y755D02*
X1273Y755D01*
X1308Y755D02*
X1323Y755D01*
X158Y754D02*
X174Y754D01*
X208Y754D02*
X223Y754D01*
X258Y754D02*
X274Y754D01*
X307Y754D02*
X323Y754D01*
X358Y754D02*
X374Y754D01*
X407Y754D02*
X423Y754D01*
X458Y754D02*
X474Y754D01*
X507Y754D02*
X523Y754D01*
X558Y754D02*
X574Y754D01*
X607Y754D02*
X623Y754D01*
X658Y754D02*
X673Y754D01*
X707Y754D02*
X723Y754D01*
X758Y754D02*
X773Y754D01*
X807Y754D02*
X823Y754D01*
X858Y754D02*
X873Y754D01*
X907Y754D02*
X923Y754D01*
X958Y754D02*
X973Y754D01*
X1007Y754D02*
X1023Y754D01*
X1058Y754D02*
X1073Y754D01*
X1107Y754D02*
X1123Y754D01*
X1158Y754D02*
X1173Y754D01*
X1207Y754D02*
X1223Y754D01*
X1258Y754D02*
X1273Y754D01*
X1307Y754D02*
X1323Y754D01*
X159Y753D02*
X174Y753D01*
X207Y753D02*
X223Y753D01*
X259Y753D02*
X274Y753D01*
X307Y753D02*
X323Y753D01*
X359Y753D02*
X374Y753D01*
X407Y753D02*
X423Y753D01*
X458Y753D02*
X474Y753D01*
X507Y753D02*
X523Y753D01*
X558Y753D02*
X574Y753D01*
X607Y753D02*
X623Y753D01*
X658Y753D02*
X674Y753D01*
X707Y753D02*
X723Y753D01*
X758Y753D02*
X774Y753D01*
X807Y753D02*
X822Y753D01*
X858Y753D02*
X874Y753D01*
X907Y753D02*
X922Y753D01*
X958Y753D02*
X974Y753D01*
X1007Y753D02*
X1022Y753D01*
X1058Y753D02*
X1074Y753D01*
X1107Y753D02*
X1122Y753D01*
X1158Y753D02*
X1174Y753D01*
X1207Y753D02*
X1222Y753D01*
X1258Y753D02*
X1274Y753D01*
X1307Y753D02*
X1322Y753D01*
X159Y752D02*
X175Y752D01*
X207Y752D02*
X222Y752D01*
X259Y752D02*
X275Y752D01*
X306Y752D02*
X322Y752D01*
X359Y752D02*
X374Y752D01*
X406Y752D02*
X422Y752D01*
X459Y752D02*
X474Y752D01*
X506Y752D02*
X522Y752D01*
X559Y752D02*
X574Y752D01*
X606Y752D02*
X622Y752D01*
X659Y752D02*
X674Y752D01*
X706Y752D02*
X722Y752D01*
X759Y752D02*
X774Y752D01*
X806Y752D02*
X822Y752D01*
X859Y752D02*
X874Y752D01*
X906Y752D02*
X922Y752D01*
X959Y752D02*
X974Y752D01*
X1006Y752D02*
X1022Y752D01*
X1059Y752D02*
X1074Y752D01*
X1106Y752D02*
X1122Y752D01*
X1159Y752D02*
X1174Y752D01*
X1206Y752D02*
X1222Y752D01*
X1259Y752D02*
X1274Y752D01*
X1306Y752D02*
X1322Y752D01*
X159Y751D02*
X175Y751D01*
X206Y751D02*
X222Y751D01*
X259Y751D02*
X275Y751D01*
X306Y751D02*
X322Y751D01*
X359Y751D02*
X375Y751D01*
X406Y751D02*
X422Y751D01*
X459Y751D02*
X475Y751D01*
X506Y751D02*
X522Y751D01*
X559Y751D02*
X575Y751D01*
X606Y751D02*
X622Y751D01*
X659Y751D02*
X675Y751D01*
X706Y751D02*
X722Y751D01*
X759Y751D02*
X775Y751D01*
X806Y751D02*
X822Y751D01*
X859Y751D02*
X875Y751D01*
X906Y751D02*
X922Y751D01*
X959Y751D02*
X975Y751D01*
X1006Y751D02*
X1022Y751D01*
X1059Y751D02*
X1075Y751D01*
X1106Y751D02*
X1122Y751D01*
X1159Y751D02*
X1175Y751D01*
X1206Y751D02*
X1222Y751D01*
X1259Y751D02*
X1275Y751D01*
X1306Y751D02*
X1322Y751D01*
X160Y750D02*
X176Y750D01*
X205Y750D02*
X222Y750D01*
X260Y750D02*
X276Y750D01*
X305Y750D02*
X322Y750D01*
X360Y750D02*
X376Y750D01*
X405Y750D02*
X421Y750D01*
X460Y750D02*
X476Y750D01*
X505Y750D02*
X521Y750D01*
X560Y750D02*
X576Y750D01*
X605Y750D02*
X621Y750D01*
X660Y750D02*
X676Y750D01*
X705Y750D02*
X721Y750D01*
X759Y750D02*
X776Y750D01*
X805Y750D02*
X821Y750D01*
X859Y750D02*
X876Y750D01*
X905Y750D02*
X921Y750D01*
X959Y750D02*
X976Y750D01*
X1005Y750D02*
X1021Y750D01*
X1059Y750D02*
X1076Y750D01*
X1105Y750D02*
X1121Y750D01*
X1159Y750D02*
X1176Y750D01*
X1205Y750D02*
X1221Y750D01*
X1259Y750D02*
X1276Y750D01*
X1305Y750D02*
X1321Y750D01*
X160Y749D02*
X177Y749D01*
X204Y749D02*
X221Y749D01*
X260Y749D02*
X277Y749D01*
X304Y749D02*
X321Y749D01*
X360Y749D02*
X377Y749D01*
X404Y749D02*
X421Y749D01*
X460Y749D02*
X477Y749D01*
X504Y749D02*
X521Y749D01*
X560Y749D02*
X577Y749D01*
X604Y749D02*
X621Y749D01*
X660Y749D02*
X677Y749D01*
X704Y749D02*
X721Y749D01*
X760Y749D02*
X777Y749D01*
X804Y749D02*
X821Y749D01*
X860Y749D02*
X877Y749D01*
X904Y749D02*
X921Y749D01*
X960Y749D02*
X977Y749D01*
X1004Y749D02*
X1021Y749D01*
X1060Y749D02*
X1077Y749D01*
X1104Y749D02*
X1121Y749D01*
X1160Y749D02*
X1177Y749D01*
X1204Y749D02*
X1221Y749D01*
X1260Y749D02*
X1277Y749D01*
X1304Y749D02*
X1321Y749D01*
X161Y748D02*
X178Y748D01*
X203Y748D02*
X221Y748D01*
X261Y748D02*
X278Y748D01*
X303Y748D02*
X321Y748D01*
X360Y748D02*
X378Y748D01*
X403Y748D02*
X421Y748D01*
X460Y748D02*
X478Y748D01*
X503Y748D02*
X521Y748D01*
X560Y748D02*
X578Y748D01*
X603Y748D02*
X620Y748D01*
X660Y748D02*
X678Y748D01*
X703Y748D02*
X720Y748D01*
X760Y748D02*
X778Y748D01*
X803Y748D02*
X820Y748D01*
X860Y748D02*
X878Y748D01*
X903Y748D02*
X920Y748D01*
X960Y748D02*
X978Y748D01*
X1003Y748D02*
X1020Y748D01*
X1060Y748D02*
X1078Y748D01*
X1103Y748D02*
X1120Y748D01*
X1160Y748D02*
X1178Y748D01*
X1203Y748D02*
X1220Y748D01*
X1260Y748D02*
X1278Y748D01*
X1303Y748D02*
X1320Y748D01*
X161Y747D02*
X179Y747D01*
X202Y747D02*
X220Y747D01*
X261Y747D02*
X279Y747D01*
X301Y747D02*
X320Y747D01*
X361Y747D02*
X379Y747D01*
X401Y747D02*
X420Y747D01*
X461Y747D02*
X479Y747D01*
X501Y747D02*
X520Y747D01*
X561Y747D02*
X579Y747D01*
X601Y747D02*
X620Y747D01*
X661Y747D02*
X679Y747D01*
X701Y747D02*
X720Y747D01*
X761Y747D02*
X779Y747D01*
X801Y747D02*
X820Y747D01*
X861Y747D02*
X879Y747D01*
X901Y747D02*
X920Y747D01*
X961Y747D02*
X979Y747D01*
X1001Y747D02*
X1020Y747D01*
X1061Y747D02*
X1079Y747D01*
X1101Y747D02*
X1120Y747D01*
X1161Y747D02*
X1179Y747D01*
X1201Y747D02*
X1220Y747D01*
X1261Y747D02*
X1279Y747D01*
X1301Y747D02*
X1320Y747D01*
X162Y746D02*
X181Y746D01*
X199Y746D02*
X220Y746D01*
X262Y746D02*
X281Y746D01*
X299Y746D02*
X319Y746D01*
X362Y746D02*
X381Y746D01*
X399Y746D02*
X419Y746D01*
X462Y746D02*
X481Y746D01*
X499Y746D02*
X519Y746D01*
X561Y746D02*
X581Y746D01*
X599Y746D02*
X619Y746D01*
X661Y746D02*
X681Y746D01*
X699Y746D02*
X719Y746D01*
X761Y746D02*
X781Y746D01*
X799Y746D02*
X819Y746D01*
X861Y746D02*
X881Y746D01*
X899Y746D02*
X919Y746D01*
X961Y746D02*
X981Y746D01*
X999Y746D02*
X1019Y746D01*
X1061Y746D02*
X1081Y746D01*
X1099Y746D02*
X1119Y746D01*
X1161Y746D02*
X1181Y746D01*
X1199Y746D02*
X1219Y746D01*
X1261Y746D02*
X1281Y746D01*
X1299Y746D02*
X1319Y746D01*
X162Y745D02*
X185Y745D01*
X196Y745D02*
X219Y745D01*
X262Y745D02*
X285Y745D01*
X296Y745D02*
X319Y745D01*
X362Y745D02*
X385Y745D01*
X396Y745D02*
X419Y745D01*
X462Y745D02*
X485Y745D01*
X496Y745D02*
X519Y745D01*
X562Y745D02*
X585Y745D01*
X596Y745D02*
X619Y745D01*
X662Y745D02*
X684Y745D01*
X696Y745D02*
X719Y745D01*
X762Y745D02*
X784Y745D01*
X796Y745D02*
X819Y745D01*
X862Y745D02*
X884Y745D01*
X896Y745D02*
X919Y745D01*
X962Y745D02*
X984Y745D01*
X996Y745D02*
X1019Y745D01*
X1062Y745D02*
X1084Y745D01*
X1096Y745D02*
X1119Y745D01*
X1162Y745D02*
X1184Y745D01*
X1196Y745D02*
X1219Y745D01*
X1262Y745D02*
X1284Y745D01*
X1296Y745D02*
X1319Y745D01*
X163Y744D02*
X218Y744D01*
X263Y744D02*
X318Y744D01*
X363Y744D02*
X418Y744D01*
X463Y744D02*
X518Y744D01*
X563Y744D02*
X618Y744D01*
X663Y744D02*
X718Y744D01*
X763Y744D02*
X818Y744D01*
X863Y744D02*
X918Y744D01*
X963Y744D02*
X1018Y744D01*
X1063Y744D02*
X1118Y744D01*
X1163Y744D02*
X1218Y744D01*
X1263Y744D02*
X1318Y744D01*
X164Y743D02*
X218Y743D01*
X263Y743D02*
X318Y743D01*
X363Y743D02*
X417Y743D01*
X463Y743D02*
X517Y743D01*
X563Y743D02*
X617Y743D01*
X663Y743D02*
X717Y743D01*
X763Y743D02*
X817Y743D01*
X863Y743D02*
X917Y743D01*
X963Y743D02*
X1017Y743D01*
X1063Y743D02*
X1117Y743D01*
X1163Y743D02*
X1217Y743D01*
X1263Y743D02*
X1317Y743D01*
X164Y742D02*
X217Y742D01*
X264Y742D02*
X317Y742D01*
X364Y742D02*
X417Y742D01*
X464Y742D02*
X517Y742D01*
X564Y742D02*
X617Y742D01*
X664Y742D02*
X717Y742D01*
X764Y742D02*
X817Y742D01*
X864Y742D02*
X917Y742D01*
X964Y742D02*
X1017Y742D01*
X1064Y742D02*
X1117Y742D01*
X1164Y742D02*
X1216Y742D01*
X1264Y742D02*
X1316Y742D01*
X165Y741D02*
X216Y741D01*
X265Y741D02*
X316Y741D01*
X365Y741D02*
X416Y741D01*
X465Y741D02*
X516Y741D01*
X565Y741D02*
X616Y741D01*
X665Y741D02*
X716Y741D01*
X765Y741D02*
X816Y741D01*
X865Y741D02*
X916Y741D01*
X965Y741D02*
X1016Y741D01*
X1065Y741D02*
X1116Y741D01*
X1165Y741D02*
X1216Y741D01*
X1265Y741D02*
X1316Y741D01*
X166Y740D02*
X215Y740D01*
X266Y740D02*
X315Y740D01*
X366Y740D02*
X415Y740D01*
X466Y740D02*
X515Y740D01*
X566Y740D02*
X615Y740D01*
X666Y740D02*
X715Y740D01*
X766Y740D02*
X815Y740D01*
X866Y740D02*
X915Y740D01*
X966Y740D02*
X1015Y740D01*
X1066Y740D02*
X1115Y740D01*
X1166Y740D02*
X1215Y740D01*
X1266Y740D02*
X1315Y740D01*
X167Y739D02*
X214Y739D01*
X267Y739D02*
X314Y739D01*
X367Y739D02*
X414Y739D01*
X467Y739D02*
X514Y739D01*
X567Y739D02*
X614Y739D01*
X667Y739D02*
X714Y739D01*
X767Y739D02*
X814Y739D01*
X867Y739D02*
X914Y739D01*
X967Y739D02*
X1014Y739D01*
X1067Y739D02*
X1114Y739D01*
X1167Y739D02*
X1214Y739D01*
X1267Y739D02*
X1314Y739D01*
X168Y738D02*
X213Y738D01*
X268Y738D02*
X313Y738D01*
X368Y738D02*
X413Y738D01*
X468Y738D02*
X513Y738D01*
X568Y738D02*
X613Y738D01*
X668Y738D02*
X713Y738D01*
X768Y738D02*
X813Y738D01*
X868Y738D02*
X913Y738D01*
X968Y738D02*
X1013Y738D01*
X1068Y738D02*
X1113Y738D01*
X1168Y738D02*
X1213Y738D01*
X1268Y738D02*
X1313Y738D01*
X169Y737D02*
X212Y737D01*
X269Y737D02*
X312Y737D01*
X369Y737D02*
X412Y737D01*
X469Y737D02*
X512Y737D01*
X569Y737D02*
X612Y737D01*
X669Y737D02*
X712Y737D01*
X769Y737D02*
X812Y737D01*
X869Y737D02*
X912Y737D01*
X969Y737D02*
X1012Y737D01*
X1069Y737D02*
X1112Y737D01*
X1169Y737D02*
X1212Y737D01*
X1269Y737D02*
X1312Y737D01*
X170Y736D02*
X211Y736D01*
X270Y736D02*
X311Y736D01*
X370Y736D02*
X411Y736D01*
X470Y736D02*
X511Y736D01*
X570Y736D02*
X611Y736D01*
X670Y736D02*
X711Y736D01*
X770Y736D02*
X811Y736D01*
X870Y736D02*
X911Y736D01*
X970Y736D02*
X1011Y736D01*
X1070Y736D02*
X1111Y736D01*
X1170Y736D02*
X1211Y736D01*
X1270Y736D02*
X1310Y736D01*
X171Y735D02*
X209Y735D01*
X271Y735D02*
X309Y735D01*
X371Y735D02*
X409Y735D01*
X471Y735D02*
X509Y735D01*
X571Y735D02*
X609Y735D01*
X671Y735D02*
X709Y735D01*
X771Y735D02*
X809Y735D01*
X871Y735D02*
X909Y735D01*
X971Y735D02*
X1009Y735D01*
X1071Y735D02*
X1109Y735D01*
X1171Y735D02*
X1209Y735D01*
X1271Y735D02*
X1309Y735D01*
X173Y734D02*
X208Y734D01*
X273Y734D02*
X308Y734D01*
X373Y734D02*
X408Y734D01*
X473Y734D02*
X508Y734D01*
X573Y734D02*
X608Y734D01*
X673Y734D02*
X708Y734D01*
X773Y734D02*
X808Y734D01*
X873Y734D02*
X908Y734D01*
X973Y734D02*
X1008Y734D01*
X1073Y734D02*
X1108Y734D01*
X1173Y734D02*
X1208Y734D01*
X1273Y734D02*
X1308Y734D01*
X174Y733D02*
X206Y733D01*
X274Y733D02*
X306Y733D01*
X374Y733D02*
X406Y733D01*
X474Y733D02*
X506Y733D01*
X574Y733D02*
X606Y733D01*
X674Y733D02*
X706Y733D01*
X774Y733D02*
X806Y733D01*
X874Y733D02*
X906Y733D01*
X974Y733D02*
X1006Y733D01*
X1074Y733D02*
X1106Y733D01*
X1174Y733D02*
X1206Y733D01*
X1274Y733D02*
X1306Y733D01*
X176Y732D02*
X205Y732D01*
X276Y732D02*
X305Y732D01*
X376Y732D02*
X404Y732D01*
X476Y732D02*
X504Y732D01*
X576Y732D02*
X604Y732D01*
X676Y732D02*
X704Y732D01*
X776Y732D02*
X804Y732D01*
X876Y732D02*
X904Y732D01*
X976Y732D02*
X1004Y732D01*
X1076Y732D02*
X1104Y732D01*
X1176Y732D02*
X1204Y732D01*
X1276Y732D02*
X1304Y732D01*
X178Y731D02*
X202Y731D01*
X278Y731D02*
X302Y731D01*
X378Y731D02*
X402Y731D01*
X478Y731D02*
X502Y731D01*
X578Y731D02*
X602Y731D01*
X678Y731D02*
X702Y731D01*
X778Y731D02*
X802Y731D01*
X878Y731D02*
X902Y731D01*
X978Y731D02*
X1002Y731D01*
X1078Y731D02*
X1102Y731D01*
X1178Y731D02*
X1202Y731D01*
X1278Y731D02*
X1302Y731D01*
X181Y730D02*
X200Y730D01*
X281Y730D02*
X300Y730D01*
X381Y730D02*
X400Y730D01*
X481Y730D02*
X500Y730D01*
X581Y730D02*
X600Y730D01*
X681Y730D02*
X700Y730D01*
X781Y730D02*
X800Y730D01*
X881Y730D02*
X900Y730D01*
X981Y730D02*
X1000Y730D01*
X1081Y730D02*
X1100Y730D01*
X1181Y730D02*
X1200Y730D01*
X1281Y730D02*
X1300Y730D01*
X185Y729D02*
X196Y729D01*
X285Y729D02*
X296Y729D01*
X385Y729D02*
X396Y729D01*
X485Y729D02*
X496Y729D01*
X585Y729D02*
X596Y729D01*
X685Y729D02*
X696Y729D01*
X785Y729D02*
X796Y729D01*
X885Y729D02*
X896Y729D01*
X985Y729D02*
X996Y729D01*
X1085Y729D02*
X1096Y729D01*
X1185Y729D02*
X1196Y729D01*
X1285Y729D02*
X1296Y729D01*
X183Y96D02*
X198Y96D01*
X283Y96D02*
X298Y96D01*
X383Y96D02*
X397Y96D01*
X483Y96D02*
X497Y96D01*
X583Y96D02*
X597Y96D01*
X683Y96D02*
X697Y96D01*
X783Y96D02*
X797Y96D01*
X883Y96D02*
X897Y96D01*
X983Y96D02*
X997Y96D01*
X1083Y96D02*
X1097Y96D01*
X1183Y96D02*
X1197Y96D01*
X1283Y96D02*
X1297Y96D01*
X180Y95D02*
X201Y95D01*
X280Y95D02*
X301Y95D01*
X380Y95D02*
X401Y95D01*
X480Y95D02*
X501Y95D01*
X580Y95D02*
X601Y95D01*
X680Y95D02*
X701Y95D01*
X780Y95D02*
X800Y95D01*
X880Y95D02*
X900Y95D01*
X980Y95D02*
X1000Y95D01*
X1080Y95D02*
X1100Y95D01*
X1180Y95D02*
X1200Y95D01*
X1280Y95D02*
X1300Y95D01*
X178Y94D02*
X203Y94D01*
X278Y94D02*
X303Y94D01*
X378Y94D02*
X403Y94D01*
X478Y94D02*
X503Y94D01*
X578Y94D02*
X603Y94D01*
X678Y94D02*
X703Y94D01*
X778Y94D02*
X803Y94D01*
X878Y94D02*
X903Y94D01*
X978Y94D02*
X1003Y94D01*
X1078Y94D02*
X1103Y94D01*
X1178Y94D02*
X1203Y94D01*
X1278Y94D02*
X1303Y94D01*
X176Y93D02*
X205Y93D01*
X276Y93D02*
X305Y93D01*
X376Y93D02*
X405Y93D01*
X476Y93D02*
X505Y93D01*
X576Y93D02*
X605Y93D01*
X676Y93D02*
X705Y93D01*
X776Y93D02*
X805Y93D01*
X876Y93D02*
X905Y93D01*
X976Y93D02*
X1005Y93D01*
X1076Y93D02*
X1105Y93D01*
X1176Y93D02*
X1205Y93D01*
X1276Y93D02*
X1305Y93D01*
X174Y92D02*
X207Y92D01*
X274Y92D02*
X307Y92D01*
X374Y92D02*
X407Y92D01*
X474Y92D02*
X507Y92D01*
X574Y92D02*
X607Y92D01*
X674Y92D02*
X707Y92D01*
X774Y92D02*
X807Y92D01*
X874Y92D02*
X906Y92D01*
X974Y92D02*
X1006Y92D01*
X1074Y92D02*
X1106Y92D01*
X1174Y92D02*
X1206Y92D01*
X1274Y92D02*
X1306Y92D01*
X173Y91D02*
X208Y91D01*
X273Y91D02*
X308Y91D01*
X373Y91D02*
X408Y91D01*
X473Y91D02*
X508Y91D01*
X572Y91D02*
X608Y91D01*
X672Y91D02*
X708Y91D01*
X772Y91D02*
X808Y91D01*
X872Y91D02*
X908Y91D01*
X972Y91D02*
X1008Y91D01*
X1072Y91D02*
X1108Y91D01*
X1172Y91D02*
X1208Y91D01*
X1272Y91D02*
X1308Y91D01*
X171Y90D02*
X210Y90D01*
X271Y90D02*
X310Y90D01*
X371Y90D02*
X410Y90D01*
X471Y90D02*
X510Y90D01*
X571Y90D02*
X609Y90D01*
X671Y90D02*
X709Y90D01*
X771Y90D02*
X809Y90D01*
X871Y90D02*
X909Y90D01*
X971Y90D02*
X1009Y90D01*
X1071Y90D02*
X1109Y90D01*
X1171Y90D02*
X1209Y90D01*
X1271Y90D02*
X1309Y90D01*
X170Y89D02*
X211Y89D01*
X270Y89D02*
X311Y89D01*
X370Y89D02*
X411Y89D01*
X470Y89D02*
X511Y89D01*
X570Y89D02*
X611Y89D01*
X670Y89D02*
X711Y89D01*
X770Y89D02*
X811Y89D01*
X870Y89D02*
X911Y89D01*
X970Y89D02*
X1011Y89D01*
X1070Y89D02*
X1111Y89D01*
X1170Y89D02*
X1211Y89D01*
X1270Y89D02*
X1311Y89D01*
X169Y88D02*
X212Y88D01*
X269Y88D02*
X312Y88D01*
X369Y88D02*
X412Y88D01*
X469Y88D02*
X512Y88D01*
X569Y88D02*
X612Y88D01*
X669Y88D02*
X712Y88D01*
X769Y88D02*
X812Y88D01*
X869Y88D02*
X912Y88D01*
X969Y88D02*
X1012Y88D01*
X1069Y88D02*
X1112Y88D01*
X1169Y88D02*
X1212Y88D01*
X1269Y88D02*
X1312Y88D01*
X168Y87D02*
X213Y87D01*
X268Y87D02*
X313Y87D01*
X368Y87D02*
X413Y87D01*
X468Y87D02*
X513Y87D01*
X568Y87D02*
X613Y87D01*
X668Y87D02*
X713Y87D01*
X768Y87D02*
X813Y87D01*
X868Y87D02*
X913Y87D01*
X968Y87D02*
X1013Y87D01*
X1068Y87D02*
X1113Y87D01*
X1168Y87D02*
X1213Y87D01*
X1267Y87D02*
X1313Y87D01*
X167Y86D02*
X214Y86D01*
X267Y86D02*
X314Y86D01*
X367Y86D02*
X414Y86D01*
X467Y86D02*
X514Y86D01*
X567Y86D02*
X614Y86D01*
X667Y86D02*
X714Y86D01*
X767Y86D02*
X814Y86D01*
X867Y86D02*
X914Y86D01*
X967Y86D02*
X1014Y86D01*
X1067Y86D02*
X1114Y86D01*
X1167Y86D02*
X1214Y86D01*
X1267Y86D02*
X1314Y86D01*
X166Y85D02*
X215Y85D01*
X266Y85D02*
X315Y85D01*
X366Y85D02*
X415Y85D01*
X466Y85D02*
X515Y85D01*
X566Y85D02*
X615Y85D01*
X666Y85D02*
X715Y85D01*
X766Y85D02*
X815Y85D01*
X866Y85D02*
X915Y85D01*
X966Y85D02*
X1015Y85D01*
X1066Y85D02*
X1115Y85D01*
X1166Y85D02*
X1215Y85D01*
X1266Y85D02*
X1315Y85D01*
X165Y84D02*
X216Y84D01*
X265Y84D02*
X316Y84D01*
X365Y84D02*
X416Y84D01*
X465Y84D02*
X516Y84D01*
X565Y84D02*
X616Y84D01*
X665Y84D02*
X716Y84D01*
X765Y84D02*
X816Y84D01*
X865Y84D02*
X916Y84D01*
X965Y84D02*
X1016Y84D01*
X1065Y84D02*
X1116Y84D01*
X1165Y84D02*
X1216Y84D01*
X1265Y84D02*
X1316Y84D01*
X164Y83D02*
X217Y83D01*
X264Y83D02*
X317Y83D01*
X364Y83D02*
X417Y83D01*
X464Y83D02*
X517Y83D01*
X564Y83D02*
X617Y83D01*
X664Y83D02*
X717Y83D01*
X764Y83D02*
X817Y83D01*
X864Y83D02*
X917Y83D01*
X964Y83D02*
X1017Y83D01*
X1064Y83D02*
X1116Y83D01*
X1164Y83D02*
X1216Y83D01*
X1264Y83D02*
X1316Y83D01*
X164Y82D02*
X217Y82D01*
X264Y82D02*
X317Y82D01*
X363Y82D02*
X417Y82D01*
X463Y82D02*
X517Y82D01*
X563Y82D02*
X617Y82D01*
X663Y82D02*
X717Y82D01*
X763Y82D02*
X817Y82D01*
X863Y82D02*
X917Y82D01*
X963Y82D02*
X1017Y82D01*
X1063Y82D02*
X1117Y82D01*
X1163Y82D02*
X1217Y82D01*
X1263Y82D02*
X1317Y82D01*
X163Y81D02*
X218Y81D01*
X263Y81D02*
X318Y81D01*
X363Y81D02*
X418Y81D01*
X463Y81D02*
X518Y81D01*
X563Y81D02*
X618Y81D01*
X663Y81D02*
X718Y81D01*
X763Y81D02*
X818Y81D01*
X863Y81D02*
X918Y81D01*
X963Y81D02*
X1018Y81D01*
X1063Y81D02*
X1118Y81D01*
X1163Y81D02*
X1218Y81D01*
X1263Y81D02*
X1318Y81D01*
X162Y80D02*
X183Y80D01*
X198Y80D02*
X219Y80D01*
X262Y80D02*
X283Y80D01*
X297Y80D02*
X319Y80D01*
X362Y80D02*
X383Y80D01*
X397Y80D02*
X419Y80D01*
X462Y80D02*
X483Y80D01*
X497Y80D02*
X519Y80D01*
X562Y80D02*
X583Y80D01*
X597Y80D02*
X619Y80D01*
X662Y80D02*
X683Y80D01*
X697Y80D02*
X719Y80D01*
X762Y80D02*
X783Y80D01*
X797Y80D02*
X819Y80D01*
X862Y80D02*
X883Y80D01*
X897Y80D02*
X919Y80D01*
X962Y80D02*
X983Y80D01*
X997Y80D02*
X1019Y80D01*
X1062Y80D02*
X1083Y80D01*
X1097Y80D02*
X1119Y80D01*
X1162Y80D02*
X1183Y80D01*
X1197Y80D02*
X1219Y80D01*
X1262Y80D02*
X1283Y80D01*
X1297Y80D02*
X1319Y80D01*
X162Y79D02*
X181Y79D01*
X200Y79D02*
X219Y79D01*
X262Y79D02*
X281Y79D01*
X300Y79D02*
X319Y79D01*
X362Y79D02*
X381Y79D01*
X400Y79D02*
X419Y79D01*
X462Y79D02*
X481Y79D01*
X500Y79D02*
X519Y79D01*
X562Y79D02*
X581Y79D01*
X600Y79D02*
X619Y79D01*
X661Y79D02*
X681Y79D01*
X700Y79D02*
X719Y79D01*
X761Y79D02*
X781Y79D01*
X800Y79D02*
X819Y79D01*
X861Y79D02*
X881Y79D01*
X900Y79D02*
X919Y79D01*
X961Y79D02*
X981Y79D01*
X1000Y79D02*
X1019Y79D01*
X1061Y79D02*
X1081Y79D01*
X1100Y79D02*
X1119Y79D01*
X1161Y79D02*
X1181Y79D01*
X1200Y79D02*
X1219Y79D01*
X1261Y79D02*
X1281Y79D01*
X1300Y79D02*
X1319Y79D01*
X161Y78D02*
X179Y78D01*
X202Y78D02*
X220Y78D01*
X261Y78D02*
X279Y78D01*
X302Y78D02*
X320Y78D01*
X361Y78D02*
X379Y78D01*
X402Y78D02*
X420Y78D01*
X461Y78D02*
X479Y78D01*
X502Y78D02*
X520Y78D01*
X561Y78D02*
X579Y78D01*
X602Y78D02*
X620Y78D01*
X661Y78D02*
X679Y78D01*
X702Y78D02*
X720Y78D01*
X761Y78D02*
X779Y78D01*
X802Y78D02*
X820Y78D01*
X861Y78D02*
X879Y78D01*
X902Y78D02*
X920Y78D01*
X961Y78D02*
X979Y78D01*
X1001Y78D02*
X1020Y78D01*
X1061Y78D02*
X1079Y78D01*
X1101Y78D02*
X1120Y78D01*
X1161Y78D02*
X1179Y78D01*
X1201Y78D02*
X1220Y78D01*
X1261Y78D02*
X1279Y78D01*
X1301Y78D02*
X1320Y78D01*
X161Y77D02*
X178Y77D01*
X203Y77D02*
X221Y77D01*
X261Y77D02*
X278Y77D01*
X303Y77D02*
X321Y77D01*
X361Y77D02*
X378Y77D01*
X403Y77D02*
X421Y77D01*
X460Y77D02*
X478Y77D01*
X503Y77D02*
X520Y77D01*
X560Y77D02*
X578Y77D01*
X603Y77D02*
X620Y77D01*
X660Y77D02*
X678Y77D01*
X703Y77D02*
X720Y77D01*
X760Y77D02*
X778Y77D01*
X803Y77D02*
X820Y77D01*
X860Y77D02*
X878Y77D01*
X903Y77D02*
X920Y77D01*
X960Y77D02*
X978Y77D01*
X1003Y77D02*
X1020Y77D01*
X1060Y77D02*
X1078Y77D01*
X1103Y77D02*
X1120Y77D01*
X1160Y77D02*
X1178Y77D01*
X1203Y77D02*
X1220Y77D01*
X1260Y77D02*
X1278Y77D01*
X1303Y77D02*
X1320Y77D01*
X160Y76D02*
X177Y76D01*
X204Y76D02*
X221Y76D01*
X260Y76D02*
X277Y76D01*
X304Y76D02*
X321Y76D01*
X360Y76D02*
X377Y76D01*
X404Y76D02*
X421Y76D01*
X460Y76D02*
X477Y76D01*
X504Y76D02*
X521Y76D01*
X560Y76D02*
X577Y76D01*
X604Y76D02*
X621Y76D01*
X660Y76D02*
X677Y76D01*
X704Y76D02*
X721Y76D01*
X760Y76D02*
X777Y76D01*
X804Y76D02*
X821Y76D01*
X860Y76D02*
X877Y76D01*
X904Y76D02*
X921Y76D01*
X960Y76D02*
X977Y76D01*
X1004Y76D02*
X1021Y76D01*
X1060Y76D02*
X1077Y76D01*
X1104Y76D02*
X1121Y76D01*
X1160Y76D02*
X1177Y76D01*
X1204Y76D02*
X1221Y76D01*
X1260Y76D02*
X1276Y76D01*
X1304Y76D02*
X1321Y76D01*
X160Y75D02*
X176Y75D01*
X205Y75D02*
X222Y75D01*
X260Y75D02*
X276Y75D01*
X305Y75D02*
X322Y75D01*
X360Y75D02*
X376Y75D01*
X405Y75D02*
X421Y75D01*
X460Y75D02*
X476Y75D01*
X505Y75D02*
X521Y75D01*
X560Y75D02*
X576Y75D01*
X605Y75D02*
X621Y75D01*
X660Y75D02*
X676Y75D01*
X705Y75D02*
X721Y75D01*
X759Y75D02*
X776Y75D01*
X805Y75D02*
X821Y75D01*
X859Y75D02*
X876Y75D01*
X905Y75D02*
X921Y75D01*
X959Y75D02*
X976Y75D01*
X1005Y75D02*
X1021Y75D01*
X1059Y75D02*
X1076Y75D01*
X1105Y75D02*
X1121Y75D01*
X1159Y75D02*
X1176Y75D01*
X1205Y75D02*
X1221Y75D01*
X1259Y75D02*
X1276Y75D01*
X1305Y75D02*
X1321Y75D01*
X159Y74D02*
X175Y74D01*
X206Y74D02*
X222Y74D01*
X259Y74D02*
X275Y74D01*
X306Y74D02*
X322Y74D01*
X359Y74D02*
X375Y74D01*
X406Y74D02*
X422Y74D01*
X459Y74D02*
X475Y74D01*
X506Y74D02*
X522Y74D01*
X559Y74D02*
X575Y74D01*
X606Y74D02*
X622Y74D01*
X659Y74D02*
X675Y74D01*
X706Y74D02*
X722Y74D01*
X759Y74D02*
X775Y74D01*
X806Y74D02*
X822Y74D01*
X859Y74D02*
X875Y74D01*
X906Y74D02*
X922Y74D01*
X959Y74D02*
X975Y74D01*
X1006Y74D02*
X1022Y74D01*
X1059Y74D02*
X1075Y74D01*
X1106Y74D02*
X1122Y74D01*
X1159Y74D02*
X1175Y74D01*
X1206Y74D02*
X1222Y74D01*
X1259Y74D02*
X1275Y74D01*
X1306Y74D02*
X1322Y74D01*
X159Y73D02*
X175Y73D01*
X206Y73D02*
X222Y73D01*
X259Y73D02*
X275Y73D01*
X306Y73D02*
X322Y73D01*
X359Y73D02*
X375Y73D01*
X406Y73D02*
X422Y73D01*
X459Y73D02*
X474Y73D01*
X506Y73D02*
X522Y73D01*
X559Y73D02*
X574Y73D01*
X606Y73D02*
X622Y73D01*
X659Y73D02*
X674Y73D01*
X706Y73D02*
X722Y73D01*
X759Y73D02*
X774Y73D01*
X806Y73D02*
X822Y73D01*
X859Y73D02*
X874Y73D01*
X906Y73D02*
X922Y73D01*
X959Y73D02*
X974Y73D01*
X1006Y73D02*
X1022Y73D01*
X1059Y73D02*
X1074Y73D01*
X1106Y73D02*
X1122Y73D01*
X1159Y73D02*
X1174Y73D01*
X1206Y73D02*
X1222Y73D01*
X1259Y73D02*
X1274Y73D01*
X1306Y73D02*
X1322Y73D01*
X159Y72D02*
X174Y72D01*
X207Y72D02*
X223Y72D01*
X259Y72D02*
X274Y72D01*
X307Y72D02*
X323Y72D01*
X359Y72D02*
X374Y72D01*
X407Y72D02*
X423Y72D01*
X458Y72D02*
X474Y72D01*
X507Y72D02*
X523Y72D01*
X558Y72D02*
X574Y72D01*
X607Y72D02*
X623Y72D01*
X658Y72D02*
X674Y72D01*
X707Y72D02*
X723Y72D01*
X758Y72D02*
X774Y72D01*
X807Y72D02*
X823Y72D01*
X858Y72D02*
X874Y72D01*
X907Y72D02*
X922Y72D01*
X958Y72D02*
X974Y72D01*
X1007Y72D02*
X1022Y72D01*
X1058Y72D02*
X1074Y72D01*
X1107Y72D02*
X1122Y72D01*
X1158Y72D02*
X1174Y72D01*
X1207Y72D02*
X1222Y72D01*
X1258Y72D02*
X1274Y72D01*
X1307Y72D02*
X1322Y72D01*
X158Y71D02*
X174Y71D01*
X208Y71D02*
X223Y71D01*
X258Y71D02*
X274Y71D01*
X307Y71D02*
X323Y71D01*
X358Y71D02*
X374Y71D01*
X407Y71D02*
X423Y71D01*
X458Y71D02*
X474Y71D01*
X507Y71D02*
X523Y71D01*
X558Y71D02*
X574Y71D01*
X607Y71D02*
X623Y71D01*
X658Y71D02*
X673Y71D01*
X707Y71D02*
X723Y71D01*
X758Y71D02*
X773Y71D01*
X807Y71D02*
X823Y71D01*
X858Y71D02*
X873Y71D01*
X907Y71D02*
X923Y71D01*
X958Y71D02*
X973Y71D01*
X1007Y71D02*
X1023Y71D01*
X1058Y71D02*
X1073Y71D01*
X1107Y71D02*
X1123Y71D01*
X1158Y71D02*
X1173Y71D01*
X1207Y71D02*
X1223Y71D01*
X1258Y71D02*
X1273Y71D01*
X1307Y71D02*
X1323Y71D01*
X158Y70D02*
X173Y70D01*
X208Y70D02*
X223Y70D01*
X258Y70D02*
X273Y70D01*
X308Y70D02*
X323Y70D01*
X358Y70D02*
X373Y70D01*
X408Y70D02*
X423Y70D01*
X458Y70D02*
X473Y70D01*
X508Y70D02*
X523Y70D01*
X558Y70D02*
X573Y70D01*
X608Y70D02*
X623Y70D01*
X658Y70D02*
X673Y70D01*
X708Y70D02*
X723Y70D01*
X758Y70D02*
X773Y70D01*
X808Y70D02*
X823Y70D01*
X858Y70D02*
X873Y70D01*
X908Y70D02*
X923Y70D01*
X958Y70D02*
X973Y70D01*
X1008Y70D02*
X1023Y70D01*
X1058Y70D02*
X1073Y70D01*
X1108Y70D02*
X1123Y70D01*
X1158Y70D02*
X1173Y70D01*
X1208Y70D02*
X1223Y70D01*
X1258Y70D02*
X1273Y70D01*
X1308Y70D02*
X1323Y70D01*
X158Y69D02*
X173Y69D01*
X208Y69D02*
X223Y69D01*
X258Y69D02*
X273Y69D01*
X308Y69D02*
X323Y69D01*
X358Y69D02*
X373Y69D01*
X408Y69D02*
X423Y69D01*
X458Y69D02*
X473Y69D01*
X508Y69D02*
X523Y69D01*
X558Y69D02*
X573Y69D01*
X608Y69D02*
X623Y69D01*
X658Y69D02*
X673Y69D01*
X708Y69D02*
X723Y69D01*
X758Y69D02*
X773Y69D01*
X808Y69D02*
X823Y69D01*
X858Y69D02*
X873Y69D01*
X908Y69D02*
X923Y69D01*
X958Y69D02*
X973Y69D01*
X1008Y69D02*
X1023Y69D01*
X1058Y69D02*
X1073Y69D01*
X1108Y69D02*
X1123Y69D01*
X1158Y69D02*
X1173Y69D01*
X1208Y69D02*
X1223Y69D01*
X1258Y69D02*
X1273Y69D01*
X1308Y69D02*
X1323Y69D01*
X158Y68D02*
X173Y68D01*
X208Y68D02*
X224Y68D01*
X258Y68D02*
X273Y68D01*
X308Y68D02*
X324Y68D01*
X358Y68D02*
X373Y68D01*
X408Y68D02*
X424Y68D01*
X458Y68D02*
X473Y68D01*
X508Y68D02*
X524Y68D01*
X558Y68D02*
X573Y68D01*
X608Y68D02*
X624Y68D01*
X657Y68D02*
X673Y68D01*
X708Y68D02*
X724Y68D01*
X757Y68D02*
X773Y68D01*
X808Y68D02*
X823Y68D01*
X857Y68D02*
X873Y68D01*
X908Y68D02*
X923Y68D01*
X957Y68D02*
X973Y68D01*
X1008Y68D02*
X1023Y68D01*
X1057Y68D02*
X1072Y68D01*
X1108Y68D02*
X1123Y68D01*
X1157Y68D02*
X1172Y68D01*
X1208Y68D02*
X1223Y68D01*
X1257Y68D02*
X1272Y68D01*
X1308Y68D02*
X1323Y68D01*
X157Y67D02*
X172Y67D01*
X209Y67D02*
X224Y67D01*
X257Y67D02*
X272Y67D01*
X309Y67D02*
X324Y67D01*
X357Y67D02*
X372Y67D01*
X409Y67D02*
X424Y67D01*
X457Y67D02*
X472Y67D01*
X509Y67D02*
X524Y67D01*
X557Y67D02*
X572Y67D01*
X609Y67D02*
X624Y67D01*
X657Y67D02*
X672Y67D01*
X709Y67D02*
X724Y67D01*
X757Y67D02*
X772Y67D01*
X809Y67D02*
X824Y67D01*
X857Y67D02*
X872Y67D01*
X909Y67D02*
X924Y67D01*
X957Y67D02*
X972Y67D01*
X1009Y67D02*
X1024Y67D01*
X1057Y67D02*
X1072Y67D01*
X1109Y67D02*
X1124Y67D01*
X1157Y67D02*
X1172Y67D01*
X1208Y67D02*
X1224Y67D01*
X1257Y67D02*
X1272Y67D01*
X1308Y67D02*
X1324Y67D01*
X157Y66D02*
X172Y66D01*
X209Y66D02*
X224Y66D01*
X257Y66D02*
X272Y66D01*
X309Y66D02*
X324Y66D01*
X357Y66D02*
X372Y66D01*
X409Y66D02*
X424Y66D01*
X457Y66D02*
X472Y66D01*
X509Y66D02*
X524Y66D01*
X557Y66D02*
X572Y66D01*
X609Y66D02*
X624Y66D01*
X657Y66D02*
X672Y66D01*
X709Y66D02*
X724Y66D01*
X757Y66D02*
X772Y66D01*
X809Y66D02*
X824Y66D01*
X857Y66D02*
X872Y66D01*
X909Y66D02*
X924Y66D01*
X957Y66D02*
X972Y66D01*
X1009Y66D02*
X1024Y66D01*
X1057Y66D02*
X1072Y66D01*
X1109Y66D02*
X1124Y66D01*
X1157Y66D02*
X1172Y66D01*
X1209Y66D02*
X1224Y66D01*
X1257Y66D02*
X1272Y66D01*
X1309Y66D02*
X1324Y66D01*
X157Y65D02*
X172Y65D01*
X209Y65D02*
X224Y65D01*
X257Y65D02*
X272Y65D01*
X309Y65D02*
X324Y65D01*
X357Y65D02*
X372Y65D01*
X409Y65D02*
X424Y65D01*
X457Y65D02*
X472Y65D01*
X509Y65D02*
X524Y65D01*
X557Y65D02*
X572Y65D01*
X609Y65D02*
X624Y65D01*
X657Y65D02*
X672Y65D01*
X709Y65D02*
X724Y65D01*
X757Y65D02*
X772Y65D01*
X809Y65D02*
X824Y65D01*
X857Y65D02*
X872Y65D01*
X909Y65D02*
X924Y65D01*
X957Y65D02*
X972Y65D01*
X1009Y65D02*
X1024Y65D01*
X1057Y65D02*
X1072Y65D01*
X1109Y65D02*
X1124Y65D01*
X1157Y65D02*
X1172Y65D01*
X1209Y65D02*
X1224Y65D01*
X1257Y65D02*
X1272Y65D01*
X1309Y65D02*
X1324Y65D01*
X157Y64D02*
X172Y64D01*
X209Y64D02*
X224Y64D01*
X257Y64D02*
X272Y64D01*
X309Y64D02*
X324Y64D01*
X357Y64D02*
X372Y64D01*
X409Y64D02*
X424Y64D01*
X457Y64D02*
X472Y64D01*
X509Y64D02*
X524Y64D01*
X557Y64D02*
X572Y64D01*
X609Y64D02*
X624Y64D01*
X657Y64D02*
X672Y64D01*
X709Y64D02*
X724Y64D01*
X757Y64D02*
X772Y64D01*
X809Y64D02*
X824Y64D01*
X857Y64D02*
X872Y64D01*
X909Y64D02*
X924Y64D01*
X957Y64D02*
X972Y64D01*
X1009Y64D02*
X1024Y64D01*
X1057Y64D02*
X1072Y64D01*
X1109Y64D02*
X1124Y64D01*
X1157Y64D02*
X1172Y64D01*
X1209Y64D02*
X1224Y64D01*
X1257Y64D02*
X1272Y64D01*
X1309Y64D02*
X1324Y64D01*
X157Y63D02*
X172Y63D01*
X209Y63D02*
X224Y63D01*
X257Y63D02*
X272Y63D01*
X309Y63D02*
X324Y63D01*
X357Y63D02*
X372Y63D01*
X409Y63D02*
X424Y63D01*
X457Y63D02*
X472Y63D01*
X509Y63D02*
X524Y63D01*
X557Y63D02*
X572Y63D01*
X609Y63D02*
X624Y63D01*
X657Y63D02*
X672Y63D01*
X709Y63D02*
X724Y63D01*
X757Y63D02*
X772Y63D01*
X809Y63D02*
X824Y63D01*
X857Y63D02*
X872Y63D01*
X909Y63D02*
X924Y63D01*
X957Y63D02*
X972Y63D01*
X1009Y63D02*
X1024Y63D01*
X1057Y63D02*
X1072Y63D01*
X1109Y63D02*
X1124Y63D01*
X1157Y63D02*
X1172Y63D01*
X1209Y63D02*
X1224Y63D01*
X1257Y63D02*
X1272Y63D01*
X1309Y63D02*
X1324Y63D01*
X157Y62D02*
X172Y62D01*
X209Y62D02*
X224Y62D01*
X257Y62D02*
X272Y62D01*
X309Y62D02*
X324Y62D01*
X357Y62D02*
X372Y62D01*
X409Y62D02*
X424Y62D01*
X457Y62D02*
X472Y62D01*
X509Y62D02*
X524Y62D01*
X557Y62D02*
X572Y62D01*
X609Y62D02*
X624Y62D01*
X657Y62D02*
X672Y62D01*
X709Y62D02*
X724Y62D01*
X757Y62D02*
X772Y62D01*
X809Y62D02*
X824Y62D01*
X857Y62D02*
X872Y62D01*
X909Y62D02*
X924Y62D01*
X957Y62D02*
X972Y62D01*
X1009Y62D02*
X1024Y62D01*
X1057Y62D02*
X1072Y62D01*
X1109Y62D02*
X1124Y62D01*
X1157Y62D02*
X1172Y62D01*
X1209Y62D02*
X1224Y62D01*
X1257Y62D02*
X1272Y62D01*
X1309Y62D02*
X1324Y62D01*
X157Y61D02*
X172Y61D01*
X209Y61D02*
X224Y61D01*
X257Y61D02*
X272Y61D01*
X309Y61D02*
X324Y61D01*
X357Y61D02*
X372Y61D01*
X409Y61D02*
X424Y61D01*
X457Y61D02*
X472Y61D01*
X509Y61D02*
X524Y61D01*
X557Y61D02*
X572Y61D01*
X609Y61D02*
X624Y61D01*
X657Y61D02*
X672Y61D01*
X709Y61D02*
X724Y61D01*
X757Y61D02*
X772Y61D01*
X809Y61D02*
X824Y61D01*
X857Y61D02*
X872Y61D01*
X909Y61D02*
X924Y61D01*
X957Y61D02*
X972Y61D01*
X1009Y61D02*
X1024Y61D01*
X1057Y61D02*
X1072Y61D01*
X1109Y61D02*
X1124Y61D01*
X1157Y61D02*
X1172Y61D01*
X1209Y61D02*
X1224Y61D01*
X1257Y61D02*
X1272Y61D01*
X1309Y61D02*
X1324Y61D01*
X157Y60D02*
X172Y60D01*
X209Y60D02*
X224Y60D01*
X257Y60D02*
X272Y60D01*
X309Y60D02*
X324Y60D01*
X357Y60D02*
X372Y60D01*
X409Y60D02*
X424Y60D01*
X457Y60D02*
X472Y60D01*
X509Y60D02*
X524Y60D01*
X557Y60D02*
X572Y60D01*
X609Y60D02*
X624Y60D01*
X657Y60D02*
X672Y60D01*
X709Y60D02*
X724Y60D01*
X757Y60D02*
X772Y60D01*
X809Y60D02*
X824Y60D01*
X857Y60D02*
X872Y60D01*
X909Y60D02*
X924Y60D01*
X957Y60D02*
X972Y60D01*
X1009Y60D02*
X1024Y60D01*
X1057Y60D02*
X1072Y60D01*
X1109Y60D02*
X1124Y60D01*
X1157Y60D02*
X1172Y60D01*
X1209Y60D02*
X1224Y60D01*
X1257Y60D02*
X1272Y60D01*
X1309Y60D02*
X1324Y60D01*
X157Y59D02*
X172Y59D01*
X209Y59D02*
X224Y59D01*
X257Y59D02*
X272Y59D01*
X309Y59D02*
X324Y59D01*
X357Y59D02*
X372Y59D01*
X409Y59D02*
X424Y59D01*
X457Y59D02*
X472Y59D01*
X509Y59D02*
X524Y59D01*
X557Y59D02*
X572Y59D01*
X609Y59D02*
X624Y59D01*
X657Y59D02*
X672Y59D01*
X709Y59D02*
X724Y59D01*
X757Y59D02*
X772Y59D01*
X809Y59D02*
X824Y59D01*
X857Y59D02*
X872Y59D01*
X909Y59D02*
X924Y59D01*
X957Y59D02*
X972Y59D01*
X1009Y59D02*
X1024Y59D01*
X1057Y59D02*
X1072Y59D01*
X1109Y59D02*
X1124Y59D01*
X1157Y59D02*
X1172Y59D01*
X1209Y59D02*
X1224Y59D01*
X1257Y59D02*
X1272Y59D01*
X1309Y59D02*
X1324Y59D01*
X158Y58D02*
X173Y58D01*
X209Y58D02*
X224Y58D01*
X258Y58D02*
X273Y58D01*
X309Y58D02*
X324Y58D01*
X358Y58D02*
X373Y58D01*
X408Y58D02*
X424Y58D01*
X458Y58D02*
X473Y58D01*
X508Y58D02*
X524Y58D01*
X557Y58D02*
X573Y58D01*
X608Y58D02*
X624Y58D01*
X657Y58D02*
X673Y58D01*
X708Y58D02*
X724Y58D01*
X757Y58D02*
X773Y58D01*
X808Y58D02*
X824Y58D01*
X857Y58D02*
X872Y58D01*
X908Y58D02*
X923Y58D01*
X957Y58D02*
X972Y58D01*
X1008Y58D02*
X1023Y58D01*
X1057Y58D02*
X1072Y58D01*
X1108Y58D02*
X1123Y58D01*
X1157Y58D02*
X1172Y58D01*
X1208Y58D02*
X1223Y58D01*
X1257Y58D02*
X1272Y58D01*
X1308Y58D02*
X1323Y58D01*
X158Y57D02*
X173Y57D01*
X208Y57D02*
X223Y57D01*
X258Y57D02*
X273Y57D01*
X308Y57D02*
X323Y57D01*
X358Y57D02*
X373Y57D01*
X408Y57D02*
X423Y57D01*
X458Y57D02*
X473Y57D01*
X508Y57D02*
X523Y57D01*
X558Y57D02*
X573Y57D01*
X608Y57D02*
X623Y57D01*
X658Y57D02*
X673Y57D01*
X708Y57D02*
X723Y57D01*
X758Y57D02*
X773Y57D01*
X808Y57D02*
X823Y57D01*
X858Y57D02*
X873Y57D01*
X908Y57D02*
X923Y57D01*
X958Y57D02*
X973Y57D01*
X1008Y57D02*
X1023Y57D01*
X1058Y57D02*
X1073Y57D01*
X1108Y57D02*
X1123Y57D01*
X1157Y57D02*
X1173Y57D01*
X1208Y57D02*
X1223Y57D01*
X1257Y57D02*
X1273Y57D01*
X1308Y57D02*
X1323Y57D01*
X158Y56D02*
X173Y56D01*
X208Y56D02*
X223Y56D01*
X258Y56D02*
X273Y56D01*
X308Y56D02*
X323Y56D01*
X358Y56D02*
X373Y56D01*
X408Y56D02*
X423Y56D01*
X458Y56D02*
X473Y56D01*
X508Y56D02*
X523Y56D01*
X558Y56D02*
X573Y56D01*
X608Y56D02*
X623Y56D01*
X658Y56D02*
X673Y56D01*
X708Y56D02*
X723Y56D01*
X758Y56D02*
X773Y56D01*
X808Y56D02*
X823Y56D01*
X858Y56D02*
X873Y56D01*
X908Y56D02*
X923Y56D01*
X958Y56D02*
X973Y56D01*
X1008Y56D02*
X1023Y56D01*
X1058Y56D02*
X1073Y56D01*
X1108Y56D02*
X1123Y56D01*
X1158Y56D02*
X1173Y56D01*
X1208Y56D02*
X1223Y56D01*
X1258Y56D02*
X1273Y56D01*
X1308Y56D02*
X1323Y56D01*
X158Y55D02*
X173Y55D01*
X208Y55D02*
X223Y55D01*
X258Y55D02*
X273Y55D01*
X308Y55D02*
X323Y55D01*
X358Y55D02*
X373Y55D01*
X408Y55D02*
X423Y55D01*
X458Y55D02*
X473Y55D01*
X508Y55D02*
X523Y55D01*
X558Y55D02*
X573Y55D01*
X608Y55D02*
X623Y55D01*
X658Y55D02*
X673Y55D01*
X708Y55D02*
X723Y55D01*
X758Y55D02*
X773Y55D01*
X807Y55D02*
X823Y55D01*
X858Y55D02*
X873Y55D01*
X907Y55D02*
X923Y55D01*
X958Y55D02*
X973Y55D01*
X1007Y55D02*
X1023Y55D01*
X1058Y55D02*
X1073Y55D01*
X1107Y55D02*
X1123Y55D01*
X1158Y55D02*
X1173Y55D01*
X1207Y55D02*
X1223Y55D01*
X1258Y55D02*
X1273Y55D01*
X1307Y55D02*
X1323Y55D01*
X158Y54D02*
X174Y54D01*
X207Y54D02*
X223Y54D01*
X258Y54D02*
X274Y54D01*
X307Y54D02*
X323Y54D01*
X358Y54D02*
X374Y54D01*
X407Y54D02*
X423Y54D01*
X458Y54D02*
X474Y54D01*
X507Y54D02*
X523Y54D01*
X558Y54D02*
X574Y54D01*
X607Y54D02*
X623Y54D01*
X658Y54D02*
X674Y54D01*
X707Y54D02*
X723Y54D01*
X758Y54D02*
X774Y54D01*
X807Y54D02*
X823Y54D01*
X858Y54D02*
X874Y54D01*
X907Y54D02*
X923Y54D01*
X958Y54D02*
X974Y54D01*
X1007Y54D02*
X1023Y54D01*
X1058Y54D02*
X1074Y54D01*
X1107Y54D02*
X1123Y54D01*
X1158Y54D02*
X1174Y54D01*
X1207Y54D02*
X1222Y54D01*
X1258Y54D02*
X1274Y54D01*
X1307Y54D02*
X1322Y54D01*
X159Y53D02*
X174Y53D01*
X207Y53D02*
X222Y53D01*
X259Y53D02*
X274Y53D01*
X307Y53D02*
X322Y53D01*
X359Y53D02*
X374Y53D01*
X407Y53D02*
X422Y53D01*
X459Y53D02*
X474Y53D01*
X507Y53D02*
X522Y53D01*
X559Y53D02*
X574Y53D01*
X607Y53D02*
X622Y53D01*
X659Y53D02*
X674Y53D01*
X707Y53D02*
X722Y53D01*
X759Y53D02*
X774Y53D01*
X807Y53D02*
X822Y53D01*
X859Y53D02*
X874Y53D01*
X906Y53D02*
X922Y53D01*
X959Y53D02*
X974Y53D01*
X1006Y53D02*
X1022Y53D01*
X1059Y53D02*
X1074Y53D01*
X1106Y53D02*
X1122Y53D01*
X1159Y53D02*
X1174Y53D01*
X1206Y53D02*
X1222Y53D01*
X1258Y53D02*
X1274Y53D01*
X1306Y53D02*
X1322Y53D01*
X159Y52D02*
X175Y52D01*
X206Y52D02*
X222Y52D01*
X259Y52D02*
X275Y52D01*
X306Y52D02*
X322Y52D01*
X359Y52D02*
X375Y52D01*
X406Y52D02*
X422Y52D01*
X459Y52D02*
X475Y52D01*
X506Y52D02*
X522Y52D01*
X559Y52D02*
X575Y52D01*
X606Y52D02*
X622Y52D01*
X659Y52D02*
X675Y52D01*
X706Y52D02*
X722Y52D01*
X759Y52D02*
X775Y52D01*
X806Y52D02*
X822Y52D01*
X859Y52D02*
X875Y52D01*
X906Y52D02*
X922Y52D01*
X959Y52D02*
X975Y52D01*
X1006Y52D02*
X1022Y52D01*
X1059Y52D02*
X1075Y52D01*
X1106Y52D02*
X1122Y52D01*
X1159Y52D02*
X1175Y52D01*
X1206Y52D02*
X1222Y52D01*
X1259Y52D02*
X1275Y52D01*
X1306Y52D02*
X1322Y52D01*
X160Y51D02*
X176Y51D01*
X205Y51D02*
X222Y51D01*
X260Y51D02*
X276Y51D01*
X305Y51D02*
X322Y51D01*
X359Y51D02*
X376Y51D01*
X405Y51D02*
X422Y51D01*
X459Y51D02*
X476Y51D01*
X505Y51D02*
X522Y51D01*
X559Y51D02*
X576Y51D01*
X605Y51D02*
X622Y51D01*
X659Y51D02*
X676Y51D01*
X705Y51D02*
X722Y51D01*
X759Y51D02*
X776Y51D01*
X805Y51D02*
X822Y51D01*
X859Y51D02*
X876Y51D01*
X905Y51D02*
X921Y51D01*
X959Y51D02*
X976Y51D01*
X1005Y51D02*
X1021Y51D01*
X1059Y51D02*
X1076Y51D01*
X1105Y51D02*
X1121Y51D01*
X1159Y51D02*
X1175Y51D01*
X1205Y51D02*
X1221Y51D01*
X1259Y51D02*
X1275Y51D01*
X1305Y51D02*
X1321Y51D01*
X160Y50D02*
X177Y50D01*
X204Y50D02*
X221Y50D01*
X260Y50D02*
X277Y50D01*
X304Y50D02*
X321Y50D01*
X360Y50D02*
X376Y50D01*
X404Y50D02*
X421Y50D01*
X460Y50D02*
X476Y50D01*
X504Y50D02*
X521Y50D01*
X560Y50D02*
X576Y50D01*
X604Y50D02*
X621Y50D01*
X660Y50D02*
X676Y50D01*
X704Y50D02*
X721Y50D01*
X760Y50D02*
X776Y50D01*
X804Y50D02*
X821Y50D01*
X860Y50D02*
X876Y50D01*
X904Y50D02*
X921Y50D01*
X960Y50D02*
X976Y50D01*
X1004Y50D02*
X1021Y50D01*
X1060Y50D02*
X1076Y50D01*
X1104Y50D02*
X1121Y50D01*
X1160Y50D02*
X1176Y50D01*
X1204Y50D02*
X1221Y50D01*
X1260Y50D02*
X1276Y50D01*
X1304Y50D02*
X1321Y50D01*
X160Y49D02*
X178Y49D01*
X203Y49D02*
X221Y49D01*
X260Y49D02*
X278Y49D01*
X303Y49D02*
X321Y49D01*
X360Y49D02*
X378Y49D01*
X403Y49D02*
X421Y49D01*
X460Y49D02*
X478Y49D01*
X503Y49D02*
X521Y49D01*
X560Y49D02*
X578Y49D01*
X603Y49D02*
X621Y49D01*
X660Y49D02*
X678Y49D01*
X703Y49D02*
X721Y49D01*
X760Y49D02*
X777Y49D01*
X803Y49D02*
X821Y49D01*
X860Y49D02*
X877Y49D01*
X903Y49D02*
X921Y49D01*
X960Y49D02*
X977Y49D01*
X1003Y49D02*
X1021Y49D01*
X1060Y49D02*
X1077Y49D01*
X1103Y49D02*
X1121Y49D01*
X1160Y49D02*
X1177Y49D01*
X1203Y49D02*
X1220Y49D01*
X1260Y49D02*
X1277Y49D01*
X1303Y49D02*
X1320Y49D01*
X161Y48D02*
X179Y48D01*
X202Y48D02*
X220Y48D01*
X261Y48D02*
X279Y48D01*
X302Y48D02*
X320Y48D01*
X361Y48D02*
X379Y48D01*
X402Y48D02*
X420Y48D01*
X461Y48D02*
X479Y48D01*
X502Y48D02*
X520Y48D01*
X561Y48D02*
X579Y48D01*
X602Y48D02*
X620Y48D01*
X661Y48D02*
X679Y48D01*
X702Y48D02*
X720Y48D01*
X761Y48D02*
X779Y48D01*
X802Y48D02*
X820Y48D01*
X861Y48D02*
X879Y48D01*
X902Y48D02*
X920Y48D01*
X961Y48D02*
X979Y48D01*
X1002Y48D02*
X1020Y48D01*
X1061Y48D02*
X1079Y48D01*
X1102Y48D02*
X1120Y48D01*
X1161Y48D02*
X1179Y48D01*
X1202Y48D02*
X1220Y48D01*
X1261Y48D02*
X1279Y48D01*
X1302Y48D02*
X1320Y48D01*
X161Y47D02*
X181Y47D01*
X200Y47D02*
X220Y47D01*
X261Y47D02*
X281Y47D01*
X300Y47D02*
X320Y47D01*
X361Y47D02*
X381Y47D01*
X400Y47D02*
X420Y47D01*
X461Y47D02*
X481Y47D01*
X500Y47D02*
X520Y47D01*
X561Y47D02*
X581Y47D01*
X600Y47D02*
X620Y47D01*
X661Y47D02*
X681Y47D01*
X700Y47D02*
X720Y47D01*
X761Y47D02*
X781Y47D01*
X800Y47D02*
X820Y47D01*
X861Y47D02*
X881Y47D01*
X900Y47D02*
X920Y47D01*
X961Y47D02*
X981Y47D01*
X1000Y47D02*
X1019Y47D01*
X1061Y47D02*
X1081Y47D01*
X1100Y47D02*
X1119Y47D01*
X1161Y47D02*
X1181Y47D01*
X1200Y47D02*
X1219Y47D01*
X1261Y47D02*
X1281Y47D01*
X1300Y47D02*
X1319Y47D01*
X162Y46D02*
X183Y46D01*
X197Y46D02*
X219Y46D01*
X262Y46D02*
X283Y46D01*
X297Y46D02*
X319Y46D01*
X362Y46D02*
X383Y46D01*
X397Y46D02*
X419Y46D01*
X462Y46D02*
X483Y46D01*
X497Y46D02*
X519Y46D01*
X562Y46D02*
X583Y46D01*
X597Y46D02*
X619Y46D01*
X662Y46D02*
X683Y46D01*
X697Y46D02*
X719Y46D01*
X762Y46D02*
X783Y46D01*
X797Y46D02*
X819Y46D01*
X862Y46D02*
X883Y46D01*
X897Y46D02*
X919Y46D01*
X962Y46D02*
X983Y46D01*
X997Y46D02*
X1019Y46D01*
X1062Y46D02*
X1083Y46D01*
X1097Y46D02*
X1119Y46D01*
X1162Y46D02*
X1183Y46D01*
X1197Y46D02*
X1219Y46D01*
X1262Y46D02*
X1283Y46D01*
X1297Y46D02*
X1319Y46D01*
X163Y45D02*
X218Y45D01*
X263Y45D02*
X318Y45D01*
X363Y45D02*
X418Y45D01*
X463Y45D02*
X518Y45D01*
X563Y45D02*
X618Y45D01*
X662Y45D02*
X718Y45D01*
X762Y45D02*
X818Y45D01*
X862Y45D02*
X918Y45D01*
X962Y45D02*
X1018Y45D01*
X1062Y45D02*
X1118Y45D01*
X1162Y45D02*
X1218Y45D01*
X1262Y45D02*
X1318Y45D01*
X163Y44D02*
X218Y44D01*
X263Y44D02*
X318Y44D01*
X363Y44D02*
X418Y44D01*
X463Y44D02*
X518Y44D01*
X563Y44D02*
X618Y44D01*
X663Y44D02*
X718Y44D01*
X763Y44D02*
X818Y44D01*
X863Y44D02*
X918Y44D01*
X963Y44D02*
X1018Y44D01*
X1063Y44D02*
X1118Y44D01*
X1163Y44D02*
X1218Y44D01*
X1263Y44D02*
X1317Y44D01*
X164Y43D02*
X217Y43D01*
X264Y43D02*
X317Y43D01*
X364Y43D02*
X417Y43D01*
X464Y43D02*
X517Y43D01*
X564Y43D02*
X617Y43D01*
X664Y43D02*
X717Y43D01*
X764Y43D02*
X817Y43D01*
X864Y43D02*
X917Y43D01*
X964Y43D02*
X1017Y43D01*
X1064Y43D02*
X1117Y43D01*
X1164Y43D02*
X1217Y43D01*
X1264Y43D02*
X1317Y43D01*
X165Y42D02*
X216Y42D01*
X265Y42D02*
X316Y42D01*
X365Y42D02*
X416Y42D01*
X465Y42D02*
X516Y42D01*
X565Y42D02*
X616Y42D01*
X665Y42D02*
X716Y42D01*
X765Y42D02*
X816Y42D01*
X865Y42D02*
X916Y42D01*
X965Y42D02*
X1016Y42D01*
X1065Y42D02*
X1116Y42D01*
X1165Y42D02*
X1216Y42D01*
X1265Y42D02*
X1316Y42D01*
X166Y41D02*
X215Y41D01*
X266Y41D02*
X315Y41D01*
X366Y41D02*
X415Y41D01*
X466Y41D02*
X515Y41D01*
X566Y41D02*
X615Y41D01*
X666Y41D02*
X715Y41D01*
X765Y41D02*
X815Y41D01*
X865Y41D02*
X915Y41D01*
X965Y41D02*
X1015Y41D01*
X1065Y41D02*
X1115Y41D01*
X1165Y41D02*
X1215Y41D01*
X1265Y41D02*
X1315Y41D01*
X167Y40D02*
X214Y40D01*
X267Y40D02*
X314Y40D01*
X367Y40D02*
X414Y40D01*
X466Y40D02*
X514Y40D01*
X566Y40D02*
X614Y40D01*
X666Y40D02*
X714Y40D01*
X766Y40D02*
X814Y40D01*
X866Y40D02*
X914Y40D01*
X966Y40D02*
X1014Y40D01*
X1066Y40D02*
X1114Y40D01*
X1166Y40D02*
X1214Y40D01*
X1266Y40D02*
X1314Y40D01*
X168Y39D02*
X213Y39D01*
X267Y39D02*
X313Y39D01*
X367Y39D02*
X413Y39D01*
X467Y39D02*
X513Y39D01*
X567Y39D02*
X613Y39D01*
X667Y39D02*
X713Y39D01*
X767Y39D02*
X813Y39D01*
X867Y39D02*
X913Y39D01*
X967Y39D02*
X1013Y39D01*
X1067Y39D02*
X1113Y39D01*
X1167Y39D02*
X1213Y39D01*
X1267Y39D02*
X1313Y39D01*
X169Y38D02*
X212Y38D01*
X269Y38D02*
X312Y38D01*
X369Y38D02*
X412Y38D01*
X469Y38D02*
X512Y38D01*
X569Y38D02*
X612Y38D01*
X668Y38D02*
X712Y38D01*
X768Y38D02*
X812Y38D01*
X868Y38D02*
X912Y38D01*
X968Y38D02*
X1012Y38D01*
X1068Y38D02*
X1112Y38D01*
X1168Y38D02*
X1212Y38D01*
X1268Y38D02*
X1312Y38D01*
X170Y37D02*
X211Y37D01*
X270Y37D02*
X311Y37D01*
X370Y37D02*
X411Y37D01*
X470Y37D02*
X511Y37D01*
X570Y37D02*
X611Y37D01*
X670Y37D02*
X711Y37D01*
X770Y37D02*
X811Y37D01*
X870Y37D02*
X911Y37D01*
X970Y37D02*
X1011Y37D01*
X1070Y37D02*
X1111Y37D01*
X1169Y37D02*
X1211Y37D01*
X1269Y37D02*
X1311Y37D01*
X171Y36D02*
X210Y36D01*
X271Y36D02*
X310Y36D01*
X371Y36D02*
X410Y36D01*
X471Y36D02*
X510Y36D01*
X571Y36D02*
X610Y36D01*
X671Y36D02*
X710Y36D01*
X771Y36D02*
X810Y36D01*
X871Y36D02*
X910Y36D01*
X971Y36D02*
X1010Y36D01*
X1071Y36D02*
X1110Y36D01*
X1171Y36D02*
X1210Y36D01*
X1271Y36D02*
X1310Y36D01*
X172Y35D02*
X208Y35D01*
X272Y35D02*
X308Y35D01*
X372Y35D02*
X408Y35D01*
X472Y35D02*
X508Y35D01*
X572Y35D02*
X608Y35D01*
X672Y35D02*
X708Y35D01*
X772Y35D02*
X808Y35D01*
X872Y35D02*
X908Y35D01*
X972Y35D02*
X1008Y35D01*
X1072Y35D02*
X1108Y35D01*
X1172Y35D02*
X1208Y35D01*
X1272Y35D02*
X1308Y35D01*
X174Y34D02*
X207Y34D01*
X274Y34D02*
X307Y34D01*
X374Y34D02*
X407Y34D01*
X474Y34D02*
X507Y34D01*
X574Y34D02*
X607Y34D01*
X674Y34D02*
X707Y34D01*
X774Y34D02*
X807Y34D01*
X874Y34D02*
X907Y34D01*
X974Y34D02*
X1007Y34D01*
X1074Y34D02*
X1107Y34D01*
X1174Y34D02*
X1207Y34D01*
X1274Y34D02*
X1307Y34D01*
X176Y33D02*
X205Y33D01*
X276Y33D02*
X305Y33D01*
X376Y33D02*
X405Y33D01*
X476Y33D02*
X505Y33D01*
X576Y33D02*
X605Y33D01*
X676Y33D02*
X705Y33D01*
X776Y33D02*
X805Y33D01*
X876Y33D02*
X905Y33D01*
X976Y33D02*
X1005Y33D01*
X1075Y33D02*
X1105Y33D01*
X1175Y33D02*
X1205Y33D01*
X1275Y33D02*
X1305Y33D01*
X178Y32D02*
X203Y32D01*
X278Y32D02*
X303Y32D01*
X378Y32D02*
X403Y32D01*
X478Y32D02*
X503Y32D01*
X578Y32D02*
X603Y32D01*
X678Y32D02*
X703Y32D01*
X778Y32D02*
X803Y32D01*
X878Y32D02*
X903Y32D01*
X978Y32D02*
X1003Y32D01*
X1078Y32D02*
X1103Y32D01*
X1178Y32D02*
X1203Y32D01*
X1277Y32D02*
X1303Y32D01*
X180Y31D02*
X201Y31D01*
X280Y31D02*
X301Y31D01*
X380Y31D02*
X401Y31D01*
X480Y31D02*
X501Y31D01*
X580Y31D02*
X600Y31D01*
X680Y31D02*
X700Y31D01*
X780Y31D02*
X800Y31D01*
X880Y31D02*
X900Y31D01*
X980Y31D02*
X1000Y31D01*
X1080Y31D02*
X1100Y31D01*
X1180Y31D02*
X1200Y31D01*
X1280Y31D02*
X1300Y31D01*
X184Y30D02*
X197Y30D01*
X284Y30D02*
X297Y30D01*
X384Y30D02*
X397Y30D01*
X484Y30D02*
X497Y30D01*
X584Y30D02*
X597Y30D01*
X684Y30D02*
X697Y30D01*
X784Y30D02*
X797Y30D01*
X883Y30D02*
X897Y30D01*
X983Y30D02*
X997Y30D01*
X1083Y30D02*
X1097Y30D01*
X1183Y30D02*
X1197Y30D01*
X1283Y30D02*
X1297Y30D01*
D02*
G04 End of Copper0*
M02*