; NON-PLATED HOLES START AT T1
; THROUGH (PLATED) HOLES START AT T100
M48
INCH
T100C0.036000
T101C0.040000
T102C0.038000
%
T100
X007912Y007616
X008912Y007616
X010912Y000616
X011912Y000616
X009912Y000616
X001912Y000616
X010912Y007616
X002912Y000616
X011912Y007616
X003912Y000616
X009912Y007616
X001912Y007616
X002912Y007616
X012912Y000616
X003912Y007616
X012912Y007616
X004912Y000616
X005912Y000616
X004912Y007616
X005912Y007616
X006912Y000616
X007912Y000616
X008912Y000616
X006912Y007616
T101
X014097Y005616
X009097Y004616
X013097Y005616
X009097Y003616
T102
X003612Y004922
X002612Y004922
X005912Y004904
X004912Y004904
T00
M30
