G04 MADE WITH FRITZING*
G04 WWW.FRITZING.ORG*
G04 DOUBLE SIDED*
G04 HOLES PLATED*
G04 CONTOUR ON CENTER OF CONTOUR VECTOR*
%ASAXBY*%
%FSLAX23Y23*%
%MOIN*%
%OFA0B0*%
%SFA1.0B1.0*%
%ADD10C,0.074000*%
%ADD11C,0.078000*%
%ADD12R,0.078000X0.078000*%
%ADD13R,0.055118X0.059055*%
%ADD14C,0.024000*%
%ADD15R,0.001000X0.001000*%
%LNCOPPER1*%
G90*
G70*
G54D10*
X910Y362D03*
X910Y462D03*
X1310Y562D03*
X1410Y562D03*
X910Y362D03*
X910Y462D03*
X1310Y562D03*
X1410Y562D03*
G54D11*
X261Y492D03*
X361Y492D03*
X591Y490D03*
X491Y490D03*
G54D12*
X261Y492D03*
X591Y490D03*
G54D13*
X491Y333D03*
X572Y333D03*
X277Y331D03*
X358Y331D03*
G54D14*
X392Y162D02*
X491Y162D01*
D02*
X892Y162D02*
X907Y331D01*
D02*
X491Y162D02*
X892Y162D01*
D02*
X362Y307D02*
X392Y162D01*
D02*
X392Y662D02*
X892Y662D01*
D02*
X892Y662D02*
X907Y493D01*
D02*
X367Y522D02*
X392Y662D01*
D02*
X264Y462D02*
X274Y355D01*
D02*
X588Y461D02*
X575Y357D01*
D02*
X791Y262D02*
X791Y361D01*
D02*
X791Y361D02*
X879Y361D01*
D02*
X491Y262D02*
X791Y262D01*
D02*
X491Y309D02*
X491Y262D01*
D02*
X791Y561D02*
X791Y462D01*
D02*
X491Y561D02*
X791Y561D01*
D02*
X491Y521D02*
X491Y561D01*
D02*
X791Y462D02*
X879Y462D01*
G54D15*
D02*
G04 End of Copper1*
M02*