G04 MADE WITH FRITZING*
G04 WWW.FRITZING.ORG*
G04 DOUBLE SIDED*
G04 HOLES PLATED*
G04 CONTOUR ON CENTER OF CONTOUR VECTOR*
%ASAXBY*%
%FSLAX23Y23*%
%MOIN*%
%OFA0B0*%
%SFA1.0B1.0*%
%ADD10C,0.010000*%
%ADD11C,0.008000*%
%ADD12R,0.001000X0.001000*%
%LNSILK0*%
G90*
G70*
G54D10*
X994Y302D02*
X994Y284D01*
D02*
X994Y284D02*
X959Y284D01*
D02*
X995Y528D02*
X995Y546D01*
D02*
X995Y546D02*
X960Y546D01*
G54D11*
D02*
X1517Y672D02*
X1517Y534D01*
D02*
X1517Y534D02*
X1486Y534D01*
D02*
X1486Y534D02*
X1486Y633D01*
D02*
X1486Y633D02*
X1438Y633D01*
D02*
X1281Y633D02*
X1234Y633D01*
D02*
X1234Y633D02*
X1234Y534D01*
D02*
X1234Y534D02*
X1202Y534D01*
D02*
X1202Y534D02*
X1202Y672D01*
D02*
X960Y337D02*
X960Y387D01*
D02*
X960Y387D02*
X935Y412D01*
D02*
X885Y412D02*
X860Y387D01*
D02*
X935Y412D02*
X960Y437D01*
D02*
X960Y437D02*
X960Y487D01*
D02*
X960Y487D02*
X935Y512D01*
D02*
X885Y512D02*
X860Y487D01*
D02*
X860Y487D02*
X860Y437D01*
D02*
X860Y437D02*
X885Y412D01*
D02*
X935Y312D02*
X885Y312D01*
D02*
X960Y337D02*
X935Y312D01*
D02*
X885Y312D02*
X860Y337D01*
D02*
X860Y387D02*
X860Y337D01*
D02*
X935Y512D02*
X885Y512D01*
D02*
X1494Y61D02*
X1494Y124D01*
D02*
X1494Y124D02*
X1446Y124D01*
D02*
X1226Y124D02*
X1273Y124D01*
D02*
X1446Y124D02*
X1446Y69D01*
G54D12*
X0Y817D02*
X1530Y817D01*
X0Y816D02*
X1530Y816D01*
X0Y815D02*
X1530Y815D01*
X0Y814D02*
X1530Y814D01*
X0Y813D02*
X1530Y813D01*
X0Y812D02*
X1530Y812D01*
X0Y811D02*
X1530Y811D01*
X0Y810D02*
X1530Y810D01*
X0Y809D02*
X7Y809D01*
X859Y809D02*
X866Y809D01*
X915Y809D02*
X925Y809D01*
X993Y809D02*
X1003Y809D01*
X1523Y809D02*
X1530Y809D01*
X0Y808D02*
X7Y808D01*
X859Y808D02*
X866Y808D01*
X914Y808D02*
X924Y808D01*
X994Y808D02*
X1004Y808D01*
X1523Y808D02*
X1530Y808D01*
X0Y807D02*
X7Y807D01*
X859Y807D02*
X866Y807D01*
X913Y807D02*
X923Y807D01*
X995Y807D02*
X1005Y807D01*
X1523Y807D02*
X1530Y807D01*
X0Y806D02*
X7Y806D01*
X859Y806D02*
X866Y806D01*
X912Y806D02*
X921Y806D01*
X996Y806D02*
X1006Y806D01*
X1523Y806D02*
X1530Y806D01*
X0Y805D02*
X7Y805D01*
X859Y805D02*
X866Y805D01*
X911Y805D02*
X920Y805D01*
X998Y805D02*
X1007Y805D01*
X1523Y805D02*
X1530Y805D01*
X0Y804D02*
X7Y804D01*
X859Y804D02*
X866Y804D01*
X910Y804D02*
X919Y804D01*
X999Y804D02*
X1008Y804D01*
X1523Y804D02*
X1530Y804D01*
X0Y803D02*
X7Y803D01*
X859Y803D02*
X866Y803D01*
X909Y803D02*
X918Y803D01*
X1000Y803D02*
X1009Y803D01*
X1523Y803D02*
X1530Y803D01*
X0Y802D02*
X7Y802D01*
X859Y802D02*
X866Y802D01*
X908Y802D02*
X917Y802D01*
X1001Y802D02*
X1009Y802D01*
X1523Y802D02*
X1530Y802D01*
X0Y801D02*
X7Y801D01*
X859Y801D02*
X866Y801D01*
X908Y801D02*
X916Y801D01*
X1002Y801D02*
X1010Y801D01*
X1523Y801D02*
X1530Y801D01*
X0Y800D02*
X7Y800D01*
X859Y800D02*
X866Y800D01*
X907Y800D02*
X915Y800D01*
X1003Y800D02*
X1011Y800D01*
X1523Y800D02*
X1530Y800D01*
X0Y799D02*
X7Y799D01*
X859Y799D02*
X866Y799D01*
X906Y799D02*
X915Y799D01*
X1003Y799D02*
X1012Y799D01*
X1523Y799D02*
X1530Y799D01*
X0Y798D02*
X7Y798D01*
X859Y798D02*
X866Y798D01*
X905Y798D02*
X914Y798D01*
X1005Y798D02*
X1012Y798D01*
X1523Y798D02*
X1530Y798D01*
X0Y797D02*
X7Y797D01*
X859Y797D02*
X866Y797D01*
X907Y797D02*
X913Y797D01*
X1007Y797D02*
X1013Y797D01*
X1523Y797D02*
X1530Y797D01*
X0Y796D02*
X7Y796D01*
X859Y796D02*
X866Y796D01*
X909Y796D02*
X912Y796D01*
X1009Y796D02*
X1014Y796D01*
X1523Y796D02*
X1530Y796D01*
X0Y795D02*
X7Y795D01*
X859Y795D02*
X866Y795D01*
X910Y795D02*
X911Y795D01*
X1010Y795D02*
X1014Y795D01*
X1523Y795D02*
X1530Y795D01*
X0Y794D02*
X7Y794D01*
X859Y794D02*
X866Y794D01*
X1012Y794D02*
X1015Y794D01*
X1523Y794D02*
X1530Y794D01*
X0Y793D02*
X7Y793D01*
X859Y793D02*
X866Y793D01*
X1013Y793D02*
X1016Y793D01*
X1523Y793D02*
X1530Y793D01*
X0Y792D02*
X7Y792D01*
X859Y792D02*
X866Y792D01*
X1014Y792D02*
X1016Y792D01*
X1523Y792D02*
X1530Y792D01*
X0Y791D02*
X7Y791D01*
X859Y791D02*
X865Y791D01*
X1016Y791D02*
X1016Y791D01*
X1523Y791D02*
X1530Y791D01*
X0Y790D02*
X7Y790D01*
X859Y790D02*
X864Y790D01*
X1017Y790D02*
X1017Y790D01*
X1523Y790D02*
X1530Y790D01*
X0Y789D02*
X7Y789D01*
X859Y789D02*
X863Y789D01*
X1523Y789D02*
X1530Y789D01*
X0Y788D02*
X7Y788D01*
X859Y788D02*
X862Y788D01*
X1523Y788D02*
X1530Y788D01*
X0Y787D02*
X7Y787D01*
X859Y787D02*
X861Y787D01*
X1523Y787D02*
X1530Y787D01*
X0Y786D02*
X7Y786D01*
X859Y786D02*
X860Y786D01*
X1523Y786D02*
X1530Y786D01*
X0Y785D02*
X7Y785D01*
X859Y785D02*
X859Y785D01*
X1523Y785D02*
X1530Y785D01*
X0Y784D02*
X7Y784D01*
X859Y784D02*
X859Y784D01*
X1523Y784D02*
X1530Y784D01*
X0Y783D02*
X7Y783D01*
X1523Y783D02*
X1530Y783D01*
X0Y782D02*
X7Y782D01*
X1523Y782D02*
X1530Y782D01*
X0Y781D02*
X7Y781D01*
X1523Y781D02*
X1530Y781D01*
X0Y780D02*
X7Y780D01*
X1523Y780D02*
X1530Y780D01*
X0Y779D02*
X7Y779D01*
X1523Y779D02*
X1530Y779D01*
X0Y778D02*
X7Y778D01*
X1523Y778D02*
X1530Y778D01*
X0Y777D02*
X7Y777D01*
X1523Y777D02*
X1530Y777D01*
X0Y776D02*
X7Y776D01*
X1523Y776D02*
X1530Y776D01*
X0Y775D02*
X7Y775D01*
X1523Y775D02*
X1530Y775D01*
X0Y774D02*
X7Y774D01*
X1523Y774D02*
X1530Y774D01*
X0Y773D02*
X7Y773D01*
X1523Y773D02*
X1530Y773D01*
X0Y772D02*
X7Y772D01*
X1523Y772D02*
X1530Y772D01*
X0Y771D02*
X7Y771D01*
X1523Y771D02*
X1530Y771D01*
X0Y770D02*
X7Y770D01*
X1523Y770D02*
X1530Y770D01*
X0Y769D02*
X7Y769D01*
X1523Y769D02*
X1530Y769D01*
X0Y768D02*
X7Y768D01*
X1523Y768D02*
X1530Y768D01*
X0Y767D02*
X7Y767D01*
X1523Y767D02*
X1530Y767D01*
X0Y766D02*
X7Y766D01*
X1523Y766D02*
X1530Y766D01*
X0Y765D02*
X7Y765D01*
X1523Y765D02*
X1530Y765D01*
X0Y764D02*
X7Y764D01*
X1523Y764D02*
X1530Y764D01*
X0Y763D02*
X7Y763D01*
X1523Y763D02*
X1530Y763D01*
X0Y762D02*
X7Y762D01*
X1523Y762D02*
X1530Y762D01*
X0Y761D02*
X7Y761D01*
X1523Y761D02*
X1530Y761D01*
X0Y760D02*
X7Y760D01*
X1523Y760D02*
X1530Y760D01*
X0Y759D02*
X7Y759D01*
X1523Y759D02*
X1530Y759D01*
X0Y758D02*
X7Y758D01*
X1523Y758D02*
X1530Y758D01*
X0Y757D02*
X7Y757D01*
X1523Y757D02*
X1530Y757D01*
X0Y756D02*
X7Y756D01*
X1523Y756D02*
X1530Y756D01*
X0Y755D02*
X7Y755D01*
X1523Y755D02*
X1530Y755D01*
X0Y754D02*
X7Y754D01*
X1523Y754D02*
X1530Y754D01*
X0Y753D02*
X7Y753D01*
X1523Y753D02*
X1530Y753D01*
X0Y752D02*
X7Y752D01*
X1523Y752D02*
X1530Y752D01*
X0Y751D02*
X7Y751D01*
X1523Y751D02*
X1530Y751D01*
X0Y750D02*
X7Y750D01*
X1523Y750D02*
X1530Y750D01*
X0Y749D02*
X7Y749D01*
X1523Y749D02*
X1530Y749D01*
X0Y748D02*
X7Y748D01*
X1523Y748D02*
X1530Y748D01*
X0Y747D02*
X7Y747D01*
X1523Y747D02*
X1530Y747D01*
X0Y746D02*
X7Y746D01*
X1523Y746D02*
X1530Y746D01*
X0Y745D02*
X7Y745D01*
X1523Y745D02*
X1530Y745D01*
X0Y744D02*
X7Y744D01*
X1523Y744D02*
X1530Y744D01*
X0Y743D02*
X7Y743D01*
X1523Y743D02*
X1530Y743D01*
X0Y742D02*
X7Y742D01*
X1523Y742D02*
X1530Y742D01*
X0Y741D02*
X7Y741D01*
X1523Y741D02*
X1530Y741D01*
X0Y740D02*
X7Y740D01*
X859Y740D02*
X859Y740D01*
X1523Y740D02*
X1530Y740D01*
X0Y739D02*
X7Y739D01*
X859Y739D02*
X860Y739D01*
X1523Y739D02*
X1530Y739D01*
X0Y738D02*
X7Y738D01*
X859Y738D02*
X860Y738D01*
X1523Y738D02*
X1530Y738D01*
X0Y737D02*
X7Y737D01*
X859Y737D02*
X861Y737D01*
X1523Y737D02*
X1530Y737D01*
X0Y736D02*
X7Y736D01*
X859Y736D02*
X862Y736D01*
X1018Y736D02*
X1018Y736D01*
X1523Y736D02*
X1530Y736D01*
X0Y735D02*
X7Y735D01*
X859Y735D02*
X863Y735D01*
X1017Y735D02*
X1017Y735D01*
X1523Y735D02*
X1530Y735D01*
X0Y734D02*
X7Y734D01*
X859Y734D02*
X864Y734D01*
X1016Y734D02*
X1017Y734D01*
X1523Y734D02*
X1530Y734D01*
X0Y733D02*
X7Y733D01*
X859Y733D02*
X865Y733D01*
X1015Y733D02*
X1016Y733D01*
X1523Y733D02*
X1530Y733D01*
X0Y732D02*
X7Y732D01*
X859Y732D02*
X866Y732D01*
X1014Y732D02*
X1016Y732D01*
X1523Y732D02*
X1530Y732D01*
X0Y731D02*
X7Y731D01*
X859Y731D02*
X866Y731D01*
X1013Y731D02*
X1015Y731D01*
X1523Y731D02*
X1530Y731D01*
X0Y730D02*
X7Y730D01*
X859Y730D02*
X866Y730D01*
X911Y730D02*
X911Y730D01*
X1011Y730D02*
X1014Y730D01*
X1523Y730D02*
X1530Y730D01*
X0Y729D02*
X7Y729D01*
X859Y729D02*
X866Y729D01*
X910Y729D02*
X912Y729D01*
X1010Y729D02*
X1014Y729D01*
X1523Y729D02*
X1530Y729D01*
X0Y728D02*
X7Y728D01*
X859Y728D02*
X866Y728D01*
X908Y728D02*
X913Y728D01*
X1008Y728D02*
X1013Y728D01*
X1523Y728D02*
X1530Y728D01*
X0Y727D02*
X7Y727D01*
X859Y727D02*
X866Y727D01*
X906Y727D02*
X913Y727D01*
X1006Y727D02*
X1013Y727D01*
X1523Y727D02*
X1530Y727D01*
X0Y726D02*
X7Y726D01*
X859Y726D02*
X866Y726D01*
X906Y726D02*
X914Y726D01*
X1004Y726D02*
X1012Y726D01*
X1523Y726D02*
X1530Y726D01*
X0Y725D02*
X7Y725D01*
X859Y725D02*
X866Y725D01*
X907Y725D02*
X915Y725D01*
X1003Y725D02*
X1011Y725D01*
X1523Y725D02*
X1530Y725D01*
X0Y724D02*
X7Y724D01*
X859Y724D02*
X866Y724D01*
X907Y724D02*
X916Y724D01*
X1002Y724D02*
X1010Y724D01*
X1523Y724D02*
X1530Y724D01*
X0Y723D02*
X7Y723D01*
X859Y723D02*
X866Y723D01*
X908Y723D02*
X917Y723D01*
X1001Y723D02*
X1010Y723D01*
X1523Y723D02*
X1530Y723D01*
X0Y722D02*
X7Y722D01*
X859Y722D02*
X866Y722D01*
X909Y722D02*
X918Y722D01*
X1000Y722D02*
X1009Y722D01*
X1523Y722D02*
X1530Y722D01*
X0Y721D02*
X7Y721D01*
X859Y721D02*
X866Y721D01*
X910Y721D02*
X919Y721D01*
X999Y721D02*
X1008Y721D01*
X1523Y721D02*
X1530Y721D01*
X0Y720D02*
X7Y720D01*
X859Y720D02*
X866Y720D01*
X911Y720D02*
X920Y720D01*
X998Y720D02*
X1007Y720D01*
X1523Y720D02*
X1530Y720D01*
X0Y719D02*
X7Y719D01*
X859Y719D02*
X866Y719D01*
X912Y719D02*
X921Y719D01*
X997Y719D02*
X1006Y719D01*
X1523Y719D02*
X1530Y719D01*
X0Y718D02*
X7Y718D01*
X859Y718D02*
X866Y718D01*
X912Y718D02*
X922Y718D01*
X996Y718D02*
X1005Y718D01*
X1523Y718D02*
X1530Y718D01*
X0Y717D02*
X7Y717D01*
X859Y717D02*
X866Y717D01*
X913Y717D02*
X924Y717D01*
X994Y717D02*
X1005Y717D01*
X1523Y717D02*
X1530Y717D01*
X0Y716D02*
X7Y716D01*
X859Y716D02*
X866Y716D01*
X914Y716D02*
X925Y716D01*
X993Y716D02*
X1003Y716D01*
X1523Y716D02*
X1530Y716D01*
X0Y715D02*
X7Y715D01*
X859Y715D02*
X866Y715D01*
X916Y715D02*
X926Y715D01*
X992Y715D02*
X1002Y715D01*
X1523Y715D02*
X1530Y715D01*
X0Y714D02*
X7Y714D01*
X859Y714D02*
X866Y714D01*
X917Y714D02*
X928Y714D01*
X990Y714D02*
X1001Y714D01*
X1523Y714D02*
X1530Y714D01*
X0Y713D02*
X7Y713D01*
X859Y713D02*
X866Y713D01*
X918Y713D02*
X930Y713D01*
X988Y713D02*
X1000Y713D01*
X1523Y713D02*
X1530Y713D01*
X0Y712D02*
X7Y712D01*
X859Y712D02*
X866Y712D01*
X919Y712D02*
X931Y712D01*
X987Y712D02*
X999Y712D01*
X1523Y712D02*
X1530Y712D01*
X0Y711D02*
X7Y711D01*
X859Y711D02*
X866Y711D01*
X920Y711D02*
X934Y711D01*
X984Y711D02*
X998Y711D01*
X1523Y711D02*
X1530Y711D01*
X0Y710D02*
X7Y710D01*
X859Y710D02*
X866Y710D01*
X922Y710D02*
X936Y710D01*
X982Y710D02*
X996Y710D01*
X1523Y710D02*
X1530Y710D01*
X0Y709D02*
X7Y709D01*
X859Y709D02*
X866Y709D01*
X923Y709D02*
X938Y709D01*
X980Y709D02*
X995Y709D01*
X1523Y709D02*
X1530Y709D01*
X0Y708D02*
X7Y708D01*
X859Y708D02*
X866Y708D01*
X924Y708D02*
X941Y708D01*
X977Y708D02*
X993Y708D01*
X1523Y708D02*
X1530Y708D01*
X0Y707D02*
X7Y707D01*
X859Y707D02*
X866Y707D01*
X926Y707D02*
X945Y707D01*
X973Y707D02*
X992Y707D01*
X1523Y707D02*
X1530Y707D01*
X0Y706D02*
X7Y706D01*
X859Y706D02*
X866Y706D01*
X928Y706D02*
X951Y706D01*
X967Y706D02*
X990Y706D01*
X1523Y706D02*
X1530Y706D01*
X0Y705D02*
X7Y705D01*
X859Y705D02*
X866Y705D01*
X929Y705D02*
X988Y705D01*
X1523Y705D02*
X1530Y705D01*
X0Y704D02*
X7Y704D01*
X859Y704D02*
X866Y704D01*
X932Y704D02*
X986Y704D01*
X1523Y704D02*
X1530Y704D01*
X0Y703D02*
X7Y703D01*
X859Y703D02*
X866Y703D01*
X934Y703D02*
X984Y703D01*
X1523Y703D02*
X1530Y703D01*
X0Y702D02*
X7Y702D01*
X859Y702D02*
X866Y702D01*
X936Y702D02*
X982Y702D01*
X1523Y702D02*
X1530Y702D01*
X0Y701D02*
X7Y701D01*
X859Y701D02*
X866Y701D01*
X939Y701D02*
X979Y701D01*
X1523Y701D02*
X1530Y701D01*
X0Y700D02*
X7Y700D01*
X859Y700D02*
X866Y700D01*
X942Y700D02*
X976Y700D01*
X1523Y700D02*
X1530Y700D01*
X0Y699D02*
X7Y699D01*
X859Y699D02*
X866Y699D01*
X946Y699D02*
X972Y699D01*
X1523Y699D02*
X1530Y699D01*
X0Y698D02*
X7Y698D01*
X859Y698D02*
X866Y698D01*
X951Y698D02*
X967Y698D01*
X1523Y698D02*
X1530Y698D01*
X0Y697D02*
X7Y697D01*
X859Y697D02*
X866Y697D01*
X1523Y697D02*
X1530Y697D01*
X0Y696D02*
X7Y696D01*
X859Y696D02*
X866Y696D01*
X1523Y696D02*
X1530Y696D01*
X0Y695D02*
X7Y695D01*
X859Y695D02*
X866Y695D01*
X1523Y695D02*
X1530Y695D01*
X0Y694D02*
X7Y694D01*
X859Y694D02*
X866Y694D01*
X1523Y694D02*
X1530Y694D01*
X0Y693D02*
X7Y693D01*
X859Y693D02*
X866Y693D01*
X1523Y693D02*
X1530Y693D01*
X0Y692D02*
X7Y692D01*
X859Y692D02*
X866Y692D01*
X1523Y692D02*
X1530Y692D01*
X0Y691D02*
X7Y691D01*
X859Y691D02*
X866Y691D01*
X1523Y691D02*
X1530Y691D01*
X0Y690D02*
X7Y690D01*
X859Y690D02*
X866Y690D01*
X1523Y690D02*
X1530Y690D01*
X0Y689D02*
X7Y689D01*
X859Y689D02*
X866Y689D01*
X1523Y689D02*
X1530Y689D01*
X0Y688D02*
X7Y688D01*
X859Y688D02*
X866Y688D01*
X1523Y688D02*
X1530Y688D01*
X0Y687D02*
X7Y687D01*
X859Y687D02*
X866Y687D01*
X1523Y687D02*
X1530Y687D01*
X0Y686D02*
X7Y686D01*
X859Y686D02*
X866Y686D01*
X1523Y686D02*
X1530Y686D01*
X0Y685D02*
X7Y685D01*
X859Y685D02*
X866Y685D01*
X1523Y685D02*
X1530Y685D01*
X0Y684D02*
X7Y684D01*
X859Y684D02*
X866Y684D01*
X1523Y684D02*
X1530Y684D01*
X0Y683D02*
X7Y683D01*
X859Y683D02*
X866Y683D01*
X1523Y683D02*
X1530Y683D01*
X0Y682D02*
X7Y682D01*
X859Y682D02*
X866Y682D01*
X1523Y682D02*
X1530Y682D01*
X0Y681D02*
X7Y681D01*
X859Y681D02*
X866Y681D01*
X1523Y681D02*
X1530Y681D01*
X0Y680D02*
X7Y680D01*
X859Y680D02*
X866Y680D01*
X1523Y680D02*
X1530Y680D01*
X0Y679D02*
X7Y679D01*
X859Y679D02*
X866Y679D01*
X1523Y679D02*
X1530Y679D01*
X0Y678D02*
X7Y678D01*
X859Y678D02*
X866Y678D01*
X1523Y678D02*
X1530Y678D01*
X0Y677D02*
X7Y677D01*
X859Y677D02*
X866Y677D01*
X1523Y677D02*
X1530Y677D01*
X0Y676D02*
X7Y676D01*
X859Y676D02*
X866Y676D01*
X1523Y676D02*
X1530Y676D01*
X0Y675D02*
X7Y675D01*
X859Y675D02*
X866Y675D01*
X1523Y675D02*
X1530Y675D01*
X0Y674D02*
X7Y674D01*
X859Y674D02*
X866Y674D01*
X1523Y674D02*
X1530Y674D01*
X0Y673D02*
X7Y673D01*
X859Y673D02*
X866Y673D01*
X1523Y673D02*
X1530Y673D01*
X0Y672D02*
X7Y672D01*
X859Y672D02*
X866Y672D01*
X1523Y672D02*
X1530Y672D01*
X0Y671D02*
X7Y671D01*
X859Y671D02*
X866Y671D01*
X1523Y671D02*
X1530Y671D01*
X0Y670D02*
X7Y670D01*
X859Y670D02*
X866Y670D01*
X1523Y670D02*
X1530Y670D01*
X0Y669D02*
X7Y669D01*
X859Y669D02*
X866Y669D01*
X1523Y669D02*
X1530Y669D01*
X0Y668D02*
X7Y668D01*
X859Y668D02*
X866Y668D01*
X1523Y668D02*
X1530Y668D01*
X0Y667D02*
X7Y667D01*
X859Y667D02*
X866Y667D01*
X1523Y667D02*
X1530Y667D01*
X0Y666D02*
X7Y666D01*
X859Y666D02*
X866Y666D01*
X1523Y666D02*
X1530Y666D01*
X0Y665D02*
X7Y665D01*
X859Y665D02*
X866Y665D01*
X1523Y665D02*
X1530Y665D01*
X0Y664D02*
X7Y664D01*
X859Y664D02*
X866Y664D01*
X1523Y664D02*
X1530Y664D01*
X0Y663D02*
X7Y663D01*
X859Y663D02*
X866Y663D01*
X1523Y663D02*
X1530Y663D01*
X0Y662D02*
X7Y662D01*
X859Y662D02*
X866Y662D01*
X1523Y662D02*
X1530Y662D01*
X0Y661D02*
X7Y661D01*
X859Y661D02*
X866Y661D01*
X1523Y661D02*
X1530Y661D01*
X0Y660D02*
X7Y660D01*
X859Y660D02*
X866Y660D01*
X1523Y660D02*
X1530Y660D01*
X0Y659D02*
X7Y659D01*
X859Y659D02*
X866Y659D01*
X1523Y659D02*
X1530Y659D01*
X0Y658D02*
X7Y658D01*
X859Y658D02*
X866Y658D01*
X1523Y658D02*
X1530Y658D01*
X0Y657D02*
X7Y657D01*
X859Y657D02*
X866Y657D01*
X1523Y657D02*
X1530Y657D01*
X0Y656D02*
X7Y656D01*
X859Y656D02*
X866Y656D01*
X1523Y656D02*
X1530Y656D01*
X0Y655D02*
X7Y655D01*
X859Y655D02*
X866Y655D01*
X1523Y655D02*
X1530Y655D01*
X0Y654D02*
X7Y654D01*
X859Y654D02*
X866Y654D01*
X1523Y654D02*
X1530Y654D01*
X0Y653D02*
X7Y653D01*
X859Y653D02*
X866Y653D01*
X1523Y653D02*
X1530Y653D01*
X0Y652D02*
X7Y652D01*
X859Y652D02*
X866Y652D01*
X1523Y652D02*
X1530Y652D01*
X0Y651D02*
X7Y651D01*
X859Y651D02*
X866Y651D01*
X1523Y651D02*
X1530Y651D01*
X0Y650D02*
X7Y650D01*
X859Y650D02*
X866Y650D01*
X1523Y650D02*
X1530Y650D01*
X0Y649D02*
X7Y649D01*
X859Y649D02*
X866Y649D01*
X1523Y649D02*
X1530Y649D01*
X0Y648D02*
X7Y648D01*
X859Y648D02*
X866Y648D01*
X1523Y648D02*
X1530Y648D01*
X0Y647D02*
X7Y647D01*
X859Y647D02*
X866Y647D01*
X1523Y647D02*
X1530Y647D01*
X0Y646D02*
X7Y646D01*
X859Y646D02*
X866Y646D01*
X1523Y646D02*
X1530Y646D01*
X0Y645D02*
X7Y645D01*
X859Y645D02*
X866Y645D01*
X1523Y645D02*
X1530Y645D01*
X0Y644D02*
X7Y644D01*
X859Y644D02*
X866Y644D01*
X1523Y644D02*
X1530Y644D01*
X0Y643D02*
X7Y643D01*
X859Y643D02*
X866Y643D01*
X1523Y643D02*
X1530Y643D01*
X0Y642D02*
X7Y642D01*
X859Y642D02*
X866Y642D01*
X1523Y642D02*
X1530Y642D01*
X0Y641D02*
X7Y641D01*
X859Y641D02*
X866Y641D01*
X1523Y641D02*
X1530Y641D01*
X0Y640D02*
X7Y640D01*
X859Y640D02*
X866Y640D01*
X1523Y640D02*
X1530Y640D01*
X0Y639D02*
X7Y639D01*
X859Y639D02*
X866Y639D01*
X1523Y639D02*
X1530Y639D01*
X0Y638D02*
X7Y638D01*
X859Y638D02*
X866Y638D01*
X1523Y638D02*
X1530Y638D01*
X0Y637D02*
X7Y637D01*
X859Y637D02*
X866Y637D01*
X1523Y637D02*
X1530Y637D01*
X0Y636D02*
X7Y636D01*
X859Y636D02*
X866Y636D01*
X1523Y636D02*
X1530Y636D01*
X0Y635D02*
X7Y635D01*
X859Y635D02*
X866Y635D01*
X1523Y635D02*
X1530Y635D01*
X0Y634D02*
X7Y634D01*
X859Y634D02*
X866Y634D01*
X1523Y634D02*
X1530Y634D01*
X0Y633D02*
X7Y633D01*
X859Y633D02*
X866Y633D01*
X1523Y633D02*
X1530Y633D01*
X0Y632D02*
X7Y632D01*
X859Y632D02*
X866Y632D01*
X1523Y632D02*
X1530Y632D01*
X0Y631D02*
X7Y631D01*
X859Y631D02*
X866Y631D01*
X1523Y631D02*
X1530Y631D01*
X0Y630D02*
X7Y630D01*
X859Y630D02*
X866Y630D01*
X1523Y630D02*
X1530Y630D01*
X0Y629D02*
X7Y629D01*
X859Y629D02*
X866Y629D01*
X1523Y629D02*
X1530Y629D01*
X0Y628D02*
X7Y628D01*
X859Y628D02*
X866Y628D01*
X1523Y628D02*
X1530Y628D01*
X0Y627D02*
X7Y627D01*
X859Y627D02*
X866Y627D01*
X1523Y627D02*
X1530Y627D01*
X0Y626D02*
X7Y626D01*
X859Y626D02*
X866Y626D01*
X1523Y626D02*
X1530Y626D01*
X0Y625D02*
X7Y625D01*
X859Y625D02*
X866Y625D01*
X1523Y625D02*
X1530Y625D01*
X0Y624D02*
X7Y624D01*
X859Y624D02*
X866Y624D01*
X1523Y624D02*
X1530Y624D01*
X0Y623D02*
X7Y623D01*
X859Y623D02*
X866Y623D01*
X1523Y623D02*
X1530Y623D01*
X0Y622D02*
X7Y622D01*
X859Y622D02*
X866Y622D01*
X1523Y622D02*
X1530Y622D01*
X0Y621D02*
X7Y621D01*
X859Y621D02*
X866Y621D01*
X1523Y621D02*
X1530Y621D01*
X0Y620D02*
X7Y620D01*
X859Y620D02*
X866Y620D01*
X1523Y620D02*
X1530Y620D01*
X0Y619D02*
X7Y619D01*
X859Y619D02*
X866Y619D01*
X1523Y619D02*
X1530Y619D01*
X0Y618D02*
X7Y618D01*
X859Y618D02*
X866Y618D01*
X1523Y618D02*
X1530Y618D01*
X0Y617D02*
X7Y617D01*
X859Y617D02*
X866Y617D01*
X1523Y617D02*
X1530Y617D01*
X0Y616D02*
X7Y616D01*
X859Y616D02*
X866Y616D01*
X1523Y616D02*
X1530Y616D01*
X0Y615D02*
X7Y615D01*
X859Y615D02*
X866Y615D01*
X1523Y615D02*
X1530Y615D01*
X0Y614D02*
X7Y614D01*
X859Y614D02*
X866Y614D01*
X1523Y614D02*
X1530Y614D01*
X0Y613D02*
X7Y613D01*
X859Y613D02*
X866Y613D01*
X1523Y613D02*
X1530Y613D01*
X0Y612D02*
X7Y612D01*
X859Y612D02*
X866Y612D01*
X1523Y612D02*
X1530Y612D01*
X0Y611D02*
X7Y611D01*
X859Y611D02*
X866Y611D01*
X1523Y611D02*
X1530Y611D01*
X0Y610D02*
X7Y610D01*
X859Y610D02*
X866Y610D01*
X1523Y610D02*
X1530Y610D01*
X0Y609D02*
X7Y609D01*
X859Y609D02*
X866Y609D01*
X1523Y609D02*
X1530Y609D01*
X0Y608D02*
X7Y608D01*
X859Y608D02*
X866Y608D01*
X1523Y608D02*
X1530Y608D01*
X0Y607D02*
X7Y607D01*
X859Y607D02*
X866Y607D01*
X1523Y607D02*
X1530Y607D01*
X0Y606D02*
X7Y606D01*
X859Y606D02*
X866Y606D01*
X1523Y606D02*
X1530Y606D01*
X0Y605D02*
X7Y605D01*
X859Y605D02*
X866Y605D01*
X1523Y605D02*
X1530Y605D01*
X0Y604D02*
X7Y604D01*
X859Y604D02*
X866Y604D01*
X1523Y604D02*
X1530Y604D01*
X0Y603D02*
X7Y603D01*
X859Y603D02*
X866Y603D01*
X1523Y603D02*
X1530Y603D01*
X0Y602D02*
X7Y602D01*
X859Y602D02*
X866Y602D01*
X1523Y602D02*
X1530Y602D01*
X0Y601D02*
X7Y601D01*
X859Y601D02*
X866Y601D01*
X1523Y601D02*
X1530Y601D01*
X0Y600D02*
X7Y600D01*
X859Y600D02*
X866Y600D01*
X1523Y600D02*
X1530Y600D01*
X0Y599D02*
X7Y599D01*
X859Y599D02*
X866Y599D01*
X1523Y599D02*
X1530Y599D01*
X0Y598D02*
X7Y598D01*
X859Y598D02*
X866Y598D01*
X1523Y598D02*
X1530Y598D01*
X0Y597D02*
X7Y597D01*
X859Y597D02*
X866Y597D01*
X1523Y597D02*
X1530Y597D01*
X0Y596D02*
X7Y596D01*
X859Y596D02*
X866Y596D01*
X1523Y596D02*
X1530Y596D01*
X0Y595D02*
X7Y595D01*
X859Y595D02*
X866Y595D01*
X1523Y595D02*
X1530Y595D01*
X0Y594D02*
X7Y594D01*
X859Y594D02*
X866Y594D01*
X1523Y594D02*
X1530Y594D01*
X0Y593D02*
X7Y593D01*
X859Y593D02*
X866Y593D01*
X1523Y593D02*
X1530Y593D01*
X0Y592D02*
X7Y592D01*
X859Y592D02*
X866Y592D01*
X1523Y592D02*
X1530Y592D01*
X0Y591D02*
X7Y591D01*
X859Y591D02*
X866Y591D01*
X1523Y591D02*
X1530Y591D01*
X0Y590D02*
X7Y590D01*
X859Y590D02*
X866Y590D01*
X1523Y590D02*
X1530Y590D01*
X0Y589D02*
X7Y589D01*
X859Y589D02*
X866Y589D01*
X1523Y589D02*
X1530Y589D01*
X0Y588D02*
X7Y588D01*
X859Y588D02*
X866Y588D01*
X1523Y588D02*
X1530Y588D01*
X0Y587D02*
X7Y587D01*
X859Y587D02*
X866Y587D01*
X1523Y587D02*
X1530Y587D01*
X0Y586D02*
X7Y586D01*
X859Y586D02*
X866Y586D01*
X1523Y586D02*
X1530Y586D01*
X0Y585D02*
X7Y585D01*
X859Y585D02*
X866Y585D01*
X1523Y585D02*
X1530Y585D01*
X0Y584D02*
X7Y584D01*
X859Y584D02*
X866Y584D01*
X1523Y584D02*
X1530Y584D01*
X0Y583D02*
X7Y583D01*
X859Y583D02*
X866Y583D01*
X1523Y583D02*
X1530Y583D01*
X0Y582D02*
X7Y582D01*
X859Y582D02*
X866Y582D01*
X1523Y582D02*
X1530Y582D01*
X0Y581D02*
X7Y581D01*
X859Y581D02*
X866Y581D01*
X1523Y581D02*
X1530Y581D01*
X0Y580D02*
X7Y580D01*
X859Y580D02*
X866Y580D01*
X1523Y580D02*
X1530Y580D01*
X0Y579D02*
X7Y579D01*
X859Y579D02*
X866Y579D01*
X1523Y579D02*
X1530Y579D01*
X0Y578D02*
X7Y578D01*
X859Y578D02*
X866Y578D01*
X1523Y578D02*
X1530Y578D01*
X0Y577D02*
X7Y577D01*
X859Y577D02*
X866Y577D01*
X1523Y577D02*
X1530Y577D01*
X0Y576D02*
X7Y576D01*
X859Y576D02*
X866Y576D01*
X1523Y576D02*
X1530Y576D01*
X0Y575D02*
X7Y575D01*
X859Y575D02*
X866Y575D01*
X1523Y575D02*
X1530Y575D01*
X0Y574D02*
X7Y574D01*
X859Y574D02*
X866Y574D01*
X1523Y574D02*
X1530Y574D01*
X0Y573D02*
X7Y573D01*
X859Y573D02*
X866Y573D01*
X1523Y573D02*
X1530Y573D01*
X0Y572D02*
X7Y572D01*
X859Y572D02*
X866Y572D01*
X1523Y572D02*
X1530Y572D01*
X0Y571D02*
X7Y571D01*
X859Y571D02*
X866Y571D01*
X1523Y571D02*
X1530Y571D01*
X0Y570D02*
X7Y570D01*
X859Y570D02*
X866Y570D01*
X1523Y570D02*
X1530Y570D01*
X0Y569D02*
X7Y569D01*
X859Y569D02*
X866Y569D01*
X1523Y569D02*
X1530Y569D01*
X0Y568D02*
X7Y568D01*
X859Y568D02*
X866Y568D01*
X1523Y568D02*
X1530Y568D01*
X0Y567D02*
X7Y567D01*
X859Y567D02*
X866Y567D01*
X1523Y567D02*
X1530Y567D01*
X0Y566D02*
X7Y566D01*
X859Y566D02*
X866Y566D01*
X1523Y566D02*
X1530Y566D01*
X0Y565D02*
X7Y565D01*
X859Y565D02*
X866Y565D01*
X1523Y565D02*
X1530Y565D01*
X0Y564D02*
X7Y564D01*
X859Y564D02*
X866Y564D01*
X1523Y564D02*
X1530Y564D01*
X0Y563D02*
X7Y563D01*
X859Y563D02*
X866Y563D01*
X1523Y563D02*
X1530Y563D01*
X0Y562D02*
X7Y562D01*
X859Y562D02*
X866Y562D01*
X1523Y562D02*
X1530Y562D01*
X0Y561D02*
X7Y561D01*
X859Y561D02*
X866Y561D01*
X1523Y561D02*
X1530Y561D01*
X0Y560D02*
X7Y560D01*
X859Y560D02*
X866Y560D01*
X1523Y560D02*
X1530Y560D01*
X0Y559D02*
X7Y559D01*
X859Y559D02*
X866Y559D01*
X1523Y559D02*
X1530Y559D01*
X0Y558D02*
X7Y558D01*
X859Y558D02*
X866Y558D01*
X1523Y558D02*
X1530Y558D01*
X0Y557D02*
X7Y557D01*
X859Y557D02*
X866Y557D01*
X1523Y557D02*
X1530Y557D01*
X0Y556D02*
X7Y556D01*
X859Y556D02*
X866Y556D01*
X1523Y556D02*
X1530Y556D01*
X0Y555D02*
X7Y555D01*
X859Y555D02*
X866Y555D01*
X1523Y555D02*
X1530Y555D01*
X0Y554D02*
X7Y554D01*
X859Y554D02*
X866Y554D01*
X1523Y554D02*
X1530Y554D01*
X0Y553D02*
X7Y553D01*
X859Y553D02*
X866Y553D01*
X1523Y553D02*
X1530Y553D01*
X0Y552D02*
X7Y552D01*
X859Y552D02*
X866Y552D01*
X1523Y552D02*
X1530Y552D01*
X0Y551D02*
X7Y551D01*
X859Y551D02*
X866Y551D01*
X1523Y551D02*
X1530Y551D01*
X0Y550D02*
X7Y550D01*
X859Y550D02*
X866Y550D01*
X1523Y550D02*
X1530Y550D01*
X0Y549D02*
X7Y549D01*
X859Y549D02*
X866Y549D01*
X1523Y549D02*
X1530Y549D01*
X0Y548D02*
X7Y548D01*
X859Y548D02*
X866Y548D01*
X1523Y548D02*
X1530Y548D01*
X0Y547D02*
X7Y547D01*
X859Y547D02*
X866Y547D01*
X1523Y547D02*
X1530Y547D01*
X0Y546D02*
X7Y546D01*
X859Y546D02*
X866Y546D01*
X1523Y546D02*
X1530Y546D01*
X0Y545D02*
X7Y545D01*
X859Y545D02*
X866Y545D01*
X1523Y545D02*
X1530Y545D01*
X0Y544D02*
X7Y544D01*
X859Y544D02*
X866Y544D01*
X1523Y544D02*
X1530Y544D01*
X0Y543D02*
X7Y543D01*
X859Y543D02*
X866Y543D01*
X1523Y543D02*
X1530Y543D01*
X0Y542D02*
X7Y542D01*
X859Y542D02*
X866Y542D01*
X1523Y542D02*
X1530Y542D01*
X0Y541D02*
X7Y541D01*
X859Y541D02*
X866Y541D01*
X1523Y541D02*
X1530Y541D01*
X0Y540D02*
X7Y540D01*
X859Y540D02*
X866Y540D01*
X1523Y540D02*
X1530Y540D01*
X0Y539D02*
X7Y539D01*
X859Y539D02*
X866Y539D01*
X1523Y539D02*
X1530Y539D01*
X0Y538D02*
X7Y538D01*
X859Y538D02*
X866Y538D01*
X1523Y538D02*
X1530Y538D01*
X0Y537D02*
X7Y537D01*
X859Y537D02*
X866Y537D01*
X1523Y537D02*
X1530Y537D01*
X0Y536D02*
X7Y536D01*
X859Y536D02*
X866Y536D01*
X1523Y536D02*
X1530Y536D01*
X0Y535D02*
X7Y535D01*
X859Y535D02*
X866Y535D01*
X1523Y535D02*
X1530Y535D01*
X0Y534D02*
X7Y534D01*
X859Y534D02*
X866Y534D01*
X1523Y534D02*
X1530Y534D01*
X0Y533D02*
X7Y533D01*
X859Y533D02*
X866Y533D01*
X1523Y533D02*
X1530Y533D01*
X0Y532D02*
X7Y532D01*
X859Y532D02*
X866Y532D01*
X1523Y532D02*
X1530Y532D01*
X0Y531D02*
X7Y531D01*
X859Y531D02*
X866Y531D01*
X1523Y531D02*
X1530Y531D01*
X0Y530D02*
X7Y530D01*
X859Y530D02*
X866Y530D01*
X1523Y530D02*
X1530Y530D01*
X0Y529D02*
X7Y529D01*
X859Y529D02*
X866Y529D01*
X1523Y529D02*
X1530Y529D01*
X0Y528D02*
X7Y528D01*
X859Y528D02*
X866Y528D01*
X1523Y528D02*
X1530Y528D01*
X0Y527D02*
X7Y527D01*
X859Y527D02*
X866Y527D01*
X1523Y527D02*
X1530Y527D01*
X0Y526D02*
X7Y526D01*
X859Y526D02*
X866Y526D01*
X1523Y526D02*
X1530Y526D01*
X0Y525D02*
X7Y525D01*
X859Y525D02*
X866Y525D01*
X1523Y525D02*
X1530Y525D01*
X0Y524D02*
X7Y524D01*
X859Y524D02*
X866Y524D01*
X1523Y524D02*
X1530Y524D01*
X0Y523D02*
X7Y523D01*
X859Y523D02*
X866Y523D01*
X1523Y523D02*
X1530Y523D01*
X0Y522D02*
X7Y522D01*
X859Y522D02*
X866Y522D01*
X1523Y522D02*
X1530Y522D01*
X0Y521D02*
X7Y521D01*
X859Y521D02*
X866Y521D01*
X1523Y521D02*
X1530Y521D01*
X0Y520D02*
X7Y520D01*
X859Y520D02*
X866Y520D01*
X1523Y520D02*
X1530Y520D01*
X0Y519D02*
X7Y519D01*
X859Y519D02*
X866Y519D01*
X1523Y519D02*
X1530Y519D01*
X0Y518D02*
X7Y518D01*
X859Y518D02*
X866Y518D01*
X1523Y518D02*
X1530Y518D01*
X0Y517D02*
X7Y517D01*
X859Y517D02*
X866Y517D01*
X1523Y517D02*
X1530Y517D01*
X0Y516D02*
X7Y516D01*
X859Y516D02*
X866Y516D01*
X1523Y516D02*
X1530Y516D01*
X0Y515D02*
X7Y515D01*
X859Y515D02*
X866Y515D01*
X1523Y515D02*
X1530Y515D01*
X0Y514D02*
X7Y514D01*
X859Y514D02*
X866Y514D01*
X1523Y514D02*
X1530Y514D01*
X0Y513D02*
X7Y513D01*
X859Y513D02*
X866Y513D01*
X1523Y513D02*
X1530Y513D01*
X0Y512D02*
X7Y512D01*
X859Y512D02*
X866Y512D01*
X1523Y512D02*
X1530Y512D01*
X0Y511D02*
X7Y511D01*
X859Y511D02*
X866Y511D01*
X1523Y511D02*
X1530Y511D01*
X0Y510D02*
X7Y510D01*
X859Y510D02*
X866Y510D01*
X1523Y510D02*
X1530Y510D01*
X0Y509D02*
X7Y509D01*
X859Y509D02*
X866Y509D01*
X1523Y509D02*
X1530Y509D01*
X0Y508D02*
X7Y508D01*
X859Y508D02*
X866Y508D01*
X1523Y508D02*
X1530Y508D01*
X0Y507D02*
X7Y507D01*
X859Y507D02*
X866Y507D01*
X1523Y507D02*
X1530Y507D01*
X0Y506D02*
X7Y506D01*
X859Y506D02*
X866Y506D01*
X1523Y506D02*
X1530Y506D01*
X0Y505D02*
X7Y505D01*
X859Y505D02*
X866Y505D01*
X1523Y505D02*
X1530Y505D01*
X0Y504D02*
X7Y504D01*
X859Y504D02*
X866Y504D01*
X1523Y504D02*
X1530Y504D01*
X0Y503D02*
X7Y503D01*
X859Y503D02*
X866Y503D01*
X1523Y503D02*
X1530Y503D01*
X0Y502D02*
X7Y502D01*
X859Y502D02*
X866Y502D01*
X1523Y502D02*
X1530Y502D01*
X0Y501D02*
X7Y501D01*
X859Y501D02*
X866Y501D01*
X1523Y501D02*
X1530Y501D01*
X0Y500D02*
X7Y500D01*
X859Y500D02*
X866Y500D01*
X1523Y500D02*
X1530Y500D01*
X0Y499D02*
X7Y499D01*
X859Y499D02*
X866Y499D01*
X1523Y499D02*
X1530Y499D01*
X0Y498D02*
X7Y498D01*
X859Y498D02*
X866Y498D01*
X1523Y498D02*
X1530Y498D01*
X0Y497D02*
X7Y497D01*
X859Y497D02*
X866Y497D01*
X1523Y497D02*
X1530Y497D01*
X0Y496D02*
X7Y496D01*
X859Y496D02*
X866Y496D01*
X1523Y496D02*
X1530Y496D01*
X0Y495D02*
X7Y495D01*
X859Y495D02*
X866Y495D01*
X1523Y495D02*
X1530Y495D01*
X0Y494D02*
X7Y494D01*
X859Y494D02*
X866Y494D01*
X1523Y494D02*
X1530Y494D01*
X0Y493D02*
X7Y493D01*
X859Y493D02*
X866Y493D01*
X1523Y493D02*
X1530Y493D01*
X0Y492D02*
X7Y492D01*
X859Y492D02*
X866Y492D01*
X1523Y492D02*
X1530Y492D01*
X0Y491D02*
X7Y491D01*
X859Y491D02*
X866Y491D01*
X1523Y491D02*
X1530Y491D01*
X0Y490D02*
X7Y490D01*
X859Y490D02*
X866Y490D01*
X1523Y490D02*
X1530Y490D01*
X0Y489D02*
X7Y489D01*
X859Y489D02*
X866Y489D01*
X1523Y489D02*
X1530Y489D01*
X0Y488D02*
X7Y488D01*
X859Y488D02*
X866Y488D01*
X1523Y488D02*
X1530Y488D01*
X0Y487D02*
X7Y487D01*
X859Y487D02*
X866Y487D01*
X1523Y487D02*
X1530Y487D01*
X0Y486D02*
X7Y486D01*
X859Y486D02*
X866Y486D01*
X1523Y486D02*
X1530Y486D01*
X0Y485D02*
X7Y485D01*
X859Y485D02*
X866Y485D01*
X1523Y485D02*
X1530Y485D01*
X0Y484D02*
X7Y484D01*
X859Y484D02*
X866Y484D01*
X1523Y484D02*
X1530Y484D01*
X0Y483D02*
X7Y483D01*
X859Y483D02*
X866Y483D01*
X1523Y483D02*
X1530Y483D01*
X0Y482D02*
X7Y482D01*
X859Y482D02*
X866Y482D01*
X1523Y482D02*
X1530Y482D01*
X0Y481D02*
X7Y481D01*
X859Y481D02*
X866Y481D01*
X1523Y481D02*
X1530Y481D01*
X0Y480D02*
X7Y480D01*
X859Y480D02*
X866Y480D01*
X1523Y480D02*
X1530Y480D01*
X0Y479D02*
X7Y479D01*
X859Y479D02*
X866Y479D01*
X1523Y479D02*
X1530Y479D01*
X0Y478D02*
X7Y478D01*
X859Y478D02*
X866Y478D01*
X1523Y478D02*
X1530Y478D01*
X0Y477D02*
X7Y477D01*
X859Y477D02*
X866Y477D01*
X1523Y477D02*
X1530Y477D01*
X0Y476D02*
X7Y476D01*
X859Y476D02*
X866Y476D01*
X1523Y476D02*
X1530Y476D01*
X0Y475D02*
X7Y475D01*
X859Y475D02*
X866Y475D01*
X1523Y475D02*
X1530Y475D01*
X0Y474D02*
X7Y474D01*
X859Y474D02*
X866Y474D01*
X1523Y474D02*
X1530Y474D01*
X0Y473D02*
X7Y473D01*
X859Y473D02*
X866Y473D01*
X1523Y473D02*
X1530Y473D01*
X0Y472D02*
X7Y472D01*
X859Y472D02*
X866Y472D01*
X1523Y472D02*
X1530Y472D01*
X0Y471D02*
X7Y471D01*
X859Y471D02*
X866Y471D01*
X1523Y471D02*
X1530Y471D01*
X0Y470D02*
X7Y470D01*
X859Y470D02*
X866Y470D01*
X1523Y470D02*
X1530Y470D01*
X0Y469D02*
X7Y469D01*
X859Y469D02*
X866Y469D01*
X1523Y469D02*
X1530Y469D01*
X0Y468D02*
X7Y468D01*
X859Y468D02*
X866Y468D01*
X1523Y468D02*
X1530Y468D01*
X0Y467D02*
X7Y467D01*
X859Y467D02*
X866Y467D01*
X1523Y467D02*
X1530Y467D01*
X0Y466D02*
X7Y466D01*
X859Y466D02*
X866Y466D01*
X1523Y466D02*
X1530Y466D01*
X0Y465D02*
X7Y465D01*
X859Y465D02*
X866Y465D01*
X1523Y465D02*
X1530Y465D01*
X0Y464D02*
X7Y464D01*
X859Y464D02*
X866Y464D01*
X1523Y464D02*
X1530Y464D01*
X0Y463D02*
X7Y463D01*
X859Y463D02*
X866Y463D01*
X1523Y463D02*
X1530Y463D01*
X0Y462D02*
X7Y462D01*
X859Y462D02*
X866Y462D01*
X1523Y462D02*
X1530Y462D01*
X0Y461D02*
X7Y461D01*
X859Y461D02*
X866Y461D01*
X1523Y461D02*
X1530Y461D01*
X0Y460D02*
X7Y460D01*
X859Y460D02*
X866Y460D01*
X1523Y460D02*
X1530Y460D01*
X0Y459D02*
X7Y459D01*
X859Y459D02*
X866Y459D01*
X1523Y459D02*
X1530Y459D01*
X0Y458D02*
X7Y458D01*
X859Y458D02*
X866Y458D01*
X1523Y458D02*
X1530Y458D01*
X0Y457D02*
X7Y457D01*
X859Y457D02*
X866Y457D01*
X1523Y457D02*
X1530Y457D01*
X0Y456D02*
X7Y456D01*
X859Y456D02*
X866Y456D01*
X1523Y456D02*
X1530Y456D01*
X0Y455D02*
X7Y455D01*
X859Y455D02*
X866Y455D01*
X1523Y455D02*
X1530Y455D01*
X0Y454D02*
X7Y454D01*
X859Y454D02*
X866Y454D01*
X1523Y454D02*
X1530Y454D01*
X0Y453D02*
X7Y453D01*
X859Y453D02*
X866Y453D01*
X1523Y453D02*
X1530Y453D01*
X0Y452D02*
X7Y452D01*
X859Y452D02*
X866Y452D01*
X1523Y452D02*
X1530Y452D01*
X0Y451D02*
X7Y451D01*
X859Y451D02*
X866Y451D01*
X1523Y451D02*
X1530Y451D01*
X0Y450D02*
X7Y450D01*
X859Y450D02*
X866Y450D01*
X1523Y450D02*
X1530Y450D01*
X0Y449D02*
X7Y449D01*
X859Y449D02*
X866Y449D01*
X1523Y449D02*
X1530Y449D01*
X0Y448D02*
X7Y448D01*
X859Y448D02*
X866Y448D01*
X1523Y448D02*
X1530Y448D01*
X0Y447D02*
X7Y447D01*
X859Y447D02*
X866Y447D01*
X1523Y447D02*
X1530Y447D01*
X0Y446D02*
X7Y446D01*
X859Y446D02*
X866Y446D01*
X1523Y446D02*
X1530Y446D01*
X0Y445D02*
X7Y445D01*
X859Y445D02*
X866Y445D01*
X1523Y445D02*
X1530Y445D01*
X0Y444D02*
X7Y444D01*
X859Y444D02*
X866Y444D01*
X1523Y444D02*
X1530Y444D01*
X0Y443D02*
X7Y443D01*
X859Y443D02*
X866Y443D01*
X1523Y443D02*
X1530Y443D01*
X0Y442D02*
X7Y442D01*
X859Y442D02*
X866Y442D01*
X1523Y442D02*
X1530Y442D01*
X0Y441D02*
X7Y441D01*
X859Y441D02*
X866Y441D01*
X1523Y441D02*
X1530Y441D01*
X0Y440D02*
X7Y440D01*
X859Y440D02*
X866Y440D01*
X1523Y440D02*
X1530Y440D01*
X0Y439D02*
X7Y439D01*
X859Y439D02*
X866Y439D01*
X1523Y439D02*
X1530Y439D01*
X0Y438D02*
X7Y438D01*
X859Y438D02*
X866Y438D01*
X1523Y438D02*
X1530Y438D01*
X0Y437D02*
X7Y437D01*
X859Y437D02*
X866Y437D01*
X1523Y437D02*
X1530Y437D01*
X0Y436D02*
X7Y436D01*
X859Y436D02*
X866Y436D01*
X1523Y436D02*
X1530Y436D01*
X0Y435D02*
X7Y435D01*
X859Y435D02*
X866Y435D01*
X1523Y435D02*
X1530Y435D01*
X0Y434D02*
X7Y434D01*
X859Y434D02*
X866Y434D01*
X1523Y434D02*
X1530Y434D01*
X0Y433D02*
X7Y433D01*
X859Y433D02*
X866Y433D01*
X1523Y433D02*
X1530Y433D01*
X0Y432D02*
X7Y432D01*
X859Y432D02*
X866Y432D01*
X1523Y432D02*
X1530Y432D01*
X0Y431D02*
X7Y431D01*
X859Y431D02*
X866Y431D01*
X1523Y431D02*
X1530Y431D01*
X0Y430D02*
X7Y430D01*
X859Y430D02*
X866Y430D01*
X1523Y430D02*
X1530Y430D01*
X0Y429D02*
X7Y429D01*
X859Y429D02*
X866Y429D01*
X1523Y429D02*
X1530Y429D01*
X0Y428D02*
X7Y428D01*
X859Y428D02*
X866Y428D01*
X1523Y428D02*
X1530Y428D01*
X0Y427D02*
X7Y427D01*
X859Y427D02*
X866Y427D01*
X1523Y427D02*
X1530Y427D01*
X0Y426D02*
X7Y426D01*
X859Y426D02*
X866Y426D01*
X1523Y426D02*
X1530Y426D01*
X0Y425D02*
X7Y425D01*
X859Y425D02*
X866Y425D01*
X1523Y425D02*
X1530Y425D01*
X0Y424D02*
X7Y424D01*
X859Y424D02*
X866Y424D01*
X1523Y424D02*
X1530Y424D01*
X0Y423D02*
X7Y423D01*
X859Y423D02*
X866Y423D01*
X1523Y423D02*
X1530Y423D01*
X0Y422D02*
X7Y422D01*
X859Y422D02*
X866Y422D01*
X1523Y422D02*
X1530Y422D01*
X0Y421D02*
X7Y421D01*
X859Y421D02*
X866Y421D01*
X1523Y421D02*
X1530Y421D01*
X0Y420D02*
X7Y420D01*
X859Y420D02*
X866Y420D01*
X1523Y420D02*
X1530Y420D01*
X0Y419D02*
X7Y419D01*
X859Y419D02*
X866Y419D01*
X1523Y419D02*
X1530Y419D01*
X0Y418D02*
X7Y418D01*
X859Y418D02*
X866Y418D01*
X1523Y418D02*
X1530Y418D01*
X0Y417D02*
X7Y417D01*
X859Y417D02*
X866Y417D01*
X1523Y417D02*
X1530Y417D01*
X0Y416D02*
X7Y416D01*
X859Y416D02*
X866Y416D01*
X1523Y416D02*
X1530Y416D01*
X0Y415D02*
X7Y415D01*
X859Y415D02*
X866Y415D01*
X1523Y415D02*
X1530Y415D01*
X0Y414D02*
X7Y414D01*
X859Y414D02*
X866Y414D01*
X1523Y414D02*
X1530Y414D01*
X0Y413D02*
X7Y413D01*
X859Y413D02*
X866Y413D01*
X1523Y413D02*
X1530Y413D01*
X0Y412D02*
X7Y412D01*
X859Y412D02*
X866Y412D01*
X1523Y412D02*
X1530Y412D01*
X0Y411D02*
X7Y411D01*
X859Y411D02*
X866Y411D01*
X1523Y411D02*
X1530Y411D01*
X0Y410D02*
X7Y410D01*
X859Y410D02*
X866Y410D01*
X1523Y410D02*
X1530Y410D01*
X0Y409D02*
X7Y409D01*
X859Y409D02*
X866Y409D01*
X1523Y409D02*
X1530Y409D01*
X0Y408D02*
X7Y408D01*
X859Y408D02*
X866Y408D01*
X1523Y408D02*
X1530Y408D01*
X0Y407D02*
X7Y407D01*
X859Y407D02*
X866Y407D01*
X1523Y407D02*
X1530Y407D01*
X0Y406D02*
X7Y406D01*
X859Y406D02*
X866Y406D01*
X1523Y406D02*
X1530Y406D01*
X0Y405D02*
X7Y405D01*
X859Y405D02*
X866Y405D01*
X1523Y405D02*
X1530Y405D01*
X0Y404D02*
X7Y404D01*
X859Y404D02*
X866Y404D01*
X1523Y404D02*
X1530Y404D01*
X0Y403D02*
X7Y403D01*
X859Y403D02*
X866Y403D01*
X1523Y403D02*
X1530Y403D01*
X0Y402D02*
X7Y402D01*
X859Y402D02*
X866Y402D01*
X1523Y402D02*
X1530Y402D01*
X0Y401D02*
X7Y401D01*
X859Y401D02*
X866Y401D01*
X1523Y401D02*
X1530Y401D01*
X0Y400D02*
X7Y400D01*
X859Y400D02*
X866Y400D01*
X1523Y400D02*
X1530Y400D01*
X0Y399D02*
X7Y399D01*
X859Y399D02*
X866Y399D01*
X1523Y399D02*
X1530Y399D01*
X0Y398D02*
X7Y398D01*
X859Y398D02*
X866Y398D01*
X1523Y398D02*
X1530Y398D01*
X0Y397D02*
X7Y397D01*
X859Y397D02*
X866Y397D01*
X1523Y397D02*
X1530Y397D01*
X0Y396D02*
X7Y396D01*
X859Y396D02*
X866Y396D01*
X1523Y396D02*
X1530Y396D01*
X0Y395D02*
X7Y395D01*
X859Y395D02*
X866Y395D01*
X1523Y395D02*
X1530Y395D01*
X0Y394D02*
X7Y394D01*
X859Y394D02*
X866Y394D01*
X1523Y394D02*
X1530Y394D01*
X0Y393D02*
X7Y393D01*
X859Y393D02*
X866Y393D01*
X1523Y393D02*
X1530Y393D01*
X0Y392D02*
X7Y392D01*
X859Y392D02*
X866Y392D01*
X1523Y392D02*
X1530Y392D01*
X0Y391D02*
X7Y391D01*
X859Y391D02*
X866Y391D01*
X1523Y391D02*
X1530Y391D01*
X0Y390D02*
X7Y390D01*
X859Y390D02*
X866Y390D01*
X1523Y390D02*
X1530Y390D01*
X0Y389D02*
X7Y389D01*
X859Y389D02*
X866Y389D01*
X1523Y389D02*
X1530Y389D01*
X0Y388D02*
X7Y388D01*
X859Y388D02*
X866Y388D01*
X1523Y388D02*
X1530Y388D01*
X0Y387D02*
X7Y387D01*
X859Y387D02*
X866Y387D01*
X1523Y387D02*
X1530Y387D01*
X0Y386D02*
X7Y386D01*
X859Y386D02*
X866Y386D01*
X1523Y386D02*
X1530Y386D01*
X0Y385D02*
X7Y385D01*
X859Y385D02*
X866Y385D01*
X1523Y385D02*
X1530Y385D01*
X0Y384D02*
X7Y384D01*
X859Y384D02*
X866Y384D01*
X1523Y384D02*
X1530Y384D01*
X0Y383D02*
X7Y383D01*
X859Y383D02*
X866Y383D01*
X1523Y383D02*
X1530Y383D01*
X0Y382D02*
X7Y382D01*
X859Y382D02*
X866Y382D01*
X1523Y382D02*
X1530Y382D01*
X0Y381D02*
X7Y381D01*
X859Y381D02*
X866Y381D01*
X1523Y381D02*
X1530Y381D01*
X0Y380D02*
X7Y380D01*
X859Y380D02*
X866Y380D01*
X1523Y380D02*
X1530Y380D01*
X0Y379D02*
X7Y379D01*
X859Y379D02*
X866Y379D01*
X1523Y379D02*
X1530Y379D01*
X0Y378D02*
X7Y378D01*
X859Y378D02*
X866Y378D01*
X1523Y378D02*
X1530Y378D01*
X0Y377D02*
X7Y377D01*
X859Y377D02*
X866Y377D01*
X1523Y377D02*
X1530Y377D01*
X0Y376D02*
X7Y376D01*
X859Y376D02*
X866Y376D01*
X1523Y376D02*
X1530Y376D01*
X0Y375D02*
X7Y375D01*
X859Y375D02*
X866Y375D01*
X1523Y375D02*
X1530Y375D01*
X0Y374D02*
X7Y374D01*
X859Y374D02*
X866Y374D01*
X1523Y374D02*
X1530Y374D01*
X0Y373D02*
X7Y373D01*
X859Y373D02*
X866Y373D01*
X1523Y373D02*
X1530Y373D01*
X0Y372D02*
X7Y372D01*
X859Y372D02*
X866Y372D01*
X1523Y372D02*
X1530Y372D01*
X0Y371D02*
X7Y371D01*
X859Y371D02*
X866Y371D01*
X1523Y371D02*
X1530Y371D01*
X0Y370D02*
X7Y370D01*
X859Y370D02*
X866Y370D01*
X1523Y370D02*
X1530Y370D01*
X0Y369D02*
X7Y369D01*
X859Y369D02*
X866Y369D01*
X1523Y369D02*
X1530Y369D01*
X0Y368D02*
X7Y368D01*
X859Y368D02*
X866Y368D01*
X1523Y368D02*
X1530Y368D01*
X0Y367D02*
X7Y367D01*
X859Y367D02*
X866Y367D01*
X1523Y367D02*
X1530Y367D01*
X0Y366D02*
X7Y366D01*
X859Y366D02*
X866Y366D01*
X1523Y366D02*
X1530Y366D01*
X0Y365D02*
X7Y365D01*
X859Y365D02*
X866Y365D01*
X1523Y365D02*
X1530Y365D01*
X0Y364D02*
X7Y364D01*
X859Y364D02*
X866Y364D01*
X1523Y364D02*
X1530Y364D01*
X0Y363D02*
X7Y363D01*
X859Y363D02*
X866Y363D01*
X1523Y363D02*
X1530Y363D01*
X0Y362D02*
X7Y362D01*
X859Y362D02*
X866Y362D01*
X1523Y362D02*
X1530Y362D01*
X0Y361D02*
X7Y361D01*
X859Y361D02*
X866Y361D01*
X1523Y361D02*
X1530Y361D01*
X0Y360D02*
X7Y360D01*
X859Y360D02*
X866Y360D01*
X1523Y360D02*
X1530Y360D01*
X0Y359D02*
X7Y359D01*
X859Y359D02*
X866Y359D01*
X1523Y359D02*
X1530Y359D01*
X0Y358D02*
X7Y358D01*
X859Y358D02*
X866Y358D01*
X1523Y358D02*
X1530Y358D01*
X0Y357D02*
X7Y357D01*
X859Y357D02*
X866Y357D01*
X1523Y357D02*
X1530Y357D01*
X0Y356D02*
X7Y356D01*
X859Y356D02*
X866Y356D01*
X1523Y356D02*
X1530Y356D01*
X0Y355D02*
X7Y355D01*
X859Y355D02*
X866Y355D01*
X1523Y355D02*
X1530Y355D01*
X0Y354D02*
X7Y354D01*
X859Y354D02*
X866Y354D01*
X1523Y354D02*
X1530Y354D01*
X0Y353D02*
X7Y353D01*
X859Y353D02*
X866Y353D01*
X1523Y353D02*
X1530Y353D01*
X0Y352D02*
X7Y352D01*
X859Y352D02*
X866Y352D01*
X1523Y352D02*
X1530Y352D01*
X0Y351D02*
X7Y351D01*
X859Y351D02*
X866Y351D01*
X1523Y351D02*
X1530Y351D01*
X0Y350D02*
X7Y350D01*
X859Y350D02*
X866Y350D01*
X1523Y350D02*
X1530Y350D01*
X0Y349D02*
X7Y349D01*
X859Y349D02*
X866Y349D01*
X1523Y349D02*
X1530Y349D01*
X0Y348D02*
X7Y348D01*
X859Y348D02*
X866Y348D01*
X1523Y348D02*
X1530Y348D01*
X0Y347D02*
X7Y347D01*
X859Y347D02*
X866Y347D01*
X1523Y347D02*
X1530Y347D01*
X0Y346D02*
X7Y346D01*
X859Y346D02*
X866Y346D01*
X1523Y346D02*
X1530Y346D01*
X0Y345D02*
X7Y345D01*
X859Y345D02*
X866Y345D01*
X1523Y345D02*
X1530Y345D01*
X0Y344D02*
X7Y344D01*
X859Y344D02*
X866Y344D01*
X1523Y344D02*
X1530Y344D01*
X0Y343D02*
X7Y343D01*
X859Y343D02*
X866Y343D01*
X1523Y343D02*
X1530Y343D01*
X0Y342D02*
X7Y342D01*
X859Y342D02*
X866Y342D01*
X1523Y342D02*
X1530Y342D01*
X0Y341D02*
X7Y341D01*
X859Y341D02*
X866Y341D01*
X1523Y341D02*
X1530Y341D01*
X0Y340D02*
X7Y340D01*
X859Y340D02*
X866Y340D01*
X1523Y340D02*
X1530Y340D01*
X0Y339D02*
X7Y339D01*
X859Y339D02*
X866Y339D01*
X1523Y339D02*
X1530Y339D01*
X0Y338D02*
X7Y338D01*
X859Y338D02*
X866Y338D01*
X1523Y338D02*
X1530Y338D01*
X0Y337D02*
X7Y337D01*
X859Y337D02*
X866Y337D01*
X1523Y337D02*
X1530Y337D01*
X0Y336D02*
X7Y336D01*
X859Y336D02*
X866Y336D01*
X1523Y336D02*
X1530Y336D01*
X0Y335D02*
X7Y335D01*
X859Y335D02*
X866Y335D01*
X1523Y335D02*
X1530Y335D01*
X0Y334D02*
X7Y334D01*
X859Y334D02*
X866Y334D01*
X1523Y334D02*
X1530Y334D01*
X0Y333D02*
X7Y333D01*
X859Y333D02*
X866Y333D01*
X1523Y333D02*
X1530Y333D01*
X0Y332D02*
X7Y332D01*
X859Y332D02*
X866Y332D01*
X1523Y332D02*
X1530Y332D01*
X0Y331D02*
X7Y331D01*
X859Y331D02*
X866Y331D01*
X1523Y331D02*
X1530Y331D01*
X0Y330D02*
X7Y330D01*
X859Y330D02*
X866Y330D01*
X1523Y330D02*
X1530Y330D01*
X0Y329D02*
X7Y329D01*
X859Y329D02*
X866Y329D01*
X1523Y329D02*
X1530Y329D01*
X0Y328D02*
X7Y328D01*
X859Y328D02*
X866Y328D01*
X1523Y328D02*
X1530Y328D01*
X0Y327D02*
X7Y327D01*
X859Y327D02*
X866Y327D01*
X1523Y327D02*
X1530Y327D01*
X0Y326D02*
X7Y326D01*
X859Y326D02*
X866Y326D01*
X1523Y326D02*
X1530Y326D01*
X0Y325D02*
X7Y325D01*
X859Y325D02*
X866Y325D01*
X1523Y325D02*
X1530Y325D01*
X0Y324D02*
X7Y324D01*
X859Y324D02*
X866Y324D01*
X1523Y324D02*
X1530Y324D01*
X0Y323D02*
X7Y323D01*
X859Y323D02*
X866Y323D01*
X1523Y323D02*
X1530Y323D01*
X0Y322D02*
X7Y322D01*
X859Y322D02*
X866Y322D01*
X1523Y322D02*
X1530Y322D01*
X0Y321D02*
X7Y321D01*
X859Y321D02*
X866Y321D01*
X1523Y321D02*
X1530Y321D01*
X0Y320D02*
X7Y320D01*
X859Y320D02*
X866Y320D01*
X1523Y320D02*
X1530Y320D01*
X0Y319D02*
X7Y319D01*
X859Y319D02*
X866Y319D01*
X1523Y319D02*
X1530Y319D01*
X0Y318D02*
X7Y318D01*
X859Y318D02*
X866Y318D01*
X1523Y318D02*
X1530Y318D01*
X0Y317D02*
X7Y317D01*
X859Y317D02*
X866Y317D01*
X1523Y317D02*
X1530Y317D01*
X0Y316D02*
X7Y316D01*
X859Y316D02*
X866Y316D01*
X1523Y316D02*
X1530Y316D01*
X0Y315D02*
X7Y315D01*
X859Y315D02*
X866Y315D01*
X1523Y315D02*
X1530Y315D01*
X0Y314D02*
X7Y314D01*
X859Y314D02*
X866Y314D01*
X1523Y314D02*
X1530Y314D01*
X0Y313D02*
X7Y313D01*
X859Y313D02*
X866Y313D01*
X1523Y313D02*
X1530Y313D01*
X0Y312D02*
X7Y312D01*
X859Y312D02*
X866Y312D01*
X1523Y312D02*
X1530Y312D01*
X0Y311D02*
X7Y311D01*
X859Y311D02*
X866Y311D01*
X1523Y311D02*
X1530Y311D01*
X0Y310D02*
X7Y310D01*
X859Y310D02*
X866Y310D01*
X1523Y310D02*
X1530Y310D01*
X0Y309D02*
X7Y309D01*
X859Y309D02*
X866Y309D01*
X1523Y309D02*
X1530Y309D01*
X0Y308D02*
X7Y308D01*
X859Y308D02*
X866Y308D01*
X1523Y308D02*
X1530Y308D01*
X0Y307D02*
X7Y307D01*
X859Y307D02*
X866Y307D01*
X1523Y307D02*
X1530Y307D01*
X0Y306D02*
X7Y306D01*
X859Y306D02*
X866Y306D01*
X1523Y306D02*
X1530Y306D01*
X0Y305D02*
X7Y305D01*
X859Y305D02*
X866Y305D01*
X1523Y305D02*
X1530Y305D01*
X0Y304D02*
X7Y304D01*
X859Y304D02*
X866Y304D01*
X1523Y304D02*
X1530Y304D01*
X0Y303D02*
X7Y303D01*
X859Y303D02*
X866Y303D01*
X1523Y303D02*
X1530Y303D01*
X0Y302D02*
X7Y302D01*
X859Y302D02*
X866Y302D01*
X1523Y302D02*
X1530Y302D01*
X0Y301D02*
X7Y301D01*
X859Y301D02*
X866Y301D01*
X1523Y301D02*
X1530Y301D01*
X0Y300D02*
X7Y300D01*
X859Y300D02*
X866Y300D01*
X1523Y300D02*
X1530Y300D01*
X0Y299D02*
X7Y299D01*
X859Y299D02*
X866Y299D01*
X1523Y299D02*
X1530Y299D01*
X0Y298D02*
X7Y298D01*
X859Y298D02*
X866Y298D01*
X1523Y298D02*
X1530Y298D01*
X0Y297D02*
X7Y297D01*
X859Y297D02*
X866Y297D01*
X1523Y297D02*
X1530Y297D01*
X0Y296D02*
X7Y296D01*
X859Y296D02*
X866Y296D01*
X1523Y296D02*
X1530Y296D01*
X0Y295D02*
X7Y295D01*
X859Y295D02*
X866Y295D01*
X1523Y295D02*
X1530Y295D01*
X0Y294D02*
X7Y294D01*
X859Y294D02*
X866Y294D01*
X1523Y294D02*
X1530Y294D01*
X0Y293D02*
X7Y293D01*
X859Y293D02*
X866Y293D01*
X1523Y293D02*
X1530Y293D01*
X0Y292D02*
X7Y292D01*
X859Y292D02*
X866Y292D01*
X1523Y292D02*
X1530Y292D01*
X0Y291D02*
X7Y291D01*
X859Y291D02*
X866Y291D01*
X1523Y291D02*
X1530Y291D01*
X0Y290D02*
X7Y290D01*
X859Y290D02*
X866Y290D01*
X1523Y290D02*
X1530Y290D01*
X0Y289D02*
X7Y289D01*
X859Y289D02*
X866Y289D01*
X1523Y289D02*
X1530Y289D01*
X0Y288D02*
X7Y288D01*
X859Y288D02*
X866Y288D01*
X1523Y288D02*
X1530Y288D01*
X0Y287D02*
X7Y287D01*
X859Y287D02*
X866Y287D01*
X1523Y287D02*
X1530Y287D01*
X0Y286D02*
X7Y286D01*
X859Y286D02*
X866Y286D01*
X1523Y286D02*
X1530Y286D01*
X0Y285D02*
X7Y285D01*
X859Y285D02*
X866Y285D01*
X1523Y285D02*
X1530Y285D01*
X0Y284D02*
X7Y284D01*
X859Y284D02*
X866Y284D01*
X1523Y284D02*
X1530Y284D01*
X0Y283D02*
X7Y283D01*
X859Y283D02*
X866Y283D01*
X1523Y283D02*
X1530Y283D01*
X0Y282D02*
X7Y282D01*
X859Y282D02*
X866Y282D01*
X1523Y282D02*
X1530Y282D01*
X0Y281D02*
X7Y281D01*
X859Y281D02*
X866Y281D01*
X1523Y281D02*
X1530Y281D01*
X0Y280D02*
X7Y280D01*
X859Y280D02*
X866Y280D01*
X1523Y280D02*
X1530Y280D01*
X0Y279D02*
X7Y279D01*
X859Y279D02*
X866Y279D01*
X1523Y279D02*
X1530Y279D01*
X0Y278D02*
X7Y278D01*
X859Y278D02*
X866Y278D01*
X1523Y278D02*
X1530Y278D01*
X0Y277D02*
X7Y277D01*
X859Y277D02*
X866Y277D01*
X1523Y277D02*
X1530Y277D01*
X0Y276D02*
X7Y276D01*
X859Y276D02*
X866Y276D01*
X1523Y276D02*
X1530Y276D01*
X0Y275D02*
X7Y275D01*
X859Y275D02*
X866Y275D01*
X1523Y275D02*
X1530Y275D01*
X0Y274D02*
X7Y274D01*
X859Y274D02*
X866Y274D01*
X1523Y274D02*
X1530Y274D01*
X0Y273D02*
X7Y273D01*
X859Y273D02*
X866Y273D01*
X1523Y273D02*
X1530Y273D01*
X0Y272D02*
X7Y272D01*
X859Y272D02*
X866Y272D01*
X1523Y272D02*
X1530Y272D01*
X0Y271D02*
X7Y271D01*
X859Y271D02*
X866Y271D01*
X1523Y271D02*
X1530Y271D01*
X0Y270D02*
X7Y270D01*
X859Y270D02*
X866Y270D01*
X1523Y270D02*
X1530Y270D01*
X0Y269D02*
X7Y269D01*
X859Y269D02*
X866Y269D01*
X1523Y269D02*
X1530Y269D01*
X0Y268D02*
X7Y268D01*
X859Y268D02*
X866Y268D01*
X1523Y268D02*
X1530Y268D01*
X0Y267D02*
X7Y267D01*
X859Y267D02*
X866Y267D01*
X1523Y267D02*
X1530Y267D01*
X0Y266D02*
X7Y266D01*
X859Y266D02*
X866Y266D01*
X1523Y266D02*
X1530Y266D01*
X0Y265D02*
X7Y265D01*
X859Y265D02*
X866Y265D01*
X1523Y265D02*
X1530Y265D01*
X0Y264D02*
X7Y264D01*
X859Y264D02*
X866Y264D01*
X1523Y264D02*
X1530Y264D01*
X0Y263D02*
X7Y263D01*
X859Y263D02*
X866Y263D01*
X1523Y263D02*
X1530Y263D01*
X0Y262D02*
X7Y262D01*
X859Y262D02*
X866Y262D01*
X1523Y262D02*
X1530Y262D01*
X0Y261D02*
X7Y261D01*
X859Y261D02*
X866Y261D01*
X1523Y261D02*
X1530Y261D01*
X0Y260D02*
X7Y260D01*
X859Y260D02*
X866Y260D01*
X1523Y260D02*
X1530Y260D01*
X0Y259D02*
X7Y259D01*
X859Y259D02*
X866Y259D01*
X1523Y259D02*
X1530Y259D01*
X0Y258D02*
X7Y258D01*
X859Y258D02*
X866Y258D01*
X1523Y258D02*
X1530Y258D01*
X0Y257D02*
X7Y257D01*
X859Y257D02*
X866Y257D01*
X1523Y257D02*
X1530Y257D01*
X0Y256D02*
X7Y256D01*
X859Y256D02*
X866Y256D01*
X1523Y256D02*
X1530Y256D01*
X0Y255D02*
X7Y255D01*
X859Y255D02*
X866Y255D01*
X1523Y255D02*
X1530Y255D01*
X0Y254D02*
X7Y254D01*
X859Y254D02*
X866Y254D01*
X1523Y254D02*
X1530Y254D01*
X0Y253D02*
X7Y253D01*
X859Y253D02*
X866Y253D01*
X1523Y253D02*
X1530Y253D01*
X0Y252D02*
X7Y252D01*
X859Y252D02*
X866Y252D01*
X1523Y252D02*
X1530Y252D01*
X0Y251D02*
X7Y251D01*
X859Y251D02*
X866Y251D01*
X1523Y251D02*
X1530Y251D01*
X0Y250D02*
X7Y250D01*
X859Y250D02*
X866Y250D01*
X1523Y250D02*
X1530Y250D01*
X0Y249D02*
X7Y249D01*
X859Y249D02*
X866Y249D01*
X1523Y249D02*
X1530Y249D01*
X0Y248D02*
X7Y248D01*
X859Y248D02*
X866Y248D01*
X1523Y248D02*
X1530Y248D01*
X0Y247D02*
X7Y247D01*
X859Y247D02*
X866Y247D01*
X1523Y247D02*
X1530Y247D01*
X0Y246D02*
X7Y246D01*
X859Y246D02*
X866Y246D01*
X1523Y246D02*
X1530Y246D01*
X0Y245D02*
X7Y245D01*
X859Y245D02*
X866Y245D01*
X1523Y245D02*
X1530Y245D01*
X0Y244D02*
X7Y244D01*
X859Y244D02*
X866Y244D01*
X1523Y244D02*
X1530Y244D01*
X0Y243D02*
X7Y243D01*
X859Y243D02*
X866Y243D01*
X1523Y243D02*
X1530Y243D01*
X0Y242D02*
X7Y242D01*
X859Y242D02*
X866Y242D01*
X1523Y242D02*
X1530Y242D01*
X0Y241D02*
X7Y241D01*
X859Y241D02*
X866Y241D01*
X1523Y241D02*
X1530Y241D01*
X0Y240D02*
X7Y240D01*
X859Y240D02*
X866Y240D01*
X1523Y240D02*
X1530Y240D01*
X0Y239D02*
X7Y239D01*
X859Y239D02*
X866Y239D01*
X1523Y239D02*
X1530Y239D01*
X0Y238D02*
X7Y238D01*
X859Y238D02*
X866Y238D01*
X1523Y238D02*
X1530Y238D01*
X0Y237D02*
X7Y237D01*
X859Y237D02*
X866Y237D01*
X1523Y237D02*
X1530Y237D01*
X0Y236D02*
X7Y236D01*
X859Y236D02*
X866Y236D01*
X1523Y236D02*
X1530Y236D01*
X0Y235D02*
X7Y235D01*
X859Y235D02*
X866Y235D01*
X1523Y235D02*
X1530Y235D01*
X0Y234D02*
X7Y234D01*
X859Y234D02*
X866Y234D01*
X1523Y234D02*
X1530Y234D01*
X0Y233D02*
X7Y233D01*
X859Y233D02*
X866Y233D01*
X1523Y233D02*
X1530Y233D01*
X0Y232D02*
X7Y232D01*
X859Y232D02*
X866Y232D01*
X1523Y232D02*
X1530Y232D01*
X0Y231D02*
X7Y231D01*
X859Y231D02*
X866Y231D01*
X1523Y231D02*
X1530Y231D01*
X0Y230D02*
X7Y230D01*
X859Y230D02*
X866Y230D01*
X1523Y230D02*
X1530Y230D01*
X0Y229D02*
X7Y229D01*
X859Y229D02*
X866Y229D01*
X1523Y229D02*
X1530Y229D01*
X0Y228D02*
X7Y228D01*
X859Y228D02*
X866Y228D01*
X1523Y228D02*
X1530Y228D01*
X0Y227D02*
X7Y227D01*
X859Y227D02*
X866Y227D01*
X1523Y227D02*
X1530Y227D01*
X0Y226D02*
X7Y226D01*
X859Y226D02*
X866Y226D01*
X1523Y226D02*
X1530Y226D01*
X0Y225D02*
X7Y225D01*
X859Y225D02*
X866Y225D01*
X1523Y225D02*
X1530Y225D01*
X0Y224D02*
X7Y224D01*
X859Y224D02*
X866Y224D01*
X1523Y224D02*
X1530Y224D01*
X0Y223D02*
X7Y223D01*
X859Y223D02*
X866Y223D01*
X1523Y223D02*
X1530Y223D01*
X0Y222D02*
X7Y222D01*
X859Y222D02*
X866Y222D01*
X1523Y222D02*
X1530Y222D01*
X0Y221D02*
X7Y221D01*
X859Y221D02*
X866Y221D01*
X1523Y221D02*
X1530Y221D01*
X0Y220D02*
X7Y220D01*
X859Y220D02*
X866Y220D01*
X1523Y220D02*
X1530Y220D01*
X0Y219D02*
X7Y219D01*
X859Y219D02*
X866Y219D01*
X1523Y219D02*
X1530Y219D01*
X0Y218D02*
X7Y218D01*
X859Y218D02*
X866Y218D01*
X1523Y218D02*
X1530Y218D01*
X0Y217D02*
X7Y217D01*
X859Y217D02*
X866Y217D01*
X1523Y217D02*
X1530Y217D01*
X0Y216D02*
X7Y216D01*
X859Y216D02*
X866Y216D01*
X1523Y216D02*
X1530Y216D01*
X0Y215D02*
X7Y215D01*
X859Y215D02*
X866Y215D01*
X1523Y215D02*
X1530Y215D01*
X0Y214D02*
X7Y214D01*
X859Y214D02*
X866Y214D01*
X1523Y214D02*
X1530Y214D01*
X0Y213D02*
X7Y213D01*
X859Y213D02*
X866Y213D01*
X1523Y213D02*
X1530Y213D01*
X0Y212D02*
X7Y212D01*
X859Y212D02*
X866Y212D01*
X1523Y212D02*
X1530Y212D01*
X0Y211D02*
X7Y211D01*
X859Y211D02*
X866Y211D01*
X1523Y211D02*
X1530Y211D01*
X0Y210D02*
X7Y210D01*
X859Y210D02*
X866Y210D01*
X1523Y210D02*
X1530Y210D01*
X0Y209D02*
X7Y209D01*
X859Y209D02*
X866Y209D01*
X1523Y209D02*
X1530Y209D01*
X0Y208D02*
X7Y208D01*
X859Y208D02*
X866Y208D01*
X1523Y208D02*
X1530Y208D01*
X0Y207D02*
X7Y207D01*
X859Y207D02*
X866Y207D01*
X1523Y207D02*
X1530Y207D01*
X0Y206D02*
X7Y206D01*
X859Y206D02*
X866Y206D01*
X1523Y206D02*
X1530Y206D01*
X0Y205D02*
X7Y205D01*
X859Y205D02*
X866Y205D01*
X1523Y205D02*
X1530Y205D01*
X0Y204D02*
X7Y204D01*
X859Y204D02*
X866Y204D01*
X1523Y204D02*
X1530Y204D01*
X0Y203D02*
X7Y203D01*
X859Y203D02*
X866Y203D01*
X1523Y203D02*
X1530Y203D01*
X0Y202D02*
X7Y202D01*
X859Y202D02*
X866Y202D01*
X1523Y202D02*
X1530Y202D01*
X0Y201D02*
X7Y201D01*
X859Y201D02*
X866Y201D01*
X1523Y201D02*
X1530Y201D01*
X0Y200D02*
X7Y200D01*
X859Y200D02*
X866Y200D01*
X1523Y200D02*
X1530Y200D01*
X0Y199D02*
X7Y199D01*
X859Y199D02*
X866Y199D01*
X1523Y199D02*
X1530Y199D01*
X0Y198D02*
X7Y198D01*
X859Y198D02*
X866Y198D01*
X1523Y198D02*
X1530Y198D01*
X0Y197D02*
X7Y197D01*
X859Y197D02*
X866Y197D01*
X1523Y197D02*
X1530Y197D01*
X0Y196D02*
X7Y196D01*
X859Y196D02*
X866Y196D01*
X1523Y196D02*
X1530Y196D01*
X0Y195D02*
X7Y195D01*
X859Y195D02*
X866Y195D01*
X1523Y195D02*
X1530Y195D01*
X0Y194D02*
X7Y194D01*
X859Y194D02*
X866Y194D01*
X1523Y194D02*
X1530Y194D01*
X0Y193D02*
X7Y193D01*
X859Y193D02*
X866Y193D01*
X1523Y193D02*
X1530Y193D01*
X0Y192D02*
X7Y192D01*
X859Y192D02*
X866Y192D01*
X1523Y192D02*
X1530Y192D01*
X0Y191D02*
X7Y191D01*
X859Y191D02*
X866Y191D01*
X1523Y191D02*
X1530Y191D01*
X0Y190D02*
X7Y190D01*
X859Y190D02*
X866Y190D01*
X1523Y190D02*
X1530Y190D01*
X0Y189D02*
X7Y189D01*
X859Y189D02*
X866Y189D01*
X1523Y189D02*
X1530Y189D01*
X0Y188D02*
X7Y188D01*
X859Y188D02*
X866Y188D01*
X1523Y188D02*
X1530Y188D01*
X0Y187D02*
X7Y187D01*
X859Y187D02*
X866Y187D01*
X1523Y187D02*
X1530Y187D01*
X0Y186D02*
X7Y186D01*
X859Y186D02*
X866Y186D01*
X1523Y186D02*
X1530Y186D01*
X0Y185D02*
X7Y185D01*
X859Y185D02*
X866Y185D01*
X1523Y185D02*
X1530Y185D01*
X0Y184D02*
X7Y184D01*
X859Y184D02*
X866Y184D01*
X1523Y184D02*
X1530Y184D01*
X0Y183D02*
X7Y183D01*
X859Y183D02*
X866Y183D01*
X1523Y183D02*
X1530Y183D01*
X0Y182D02*
X7Y182D01*
X859Y182D02*
X866Y182D01*
X1523Y182D02*
X1530Y182D01*
X0Y181D02*
X7Y181D01*
X859Y181D02*
X866Y181D01*
X1523Y181D02*
X1530Y181D01*
X0Y180D02*
X7Y180D01*
X859Y180D02*
X866Y180D01*
X1523Y180D02*
X1530Y180D01*
X0Y179D02*
X7Y179D01*
X859Y179D02*
X866Y179D01*
X1523Y179D02*
X1530Y179D01*
X0Y178D02*
X7Y178D01*
X859Y178D02*
X866Y178D01*
X1523Y178D02*
X1530Y178D01*
X0Y177D02*
X7Y177D01*
X859Y177D02*
X866Y177D01*
X1523Y177D02*
X1530Y177D01*
X0Y176D02*
X7Y176D01*
X859Y176D02*
X866Y176D01*
X1523Y176D02*
X1530Y176D01*
X0Y175D02*
X7Y175D01*
X859Y175D02*
X866Y175D01*
X1523Y175D02*
X1530Y175D01*
X0Y174D02*
X7Y174D01*
X859Y174D02*
X866Y174D01*
X1523Y174D02*
X1530Y174D01*
X0Y173D02*
X7Y173D01*
X859Y173D02*
X866Y173D01*
X1523Y173D02*
X1530Y173D01*
X0Y172D02*
X7Y172D01*
X859Y172D02*
X866Y172D01*
X1523Y172D02*
X1530Y172D01*
X0Y171D02*
X7Y171D01*
X859Y171D02*
X866Y171D01*
X1523Y171D02*
X1530Y171D01*
X0Y170D02*
X7Y170D01*
X859Y170D02*
X866Y170D01*
X1523Y170D02*
X1530Y170D01*
X0Y169D02*
X7Y169D01*
X859Y169D02*
X866Y169D01*
X1523Y169D02*
X1530Y169D01*
X0Y168D02*
X7Y168D01*
X859Y168D02*
X866Y168D01*
X1523Y168D02*
X1530Y168D01*
X0Y167D02*
X7Y167D01*
X859Y167D02*
X866Y167D01*
X1523Y167D02*
X1530Y167D01*
X0Y166D02*
X7Y166D01*
X859Y166D02*
X866Y166D01*
X1523Y166D02*
X1530Y166D01*
X0Y165D02*
X7Y165D01*
X859Y165D02*
X866Y165D01*
X1523Y165D02*
X1530Y165D01*
X0Y164D02*
X7Y164D01*
X859Y164D02*
X866Y164D01*
X1523Y164D02*
X1530Y164D01*
X0Y163D02*
X7Y163D01*
X859Y163D02*
X866Y163D01*
X1523Y163D02*
X1530Y163D01*
X0Y162D02*
X7Y162D01*
X859Y162D02*
X866Y162D01*
X1523Y162D02*
X1530Y162D01*
X0Y161D02*
X7Y161D01*
X859Y161D02*
X866Y161D01*
X1523Y161D02*
X1530Y161D01*
X0Y160D02*
X7Y160D01*
X859Y160D02*
X866Y160D01*
X1523Y160D02*
X1530Y160D01*
X0Y159D02*
X7Y159D01*
X859Y159D02*
X866Y159D01*
X1523Y159D02*
X1530Y159D01*
X0Y158D02*
X7Y158D01*
X859Y158D02*
X866Y158D01*
X1523Y158D02*
X1530Y158D01*
X0Y157D02*
X7Y157D01*
X859Y157D02*
X866Y157D01*
X1523Y157D02*
X1530Y157D01*
X0Y156D02*
X7Y156D01*
X859Y156D02*
X866Y156D01*
X1523Y156D02*
X1530Y156D01*
X0Y155D02*
X7Y155D01*
X859Y155D02*
X866Y155D01*
X1523Y155D02*
X1530Y155D01*
X0Y154D02*
X7Y154D01*
X859Y154D02*
X866Y154D01*
X1523Y154D02*
X1530Y154D01*
X0Y153D02*
X7Y153D01*
X859Y153D02*
X866Y153D01*
X1523Y153D02*
X1530Y153D01*
X0Y152D02*
X7Y152D01*
X859Y152D02*
X866Y152D01*
X1523Y152D02*
X1530Y152D01*
X0Y151D02*
X7Y151D01*
X859Y151D02*
X866Y151D01*
X1523Y151D02*
X1530Y151D01*
X0Y150D02*
X7Y150D01*
X859Y150D02*
X866Y150D01*
X1523Y150D02*
X1530Y150D01*
X0Y149D02*
X7Y149D01*
X859Y149D02*
X866Y149D01*
X1523Y149D02*
X1530Y149D01*
X0Y148D02*
X7Y148D01*
X859Y148D02*
X866Y148D01*
X1523Y148D02*
X1530Y148D01*
X0Y147D02*
X7Y147D01*
X859Y147D02*
X866Y147D01*
X1523Y147D02*
X1530Y147D01*
X0Y146D02*
X7Y146D01*
X859Y146D02*
X866Y146D01*
X1523Y146D02*
X1530Y146D01*
X0Y145D02*
X7Y145D01*
X859Y145D02*
X866Y145D01*
X1523Y145D02*
X1530Y145D01*
X0Y144D02*
X7Y144D01*
X859Y144D02*
X866Y144D01*
X1523Y144D02*
X1530Y144D01*
X0Y143D02*
X7Y143D01*
X859Y143D02*
X866Y143D01*
X1523Y143D02*
X1530Y143D01*
X0Y142D02*
X7Y142D01*
X859Y142D02*
X866Y142D01*
X1523Y142D02*
X1530Y142D01*
X0Y141D02*
X7Y141D01*
X859Y141D02*
X866Y141D01*
X1523Y141D02*
X1530Y141D01*
X0Y140D02*
X7Y140D01*
X859Y140D02*
X866Y140D01*
X1523Y140D02*
X1530Y140D01*
X0Y139D02*
X7Y139D01*
X859Y139D02*
X866Y139D01*
X1523Y139D02*
X1530Y139D01*
X0Y138D02*
X7Y138D01*
X859Y138D02*
X866Y138D01*
X1523Y138D02*
X1530Y138D01*
X0Y137D02*
X7Y137D01*
X859Y137D02*
X866Y137D01*
X1523Y137D02*
X1530Y137D01*
X0Y136D02*
X7Y136D01*
X859Y136D02*
X866Y136D01*
X1523Y136D02*
X1530Y136D01*
X0Y135D02*
X7Y135D01*
X859Y135D02*
X866Y135D01*
X1523Y135D02*
X1530Y135D01*
X0Y134D02*
X7Y134D01*
X859Y134D02*
X866Y134D01*
X1523Y134D02*
X1530Y134D01*
X0Y133D02*
X7Y133D01*
X859Y133D02*
X866Y133D01*
X1523Y133D02*
X1530Y133D01*
X0Y132D02*
X7Y132D01*
X859Y132D02*
X866Y132D01*
X1523Y132D02*
X1530Y132D01*
X0Y131D02*
X7Y131D01*
X859Y131D02*
X866Y131D01*
X1523Y131D02*
X1530Y131D01*
X0Y130D02*
X7Y130D01*
X859Y130D02*
X866Y130D01*
X1523Y130D02*
X1530Y130D01*
X0Y129D02*
X7Y129D01*
X859Y129D02*
X866Y129D01*
X1225Y129D02*
X1225Y129D01*
X1272Y129D02*
X1273Y129D01*
X1523Y129D02*
X1530Y129D01*
X0Y128D02*
X7Y128D01*
X859Y128D02*
X866Y128D01*
X1223Y128D02*
X1227Y128D01*
X1270Y128D02*
X1275Y128D01*
X1523Y128D02*
X1530Y128D01*
X0Y127D02*
X7Y127D01*
X859Y127D02*
X866Y127D01*
X949Y127D02*
X969Y127D01*
X1222Y127D02*
X1228Y127D01*
X1269Y127D02*
X1275Y127D01*
X1523Y127D02*
X1530Y127D01*
X0Y126D02*
X7Y126D01*
X859Y126D02*
X866Y126D01*
X944Y126D02*
X974Y126D01*
X1222Y126D02*
X1228Y126D01*
X1269Y126D02*
X1276Y126D01*
X1523Y126D02*
X1530Y126D01*
X0Y125D02*
X7Y125D01*
X859Y125D02*
X866Y125D01*
X940Y125D02*
X978Y125D01*
X1222Y125D02*
X1229Y125D01*
X1269Y125D02*
X1276Y125D01*
X1523Y125D02*
X1530Y125D01*
X0Y124D02*
X7Y124D01*
X859Y124D02*
X866Y124D01*
X938Y124D02*
X980Y124D01*
X1222Y124D02*
X1229Y124D01*
X1269Y124D02*
X1276Y124D01*
X1523Y124D02*
X1530Y124D01*
X0Y123D02*
X7Y123D01*
X859Y123D02*
X866Y123D01*
X935Y123D02*
X983Y123D01*
X1222Y123D02*
X1229Y123D01*
X1269Y123D02*
X1276Y123D01*
X1523Y123D02*
X1530Y123D01*
X0Y122D02*
X7Y122D01*
X859Y122D02*
X866Y122D01*
X933Y122D02*
X985Y122D01*
X1222Y122D02*
X1229Y122D01*
X1269Y122D02*
X1276Y122D01*
X1523Y122D02*
X1530Y122D01*
X0Y121D02*
X7Y121D01*
X859Y121D02*
X866Y121D01*
X931Y121D02*
X987Y121D01*
X1222Y121D02*
X1229Y121D01*
X1269Y121D02*
X1276Y121D01*
X1523Y121D02*
X1530Y121D01*
X0Y120D02*
X7Y120D01*
X859Y120D02*
X866Y120D01*
X929Y120D02*
X989Y120D01*
X1222Y120D02*
X1229Y120D01*
X1269Y120D02*
X1276Y120D01*
X1523Y120D02*
X1530Y120D01*
X0Y119D02*
X7Y119D01*
X859Y119D02*
X866Y119D01*
X927Y119D02*
X948Y119D01*
X970Y119D02*
X991Y119D01*
X1222Y119D02*
X1229Y119D01*
X1269Y119D02*
X1276Y119D01*
X1523Y119D02*
X1530Y119D01*
X0Y118D02*
X7Y118D01*
X859Y118D02*
X866Y118D01*
X925Y118D02*
X943Y118D01*
X975Y118D02*
X993Y118D01*
X1222Y118D02*
X1229Y118D01*
X1269Y118D02*
X1276Y118D01*
X1523Y118D02*
X1530Y118D01*
X0Y117D02*
X7Y117D01*
X859Y117D02*
X866Y117D01*
X924Y117D02*
X940Y117D01*
X978Y117D02*
X994Y117D01*
X1222Y117D02*
X1229Y117D01*
X1269Y117D02*
X1276Y117D01*
X1523Y117D02*
X1530Y117D01*
X0Y116D02*
X7Y116D01*
X859Y116D02*
X866Y116D01*
X922Y116D02*
X937Y116D01*
X981Y116D02*
X996Y116D01*
X1222Y116D02*
X1229Y116D01*
X1269Y116D02*
X1276Y116D01*
X1523Y116D02*
X1530Y116D01*
X0Y115D02*
X7Y115D01*
X859Y115D02*
X866Y115D01*
X921Y115D02*
X935Y115D01*
X983Y115D02*
X997Y115D01*
X1222Y115D02*
X1229Y115D01*
X1269Y115D02*
X1276Y115D01*
X1523Y115D02*
X1530Y115D01*
X0Y114D02*
X7Y114D01*
X859Y114D02*
X866Y114D01*
X920Y114D02*
X933Y114D01*
X985Y114D02*
X998Y114D01*
X1222Y114D02*
X1229Y114D01*
X1269Y114D02*
X1276Y114D01*
X1523Y114D02*
X1530Y114D01*
X0Y113D02*
X7Y113D01*
X859Y113D02*
X866Y113D01*
X918Y113D02*
X931Y113D01*
X987Y113D02*
X1000Y113D01*
X1222Y113D02*
X1229Y113D01*
X1269Y113D02*
X1276Y113D01*
X1523Y113D02*
X1530Y113D01*
X0Y112D02*
X7Y112D01*
X859Y112D02*
X866Y112D01*
X917Y112D02*
X929Y112D01*
X989Y112D02*
X1001Y112D01*
X1222Y112D02*
X1229Y112D01*
X1269Y112D02*
X1276Y112D01*
X1523Y112D02*
X1530Y112D01*
X0Y111D02*
X7Y111D01*
X859Y111D02*
X866Y111D01*
X916Y111D02*
X927Y111D01*
X991Y111D02*
X1002Y111D01*
X1222Y111D02*
X1229Y111D01*
X1269Y111D02*
X1276Y111D01*
X1523Y111D02*
X1530Y111D01*
X0Y110D02*
X7Y110D01*
X859Y110D02*
X866Y110D01*
X915Y110D02*
X926Y110D01*
X992Y110D02*
X1003Y110D01*
X1222Y110D02*
X1229Y110D01*
X1269Y110D02*
X1276Y110D01*
X1523Y110D02*
X1530Y110D01*
X0Y109D02*
X7Y109D01*
X859Y109D02*
X866Y109D01*
X914Y109D02*
X924Y109D01*
X993Y109D02*
X1004Y109D01*
X1222Y109D02*
X1229Y109D01*
X1269Y109D02*
X1276Y109D01*
X1523Y109D02*
X1530Y109D01*
X0Y108D02*
X7Y108D01*
X859Y108D02*
X866Y108D01*
X913Y108D02*
X923Y108D01*
X995Y108D02*
X1005Y108D01*
X1222Y108D02*
X1229Y108D01*
X1269Y108D02*
X1276Y108D01*
X1523Y108D02*
X1530Y108D01*
X0Y107D02*
X7Y107D01*
X859Y107D02*
X866Y107D01*
X912Y107D02*
X922Y107D01*
X996Y107D02*
X1006Y107D01*
X1222Y107D02*
X1229Y107D01*
X1269Y107D02*
X1276Y107D01*
X1523Y107D02*
X1530Y107D01*
X0Y106D02*
X7Y106D01*
X859Y106D02*
X866Y106D01*
X911Y106D02*
X921Y106D01*
X997Y106D02*
X1007Y106D01*
X1222Y106D02*
X1229Y106D01*
X1269Y106D02*
X1276Y106D01*
X1523Y106D02*
X1530Y106D01*
X0Y105D02*
X7Y105D01*
X859Y105D02*
X866Y105D01*
X910Y105D02*
X920Y105D01*
X998Y105D02*
X1008Y105D01*
X1222Y105D02*
X1229Y105D01*
X1269Y105D02*
X1276Y105D01*
X1523Y105D02*
X1530Y105D01*
X0Y104D02*
X7Y104D01*
X859Y104D02*
X866Y104D01*
X909Y104D02*
X918Y104D01*
X999Y104D02*
X1009Y104D01*
X1222Y104D02*
X1229Y104D01*
X1269Y104D02*
X1276Y104D01*
X1523Y104D02*
X1530Y104D01*
X0Y103D02*
X7Y103D01*
X859Y103D02*
X866Y103D01*
X909Y103D02*
X917Y103D01*
X1000Y103D02*
X1009Y103D01*
X1222Y103D02*
X1229Y103D01*
X1269Y103D02*
X1276Y103D01*
X1523Y103D02*
X1530Y103D01*
X0Y102D02*
X7Y102D01*
X859Y102D02*
X866Y102D01*
X908Y102D02*
X917Y102D01*
X1001Y102D02*
X1010Y102D01*
X1222Y102D02*
X1229Y102D01*
X1269Y102D02*
X1276Y102D01*
X1523Y102D02*
X1530Y102D01*
X0Y101D02*
X7Y101D01*
X859Y101D02*
X866Y101D01*
X907Y101D02*
X916Y101D01*
X1002Y101D02*
X1011Y101D01*
X1222Y101D02*
X1229Y101D01*
X1269Y101D02*
X1276Y101D01*
X1523Y101D02*
X1530Y101D01*
X0Y100D02*
X7Y100D01*
X859Y100D02*
X866Y100D01*
X906Y100D02*
X915Y100D01*
X1004Y100D02*
X1012Y100D01*
X1222Y100D02*
X1229Y100D01*
X1269Y100D02*
X1276Y100D01*
X1523Y100D02*
X1530Y100D01*
X0Y99D02*
X7Y99D01*
X859Y99D02*
X866Y99D01*
X906Y99D02*
X914Y99D01*
X1006Y99D02*
X1012Y99D01*
X1222Y99D02*
X1229Y99D01*
X1269Y99D02*
X1274Y99D01*
X1523Y99D02*
X1530Y99D01*
X0Y98D02*
X7Y98D01*
X859Y98D02*
X866Y98D01*
X908Y98D02*
X913Y98D01*
X1008Y98D02*
X1013Y98D01*
X1222Y98D02*
X1229Y98D01*
X1269Y98D02*
X1272Y98D01*
X1523Y98D02*
X1530Y98D01*
X0Y97D02*
X7Y97D01*
X859Y97D02*
X866Y97D01*
X910Y97D02*
X912Y97D01*
X1010Y97D02*
X1013Y97D01*
X1222Y97D02*
X1229Y97D01*
X1269Y97D02*
X1270Y97D01*
X1523Y97D02*
X1530Y97D01*
X0Y96D02*
X7Y96D01*
X859Y96D02*
X866Y96D01*
X912Y96D02*
X912Y96D01*
X1011Y96D02*
X1014Y96D01*
X1222Y96D02*
X1229Y96D01*
X1269Y96D02*
X1269Y96D01*
X1523Y96D02*
X1530Y96D01*
X0Y95D02*
X7Y95D01*
X859Y95D02*
X866Y95D01*
X1013Y95D02*
X1015Y95D01*
X1222Y95D02*
X1229Y95D01*
X1523Y95D02*
X1530Y95D01*
X0Y94D02*
X7Y94D01*
X859Y94D02*
X866Y94D01*
X1014Y94D02*
X1015Y94D01*
X1222Y94D02*
X1229Y94D01*
X1523Y94D02*
X1530Y94D01*
X0Y93D02*
X7Y93D01*
X859Y93D02*
X865Y93D01*
X1015Y93D02*
X1016Y93D01*
X1222Y93D02*
X1229Y93D01*
X1523Y93D02*
X1530Y93D01*
X0Y92D02*
X7Y92D01*
X859Y92D02*
X864Y92D01*
X1016Y92D02*
X1016Y92D01*
X1222Y92D02*
X1229Y92D01*
X1523Y92D02*
X1530Y92D01*
X0Y91D02*
X7Y91D01*
X859Y91D02*
X863Y91D01*
X1017Y91D02*
X1017Y91D01*
X1222Y91D02*
X1229Y91D01*
X1523Y91D02*
X1530Y91D01*
X0Y90D02*
X7Y90D01*
X859Y90D02*
X862Y90D01*
X1222Y90D02*
X1229Y90D01*
X1523Y90D02*
X1530Y90D01*
X0Y89D02*
X7Y89D01*
X859Y89D02*
X861Y89D01*
X1222Y89D02*
X1229Y89D01*
X1523Y89D02*
X1530Y89D01*
X0Y88D02*
X7Y88D01*
X859Y88D02*
X860Y88D01*
X1222Y88D02*
X1229Y88D01*
X1523Y88D02*
X1530Y88D01*
X0Y87D02*
X7Y87D01*
X859Y87D02*
X860Y87D01*
X1222Y87D02*
X1229Y87D01*
X1523Y87D02*
X1530Y87D01*
X0Y86D02*
X7Y86D01*
X859Y86D02*
X859Y86D01*
X1222Y86D02*
X1229Y86D01*
X1523Y86D02*
X1530Y86D01*
X0Y85D02*
X7Y85D01*
X1223Y85D02*
X1229Y85D01*
X1523Y85D02*
X1530Y85D01*
X0Y84D02*
X7Y84D01*
X1223Y84D02*
X1229Y84D01*
X1523Y84D02*
X1530Y84D01*
X0Y83D02*
X7Y83D01*
X1224Y83D02*
X1229Y83D01*
X1523Y83D02*
X1530Y83D01*
X0Y82D02*
X7Y82D01*
X1225Y82D02*
X1229Y82D01*
X1523Y82D02*
X1530Y82D01*
X0Y81D02*
X7Y81D01*
X1225Y81D02*
X1229Y81D01*
X1523Y81D02*
X1530Y81D01*
X0Y80D02*
X7Y80D01*
X1226Y80D02*
X1229Y80D01*
X1523Y80D02*
X1530Y80D01*
X0Y79D02*
X7Y79D01*
X1226Y79D02*
X1229Y79D01*
X1523Y79D02*
X1530Y79D01*
X0Y78D02*
X7Y78D01*
X1227Y78D02*
X1229Y78D01*
X1523Y78D02*
X1530Y78D01*
X0Y77D02*
X7Y77D01*
X1227Y77D02*
X1229Y77D01*
X1523Y77D02*
X1530Y77D01*
X0Y76D02*
X7Y76D01*
X1227Y76D02*
X1229Y76D01*
X1523Y76D02*
X1530Y76D01*
X0Y75D02*
X7Y75D01*
X1228Y75D02*
X1229Y75D01*
X1523Y75D02*
X1530Y75D01*
X0Y74D02*
X7Y74D01*
X1228Y74D02*
X1229Y74D01*
X1328Y74D02*
X1446Y74D01*
X1523Y74D02*
X1530Y74D01*
X0Y73D02*
X7Y73D01*
X1228Y73D02*
X1229Y73D01*
X1328Y73D02*
X1448Y73D01*
X1523Y73D02*
X1530Y73D01*
X0Y72D02*
X7Y72D01*
X1229Y72D02*
X1229Y72D01*
X1328Y72D02*
X1448Y72D01*
X1523Y72D02*
X1530Y72D01*
X0Y71D02*
X7Y71D01*
X1229Y71D02*
X1229Y71D01*
X1329Y71D02*
X1449Y71D01*
X1523Y71D02*
X1530Y71D01*
X0Y70D02*
X7Y70D01*
X1229Y70D02*
X1229Y70D01*
X1329Y70D02*
X1449Y70D01*
X1523Y70D02*
X1530Y70D01*
X0Y69D02*
X7Y69D01*
X1229Y69D02*
X1229Y69D01*
X1329Y69D02*
X1449Y69D01*
X1523Y69D02*
X1530Y69D01*
X0Y68D02*
X7Y68D01*
X1329Y68D02*
X1448Y68D01*
X1523Y68D02*
X1530Y68D01*
X0Y67D02*
X7Y67D01*
X1330Y67D02*
X1447Y67D01*
X1523Y67D02*
X1530Y67D01*
X0Y66D02*
X7Y66D01*
X1523Y66D02*
X1530Y66D01*
X0Y65D02*
X7Y65D01*
X1523Y65D02*
X1530Y65D01*
X0Y64D02*
X7Y64D01*
X1523Y64D02*
X1530Y64D01*
X0Y63D02*
X7Y63D01*
X1523Y63D02*
X1530Y63D01*
X0Y62D02*
X7Y62D01*
X1523Y62D02*
X1530Y62D01*
X0Y61D02*
X7Y61D01*
X1523Y61D02*
X1530Y61D01*
X0Y60D02*
X7Y60D01*
X1523Y60D02*
X1530Y60D01*
X0Y59D02*
X7Y59D01*
X1523Y59D02*
X1530Y59D01*
X0Y58D02*
X7Y58D01*
X1523Y58D02*
X1530Y58D01*
X0Y57D02*
X7Y57D01*
X1523Y57D02*
X1530Y57D01*
X0Y56D02*
X7Y56D01*
X1523Y56D02*
X1530Y56D01*
X0Y55D02*
X7Y55D01*
X1523Y55D02*
X1530Y55D01*
X0Y54D02*
X7Y54D01*
X1523Y54D02*
X1530Y54D01*
X0Y53D02*
X7Y53D01*
X1523Y53D02*
X1530Y53D01*
X0Y52D02*
X7Y52D01*
X1523Y52D02*
X1530Y52D01*
X0Y51D02*
X7Y51D01*
X1523Y51D02*
X1530Y51D01*
X0Y50D02*
X7Y50D01*
X1523Y50D02*
X1530Y50D01*
X0Y49D02*
X7Y49D01*
X1523Y49D02*
X1530Y49D01*
X0Y48D02*
X7Y48D01*
X1523Y48D02*
X1530Y48D01*
X0Y47D02*
X7Y47D01*
X1523Y47D02*
X1530Y47D01*
X0Y46D02*
X7Y46D01*
X1523Y46D02*
X1530Y46D01*
X0Y45D02*
X7Y45D01*
X1523Y45D02*
X1530Y45D01*
X0Y44D02*
X7Y44D01*
X1523Y44D02*
X1530Y44D01*
X0Y43D02*
X7Y43D01*
X1523Y43D02*
X1530Y43D01*
X0Y42D02*
X7Y42D01*
X859Y42D02*
X859Y42D01*
X1523Y42D02*
X1530Y42D01*
X0Y41D02*
X7Y41D01*
X859Y41D02*
X859Y41D01*
X1523Y41D02*
X1530Y41D01*
X0Y40D02*
X7Y40D01*
X859Y40D02*
X860Y40D01*
X1523Y40D02*
X1530Y40D01*
X0Y39D02*
X7Y39D01*
X859Y39D02*
X861Y39D01*
X1523Y39D02*
X1530Y39D01*
X0Y38D02*
X7Y38D01*
X859Y38D02*
X862Y38D01*
X1523Y38D02*
X1530Y38D01*
X0Y37D02*
X7Y37D01*
X859Y37D02*
X863Y37D01*
X1018Y37D02*
X1018Y37D01*
X1523Y37D02*
X1530Y37D01*
X0Y36D02*
X7Y36D01*
X859Y36D02*
X864Y36D01*
X1017Y36D02*
X1017Y36D01*
X1523Y36D02*
X1530Y36D01*
X0Y35D02*
X7Y35D01*
X859Y35D02*
X865Y35D01*
X1016Y35D02*
X1017Y35D01*
X1523Y35D02*
X1530Y35D01*
X0Y34D02*
X7Y34D01*
X859Y34D02*
X866Y34D01*
X1014Y34D02*
X1016Y34D01*
X1523Y34D02*
X1530Y34D01*
X0Y33D02*
X7Y33D01*
X859Y33D02*
X866Y33D01*
X1013Y33D02*
X1016Y33D01*
X1523Y33D02*
X1530Y33D01*
X0Y32D02*
X7Y32D01*
X859Y32D02*
X866Y32D01*
X1012Y32D02*
X1015Y32D01*
X1523Y32D02*
X1530Y32D01*
X0Y31D02*
X7Y31D01*
X859Y31D02*
X866Y31D01*
X910Y31D02*
X911Y31D01*
X1010Y31D02*
X1015Y31D01*
X1523Y31D02*
X1530Y31D01*
X0Y30D02*
X7Y30D01*
X859Y30D02*
X866Y30D01*
X909Y30D02*
X912Y30D01*
X1008Y30D02*
X1014Y30D01*
X1523Y30D02*
X1530Y30D01*
X0Y29D02*
X7Y29D01*
X859Y29D02*
X866Y29D01*
X907Y29D02*
X913Y29D01*
X1007Y29D02*
X1013Y29D01*
X1523Y29D02*
X1530Y29D01*
X0Y28D02*
X7Y28D01*
X859Y28D02*
X866Y28D01*
X905Y28D02*
X913Y28D01*
X1005Y28D02*
X1013Y28D01*
X1523Y28D02*
X1530Y28D01*
X0Y27D02*
X7Y27D01*
X859Y27D02*
X866Y27D01*
X906Y27D02*
X914Y27D01*
X1004Y27D02*
X1012Y27D01*
X1523Y27D02*
X1530Y27D01*
X0Y26D02*
X7Y26D01*
X859Y26D02*
X866Y26D01*
X906Y26D02*
X915Y26D01*
X1003Y26D02*
X1011Y26D01*
X1523Y26D02*
X1530Y26D01*
X0Y25D02*
X7Y25D01*
X859Y25D02*
X866Y25D01*
X907Y25D02*
X916Y25D01*
X1002Y25D02*
X1011Y25D01*
X1523Y25D02*
X1530Y25D01*
X0Y24D02*
X7Y24D01*
X859Y24D02*
X866Y24D01*
X908Y24D02*
X917Y24D01*
X1001Y24D02*
X1010Y24D01*
X1523Y24D02*
X1530Y24D01*
X0Y23D02*
X7Y23D01*
X859Y23D02*
X866Y23D01*
X909Y23D02*
X918Y23D01*
X1000Y23D02*
X1009Y23D01*
X1523Y23D02*
X1530Y23D01*
X0Y22D02*
X7Y22D01*
X859Y22D02*
X866Y22D01*
X910Y22D02*
X919Y22D01*
X999Y22D02*
X1008Y22D01*
X1523Y22D02*
X1530Y22D01*
X0Y21D02*
X7Y21D01*
X859Y21D02*
X866Y21D01*
X910Y21D02*
X920Y21D01*
X998Y21D02*
X1008Y21D01*
X1523Y21D02*
X1530Y21D01*
X0Y20D02*
X7Y20D01*
X859Y20D02*
X866Y20D01*
X911Y20D02*
X921Y20D01*
X997Y20D02*
X1007Y20D01*
X1523Y20D02*
X1530Y20D01*
X0Y19D02*
X7Y19D01*
X859Y19D02*
X866Y19D01*
X912Y19D02*
X922Y19D01*
X996Y19D02*
X1006Y19D01*
X1523Y19D02*
X1530Y19D01*
X0Y18D02*
X7Y18D01*
X859Y18D02*
X866Y18D01*
X913Y18D02*
X923Y18D01*
X995Y18D02*
X1005Y18D01*
X1523Y18D02*
X1530Y18D01*
X0Y17D02*
X7Y17D01*
X859Y17D02*
X866Y17D01*
X914Y17D02*
X925Y17D01*
X993Y17D02*
X1004Y17D01*
X1523Y17D02*
X1530Y17D01*
X0Y16D02*
X7Y16D01*
X859Y16D02*
X866Y16D01*
X915Y16D02*
X926Y16D01*
X992Y16D02*
X1003Y16D01*
X1523Y16D02*
X1530Y16D01*
X0Y15D02*
X7Y15D01*
X859Y15D02*
X866Y15D01*
X916Y15D02*
X928Y15D01*
X990Y15D02*
X1002Y15D01*
X1523Y15D02*
X1530Y15D01*
X0Y14D02*
X7Y14D01*
X859Y14D02*
X866Y14D01*
X917Y14D02*
X929Y14D01*
X989Y14D02*
X1001Y14D01*
X1523Y14D02*
X1530Y14D01*
X0Y13D02*
X7Y13D01*
X859Y13D02*
X866Y13D01*
X919Y13D02*
X931Y13D01*
X987Y13D02*
X999Y13D01*
X1523Y13D02*
X1530Y13D01*
X0Y12D02*
X7Y12D01*
X859Y12D02*
X866Y12D01*
X920Y12D02*
X933Y12D01*
X985Y12D02*
X998Y12D01*
X1523Y12D02*
X1530Y12D01*
X0Y11D02*
X7Y11D01*
X859Y11D02*
X866Y11D01*
X921Y11D02*
X935Y11D01*
X983Y11D02*
X997Y11D01*
X1523Y11D02*
X1530Y11D01*
X0Y10D02*
X7Y10D01*
X859Y10D02*
X866Y10D01*
X923Y10D02*
X937Y10D01*
X980Y10D02*
X995Y10D01*
X1523Y10D02*
X1530Y10D01*
X0Y9D02*
X1530Y9D01*
X0Y8D02*
X1530Y8D01*
X0Y7D02*
X1530Y7D01*
X0Y6D02*
X1530Y6D01*
X0Y5D02*
X1530Y5D01*
X0Y4D02*
X1530Y4D01*
X0Y3D02*
X1530Y3D01*
X0Y2D02*
X1530Y2D01*
X859Y1D02*
X866Y1D01*
X941Y1D02*
X977Y1D01*
X859Y0D02*
X866Y0D01*
X944Y0D02*
X973Y0D01*
D02*
G04 End of Silk0*
M02*