G04 MADE WITH FRITZING*
G04 WWW.FRITZING.ORG*
G04 DOUBLE SIDED*
G04 HOLES PLATED*
G04 CONTOUR ON CENTER OF CONTOUR VECTOR*
%ASAXBY*%
%FSLAX23Y23*%
%MOIN*%
%OFA0B0*%
%SFA1.0B1.0*%
%ADD10C,0.074000*%
%ADD11C,0.078000*%
%ADD12C,0.075000*%
%ADD13R,0.078000X0.078000*%
%ADD14C,0.024000*%
%ADD15R,0.001000X0.001000*%
%LNCOPPER1*%
G90*
G70*
G54D10*
X1091Y362D03*
X1091Y462D03*
X1491Y562D03*
X1091Y362D03*
X1091Y462D03*
X1491Y562D03*
G54D11*
X261Y492D03*
X361Y492D03*
G54D12*
X152Y322D03*
X552Y322D03*
G54D11*
X691Y362D03*
X691Y262D03*
G54D12*
X552Y493D03*
X952Y493D03*
G54D13*
X261Y492D03*
X691Y362D03*
G54D14*
X233Y481D02*
X190Y462D01*
D02*
X190Y462D02*
X159Y350D01*
D02*
X350Y520D02*
X292Y661D01*
D02*
X1092Y661D02*
X1091Y493D01*
D02*
X292Y661D02*
X1092Y661D01*
D02*
X1092Y161D02*
X1091Y330D01*
D02*
X492Y262D02*
X492Y161D01*
D02*
X492Y161D02*
X1092Y161D01*
D02*
X532Y302D02*
X492Y262D01*
D02*
X990Y262D02*
X990Y361D01*
D02*
X721Y262D02*
X990Y262D01*
D02*
X990Y361D02*
X1069Y440D01*
D02*
X669Y382D02*
X573Y474D01*
G54D15*
D02*
G04 End of Copper1*
M02*