G04 MADE WITH FRITZING*
G04 WWW.FRITZING.ORG*
G04 DOUBLE SIDED*
G04 HOLES PLATED*
G04 CONTOUR ON CENTER OF CONTOUR VECTOR*
%ASAXBY*%
%FSLAX23Y23*%
%MOIN*%
%OFA0B0*%
%SFA1.0B1.0*%
%ADD10C,0.084000*%
%ADD11C,0.040000*%
%ADD12C,0.088000*%
%ADD13C,0.085000*%
%ADD14R,0.088000X0.088000*%
%ADD15R,0.001000X0.001000*%
%LNMASK1*%
G90*
G70*
G54D10*
X1091Y362D03*
X1091Y462D03*
G54D11*
X1491Y562D03*
G54D10*
X1091Y362D03*
X1091Y462D03*
G54D11*
X1491Y562D03*
G54D12*
X261Y492D03*
X361Y492D03*
G54D13*
X152Y322D03*
X552Y322D03*
G54D12*
X691Y362D03*
X691Y262D03*
G54D13*
X552Y493D03*
X952Y493D03*
G54D14*
X261Y492D03*
X691Y362D03*
G54D15*
X1485Y604D02*
X1495Y604D01*
X1481Y603D02*
X1500Y603D01*
X1478Y602D02*
X1503Y602D01*
X1475Y601D02*
X1505Y601D01*
X1473Y600D02*
X1507Y600D01*
X1472Y599D02*
X1509Y599D01*
X1470Y598D02*
X1511Y598D01*
X1468Y597D02*
X1512Y597D01*
X1467Y596D02*
X1514Y596D01*
X1466Y595D02*
X1515Y595D01*
X1465Y594D02*
X1516Y594D01*
X1463Y593D02*
X1517Y593D01*
X1462Y592D02*
X1518Y592D01*
X1461Y591D02*
X1519Y591D01*
X1460Y590D02*
X1520Y590D01*
X1460Y589D02*
X1521Y589D01*
X1459Y588D02*
X1522Y588D01*
X1458Y587D02*
X1523Y587D01*
X1457Y586D02*
X1524Y586D01*
X1456Y585D02*
X1524Y585D01*
X1456Y584D02*
X1525Y584D01*
X1455Y583D02*
X1526Y583D01*
X1454Y582D02*
X1526Y582D01*
X1454Y581D02*
X1527Y581D01*
X1453Y580D02*
X1527Y580D01*
X1453Y579D02*
X1528Y579D01*
X1452Y578D02*
X1528Y578D01*
X1452Y577D02*
X1529Y577D01*
X1452Y576D02*
X1529Y576D01*
X1451Y575D02*
X1529Y575D01*
X1451Y574D02*
X1530Y574D01*
X1450Y573D02*
X1530Y573D01*
X1450Y572D02*
X1530Y572D01*
X1450Y571D02*
X1531Y571D01*
X1450Y570D02*
X1531Y570D01*
X1449Y569D02*
X1531Y569D01*
X1449Y568D02*
X1531Y568D01*
X1449Y567D02*
X1531Y567D01*
X1449Y558D02*
X1531Y558D01*
X1449Y557D02*
X1531Y557D01*
X1450Y556D02*
X1531Y556D01*
X1450Y555D02*
X1531Y555D01*
X1450Y554D02*
X1531Y554D01*
X1450Y553D02*
X1530Y553D01*
X1451Y552D02*
X1530Y552D01*
X1451Y551D02*
X1530Y551D01*
X1451Y550D02*
X1529Y550D01*
X1452Y549D02*
X1529Y549D01*
X1452Y548D02*
X1529Y548D01*
X1452Y547D02*
X1528Y547D01*
X1453Y546D02*
X1528Y546D01*
X1453Y545D02*
X1527Y545D01*
X1454Y544D02*
X1527Y544D01*
X1455Y543D02*
X1526Y543D01*
X1455Y542D02*
X1525Y542D01*
X1456Y541D02*
X1525Y541D01*
X1456Y540D02*
X1524Y540D01*
X1457Y539D02*
X1523Y539D01*
X1458Y538D02*
X1523Y538D01*
X1459Y537D02*
X1522Y537D01*
X1460Y536D02*
X1521Y536D01*
X1461Y535D02*
X1520Y535D01*
X1461Y534D02*
X1519Y534D01*
X1462Y533D02*
X1518Y533D01*
X1464Y532D02*
X1517Y532D01*
X1465Y531D02*
X1516Y531D01*
X1466Y530D02*
X1515Y530D01*
X1467Y529D02*
X1513Y529D01*
X1469Y528D02*
X1512Y528D01*
X1470Y527D02*
X1511Y527D01*
X1472Y526D02*
X1509Y526D01*
X1474Y525D02*
X1507Y525D01*
X1476Y524D02*
X1505Y524D01*
X1478Y523D02*
X1502Y523D01*
X1481Y522D02*
X1499Y522D01*
X1486Y521D02*
X1495Y521D01*
D02*
G04 End of Mask1*
M02*